<?xml version="1.0" encoding="UTF-8" standalone="no"?>
<!-- Created with Inkscape (http://www.inkscape.org/) -->

<svg
   version="1.1"
   id="svg1"
   width="377.952"
   height="377.952"
   viewBox="0 0 377.952 377.952"
   sodipodi:docname="upload_n57ato7v4mumusztov24hxscax.pdf"
   xmlns:inkscape="http://www.inkscape.org/namespaces/inkscape"
   xmlns:sodipodi="http://sodipodi.sourceforge.net/DTD/sodipodi-0.dtd"
   xmlns="http://www.w3.org/2000/svg"
   xmlns:svg="http://www.w3.org/2000/svg">
  <defs
     id="defs1">
    <clipPath
       clipPathUnits="userSpaceOnUse"
       id="clipPath2">
      <path
         d="M 0,0 V 283.4681 H 283.4681 V 0 Z"
         id="path2" />
    </clipPath>
    <clipPath
       clipPathUnits="userSpaceOnUse"
       id="clipPath4">
      <path
         d="M 0,0 V 283.4681 H 283.4681 V 0 Z"
         id="path4" />
    </clipPath>
    <clipPath
       clipPathUnits="userSpaceOnUse"
       id="clipPath6">
      <path
         d="M 0,0 V 283.4681 H 283.4681 V 0 Z"
         id="path6" />
    </clipPath>
    <clipPath
       clipPathUnits="userSpaceOnUse"
       id="clipPath8">
      <path
         d="M 0,0 V 283.4681 H 283.4681 V 0 Z"
         id="path8" />
    </clipPath>
    <clipPath
       clipPathUnits="userSpaceOnUse"
       id="clipPath10">
      <path
         d="M 0,0 V 283.4681 H 283.4681 V 0 Z"
         id="path10" />
    </clipPath>
    <clipPath
       clipPathUnits="userSpaceOnUse"
       id="clipPath12">
      <path
         d="M 0,0 V 283.4681 H 283.4681 V 0 Z"
         id="path12" />
    </clipPath>
    <clipPath
       clipPathUnits="userSpaceOnUse"
       id="clipPath14">
      <path
         d="M 0,0 V 283.4681 H 283.4681 V 0 Z"
         id="path14" />
    </clipPath>
    <clipPath
       clipPathUnits="userSpaceOnUse"
       id="clipPath16">
      <path
         d="M 0,0 V 283.4681 H 283.4681 V 0 Z"
         transform="matrix(1,0,0,-1,-83.215,161.458)"
         id="path16" />
    </clipPath>
    <clipPath
       clipPathUnits="userSpaceOnUse"
       id="clipPath18">
      <path
         d="M 0,0 V 283.4681 H 283.4681 V 0 Z"
         transform="matrix(1,0,0,-1,-46.156001,137.47)"
         id="path18" />
    </clipPath>
    <clipPath
       clipPathUnits="userSpaceOnUse"
       id="clipPath20">
      <path
         d="M 0,0 V 283.4681 H 283.4681 V 0 Z"
         transform="matrix(1,0,0,-1,-76.857002,113.37501)"
         id="path20" />
    </clipPath>
  </defs>
  <sodipodi:namedview
     id="namedview1"
     pagecolor="#ffffff"
     bordercolor="#000000"
     borderopacity="0.25"
     inkscape:showpageshadow="2"
     inkscape:pageopacity="0.0"
     inkscape:pagecheckerboard="0"
     inkscape:deskcolor="#d1d1d1">
    <inkscape:page
       x="0"
       y="0"
       inkscape:label="1"
       id="page1"
       width="377.952"
       height="377.952"
       margin="0"
       bleed="0" />
  </sodipodi:namedview>
  <g
     id="g1"
     inkscape:groupmode="layer"
     inkscape:label="1">
    <path
       id="path1"
       d="m 0,146.83626 c 0,0 1.02908,1.08673 1.42433,1.49399 0.39523,0.40724 1.0291,1.05592 1.42435,1.4412 0.39525,0.38527 1.0291,0.98616 1.42435,1.33568 0.39524,0.3495 1.02909,0.88217 1.42434,1.18343 0.39525,0.30125 1.0291,0.74569 1.42435,0.98791 0.39526,0.24221 1.0291,0.58329 1.42435,0.7578 0.39526,0.17451 1.02909,0.39951 1.42436,0.50003 0.39525,0.10051 1.02911,0.20155 1.42435,0.22449 0.39523,0.0229 1.02909,-0.004 1.42432,-0.0593 0.39524,-0.0554 1.0291,-0.20857 1.42435,-0.34041 0.39525,-0.13185 1.0291,-0.40638 1.42435,-0.60987 0.39525,-0.2035 1.0291,-0.58904 1.42435,-0.85686 0.39526,-0.26784 1.0291,-0.75087 1.42436,-1.07356 0.39525,-0.3227 1.0291,-0.88623 1.42435,-1.2522 0.39524,-0.36595 1.0291,-0.98926 1.42434,-1.38541 0.39525,-0.39615 1.0291,-1.05766 1.42435,-1.46977 0.39525,-0.41211 1.02911,-1.08716 1.42435,-1.50047 0.39523,-0.41332 1.0291,-1.07856 1.42433,-1.47843 0.39525,-0.39987 1.0291,-1.03149 1.42436,-1.40358 0.39525,-0.37208 1.0291,-0.94725 1.42435,-1.27815 0.39525,-0.3309 1.0291,-0.82893 1.42435,-1.10686 0.39524,-0.27792 1.02909,-0.68119 1.42434,-0.89621 0.39525,-0.21502 1.0291,-0.5092 1.42435,-0.65358 0.39525,-0.14439 1.0291,-0.31852 1.42435,-0.38711 0.39526,-0.0686 1.02911,-0.11693 1.42436,-0.10727 0.39523,0.01 1.02908,0.0893 1.42433,0.17689 0.39523,0.0876 1.0291,0.2919 1.42435,0.45417 0.39525,0.16227 1.0291,0.4842 1.42434,0.71542 0.39525,0.23122 1.0291,0.65921 1.42435,0.95116 0.39525,0.29196 1.0291,0.81094 1.42435,1.15315 0.39526,0.34219 1.02909,0.93298 1.42434,1.31317 0.39527,0.38019 1.0291,1.02242 1.42437,1.42696 0.39525,0.40454 1.0291,1.07438 1.42434,1.48878 0.39525,0.41438 1.02912,1.08835 1.42435,1.49788 0.39523,0.40953 1.0291,1.06375 1.42433,1.45377 0.39524,0.39003 1.0291,1.00084 1.42435,1.35731 0.39525,0.35646 1.0291,0.90176 1.42435,1.21196 0.39526,0.3102 1.02909,0.77094 1.42436,1.02382 0.39525,0.25288 1.0291,0.61238 1.42435,0.79889 0.39525,0.18652 1.02909,0.43202 1.42434,0.54544 0.39525,0.11342 1.0291,0.23589 1.42435,0.27206 0.39525,0.0362 1.0291,0.031 1.42435,-0.0112 0.39524,-0.0422 1.02911,-0.1742 1.42434,-0.29326 0.39525,-0.11906 1.0291,-0.37315 1.42435,-0.5649 0.39523,-0.19174 1.0291,-0.55949 1.42435,-0.81706 0.39525,-0.25757 1.0291,-0.72522 1.42434,-1.03938 0.39525,-0.31417 1.0291,-0.86542 1.42435,-1.22496 0.39525,-0.35954 1.0291,-0.9744 1.42435,-1.36639 0.39525,-0.392 1.0291,-1.04853 1.42434,-1.45894 0.39527,-0.41043 1.0291,-1.08498 1.42437,-1.49918 0.39525,-0.41421 1.0291,-1.08304 1.42434,-1.4862 0.39524,-0.40317 1.0291,-1.04188 1.42434,-1.41959 0.39523,-0.37773 1.02909,-0.96402 1.42434,-1.3028 0.39525,-0.33877 1.0291,-0.85118 1.42435,-1.13887 0.39525,-0.2877 1.0291,-0.70842 1.42435,-0.93472 0.39526,-0.22632 1.0291,-0.53964 1.42434,-0.6964 0.39526,-0.15675 1.0291,-0.35172 1.42436,-0.43339 0.39525,-0.0817 1.0291,-0.15164 1.42435,-0.15529 0.39525,-0.004 1.0291,0.0544 1.42435,0.12891 0.39525,0.0745 1.02911,0.25796 1.42435,0.40788 0.39523,0.1499 1.02909,0.45253 1.42433,0.67259 0.39523,0.22006 1.0291,0.63115 1.42434,0.91351 0.39527,0.28237 1.0291,0.78708 1.42437,1.12159 0.39525,0.3345 1.0291,0.91475 1.42434,1.28939 0.39525,0.37465 1.0291,1.00959 1.42435,1.41094 0.39525,0.40137 1.0291,1.06816 1.42435,1.48187 0.39525,0.41373 1.0291,1.08867 1.42434,1.50005 0.39525,0.41137 1.0291,1.07066 1.42435,1.46499 0.39527,0.39435 1.02912,1.01409 1.42436,1.37722 0.39524,0.36312 1.0291,0.92117 1.42434,1.24008 0.39523,0.31891 1.02909,0.79515 1.42434,1.05842 0.39525,0.26326 1.0291,0.64084 1.42435,0.83912 0.39525,0.19828 1.02909,0.46379 1.42435,0.58999 0.39524,0.12621 1.02909,0.27014 1.42434,0.31964 0.39527,0.0495 1.0291,0.0661 1.42437,0.0372 0.39524,-0.0289 1.02908,-0.1394 1.42434,-0.24568 0.39525,-0.10628 1.02912,-0.3405 1.42435,-0.52035 0.39523,-0.17986 1.0291,-0.52896 1.42433,-0.77597 0.39523,-0.247 1.0291,-0.69901 1.42435,-1.00435 0.39525,-0.30535 1.0291,-0.84371 1.42434,-1.19641 0.39527,-0.3527 1.0291,-0.95818 1.42435,-1.34562 0.39527,-0.38743 1.0291,-1.03851 1.42437,-1.44683 0.39524,-0.40833 1.02909,-1.08158 1.42434,-1.49614 0.39525,-0.41458 1.0291,-1.0858 1.42435,-1.49184 0.39525,-0.40605 1.0291,-1.05168 1.42434,-1.43474 0.39525,-0.38305 1.02912,-0.97989 1.42435,-1.32615 0.39523,-0.34627 1.0291,-0.87245 1.42433,-1.16958 0.39525,-0.29713 1.0291,-0.73457 1.42437,-0.9719 0.39524,-0.23735 1.02909,-0.56975 1.42434,-0.7388 0.39525,-0.16904 1.0291,-0.38498 1.42435,-0.47968 0.39525,-0.0947 1.0291,-0.18588 1.42435,-0.20285 0.39524,-0.017 1.02909,0.0192 1.42434,0.0804 0.39525,0.0613 1.0291,0.22374 1.42435,0.36116 0.39526,0.13744 1.0291,0.42069 1.42436,0.62936 0.39525,0.20866 1.02912,0.60214 1.42435,0.87458 0.39523,0.27245 1.0291,0.76267 1.42433,1.08913 0.39523,0.32646 1.0291,0.89515 1.42435,1.26389 0.39525,0.36872 1.0291,0.99575 1.42434,1.39364 0.39526,0.39787 1.0291,1.06139 1.42435,1.47409 0.39526,0.41269 1.0291,1.08765 1.42436,1.50047 0.39525,0.41283 1.0291,1.0767 1.42435,1.47495 0.39525,0.39824 1.0291,1.026 1.42435,1.39537 0.39525,0.36938 1.02911,0.93959 1.42435,1.26691 0.39523,0.32731 1.0291,0.81872 1.42433,1.09214 0.39523,0.27343 1.02909,0.66864 1.42434,0.8785 0.39527,0.20987 1.0291,0.49528 1.42436,0.63409 0.39525,0.13881 1.02909,0.30365 1.42435,0.36637 0.39525,0.0627 1.0291,0.10124 1.42435,0.0856 0.39525,-0.0156 1.0291,-0.10473 1.42435,-0.1981 0.39524,-0.0934 1.02909,-0.30715 1.42434,-0.47493 0.39525,-0.16779 1.0291,-0.49824 1.42435,-0.73445 0.39526,-0.23621 1.02911,-0.67186 1.42435,-0.96802 0.39524,-0.29617 1.0291,-0.82106 1.42434,-1.16655 0.39524,-0.34551 1.0291,-0.9411 1.42435,-1.32356 0.39525,-0.38248 1.0291,-1.02721 1.42435,-1.433 0.39524,-0.40581 1.0291,-1.07726 1.42434,-1.49184 0.39525,-0.41456 1.0291,-1.08758 1.42435,-1.49614 0.39525,-0.40857 1.0291,-1.06059 1.42435,-1.44858 0.39526,-0.38798 1.0291,-0.99437 1.42436,-1.34779 0.39525,-0.35341 1.0291,-0.89317 1.42434,-1.19941 0.39526,-0.30625 1.02912,-0.75973 1.42435,-1.00782 0.39524,-0.24809 1.0291,-0.59918 1.42434,-0.7803 0.39523,-0.18112 1.02909,-0.41745 1.42434,-0.5251 0.39525,-0.10767 1.0291,-0.22057 1.42435,-0.25088 0.39526,-0.0303 1.0291,-0.0157 1.42436,0.0324 0.39525,0.0481 1.0291,0.18963 1.42435,0.31445 0.39525,0.12483 1.0291,0.38815 1.42435,0.58524 0.39524,0.19708 1.02909,0.57304 1.42434,0.83522 0.39525,0.26219 1.02912,0.73658 1.42435,1.05453 0.39523,0.31795 1.0291,0.87457 1.42433,1.23705 0.39525,0.36247 1.0291,0.98149 1.42436,1.37547 0.39525,0.39399 1.02908,1.05293 1.42435,1.46416 0.39525,0.41121 1.0291,1.08575 1.42435,1.49958 0.39525,0.41385 1.0291,1.08139 1.42434,1.48319 0.39525,0.40179 1.0291,1.0374 1.42435,1.41266 0.39525,0.37526 1.0291,0.95671 1.42435,1.292 0.39526,0.3353 1.0291,0.84128 1.42434,1.1246 0.39527,0.28332 1.02912,0.6962 1.42437,0.91741 0.39523,0.22119 1.0291,0.5257 1.42433,0.67693 0.39523,0.15123 1.0291,0.33722 1.42435,0.41307 0.39525,0.0758 1.02909,0.13591 1.42435,0.13365 0.39524,-0.002 1.02909,-0.0698 1.42434,-0.15008 0.39525,-0.0803 1.0291,-0.27317 1.42435,-0.42865 0.39526,-0.15549 1.02909,-0.46695 1.42436,-0.69207 0.39525,-0.22511 1.0291,-0.6437 1.42435,-0.93039 0.39524,-0.28668 1.0291,-0.79792 1.42434,-1.13585 0.39525,-0.33792 1.02912,-0.92259 1.42435,-1.29977 0.39523,-0.37717 1.0291,-1.01579 1.42433,-1.41872 0.39523,-0.40292 1.0291,-1.07125 1.42435,-1.48533 0.39526,-0.4141 1.0291,-1.08858 1.42436,-1.49918 0.39525,-0.41061 1.0291,-1.06784 1.42435,-1.46025 0.39525,-0.39242 1.0291,-1.00793 1.42434,-1.36812 0.39525,-0.3602 1.0291,-0.91285 1.42435,-1.22798 0.39525,-0.31511 1.0291,-0.78462 1.42435,-1.04327 0.39525,-0.25865 1.02911,-0.62795 1.42434,-0.82096 0.39525,-0.193 1.0291,-0.44958 1.42435,-0.57008 0.39523,-0.12051 1.02909,-0.2549 1.42435,-0.29846 0.39524,-0.0436 1.0291,-0.0505 1.42434,-0.0156 0.39525,0.0349 1.0291,0.15521 1.42435,0.26732 0.39525,0.1121 1.0291,0.35548 1.42435,0.54068 0.39525,0.18518 1.0291,0.54238 1.42435,0.79413 0.39526,0.25174 1.02909,0.71105 1.42435,1.02035 0.39526,0.3093 1.02909,0.8532 1.42436,1.20896 0.39524,0.35575 1.02911,0.96554 1.42434,1.35513 0.39524,0.3896 1.0291,1.04362 1.42433,1.45289 0.39524,0.40929 1.0291,1.08257 1.42435,1.49703 0.39525,0.41444 1.0291,1.08517 1.42435,1.49008 0.39525,0.40491 1.0291,1.04758 1.42434,1.42824 0.39527,0.38066 1.0291,0.97238 1.42437,1.31535 0.39525,0.34297 1.0291,0.86363 1.42434,1.15662 0.39525,0.29297 1.0291,0.72267 1.42435,0.95503 0.39525,0.23236 1.0291,0.55621 1.42435,0.71974 0.39525,0.16353 1.02911,0.37006 1.42434,0.45893 0.39524,0.0889 1.0291,0.17062 1.42434,0.18167 0.39524,0.011 1.02909,-0.0349 1.42436,-0.10208 0.39525,-0.0672 1.0291,-0.23931 1.42435,-0.38237 0.39524,-0.14307 1.02909,-0.43499 1.42434,-0.64881 0.39525,-0.21382 1.0291,-0.61543 1.42435,-0.89231 0.39525,-0.27691 1.0291,-0.77341 1.42434,-1.10342 0.39525,-0.33 1.0291,-0.90371 1.42435,-1.27513 0.39527,-0.37141 1.02912,-1.00227 1.42437,-1.40185 0.39523,-0.39957 1.02908,-1.06479 1.42433,-1.47798 0.39523,-0.41318 1.0291,-1.0878 1.42435,-1.50003 0.39524,-0.41224 1.0291,-1.07445 1.42434,-1.47107 0.39525,-0.39662 1.0291,-1.02097 1.42435,-1.38758 0.39525,-0.3666 1.0291,-0.93127 1.42434,-1.2548 0.39527,-0.32354 1.0291,-0.80811 1.42435,-1.07701 0.39527,-0.26891 1.0291,-0.65643 1.42436,-0.86118 0.39525,-0.20476 1.0291,-0.48148 1.42435,-0.61465 0.39525,-0.13317 1.02911,-0.2884 1.42435,-0.34516 0.39523,-0.0568 1.0291,-0.0855 1.42433,-0.064 0.39523,0.0215 1.0291,0.1201 1.42435,0.2193 0.39524,0.0992 1.02909,0.32242 1.42434,0.49568 0.39527,0.17325 1.0291,0.51198 1.42437,0.75305 0.39524,0.24108 1.02909,0.68416 1.42434,0.98446 0.39525,0.30029 1.0291,0.83122 1.42435,1.17996 0.39525,0.34874 1.0291,0.94877 1.42435,1.33351 0.39524,0.38475 1.02909,1.0325 1.42434,1.4395 0.39525,0.407 1.42435,1.49397 1.42435,1.49397"
       style="fill:none;stroke:#becdc4;stroke-width:0.3985;stroke-linecap:butt;stroke-linejoin:miter;stroke-miterlimit:10;stroke-dasharray:none;stroke-opacity:1"
       transform="matrix(1.3333333,0,0,-1.3333333,0,377.952)"
       clip-path="url(#clipPath2)" />
    <path
       id="path3"
       d="m 0,149.53572 c 0,0 1.02908,1.467 1.42433,1.9888 0.39523,0.52182 1.0291,1.31819 1.42435,1.77211 0.39525,0.45393 1.0291,1.12766 1.42435,1.49962 0.39524,0.37196 1.02909,0.9028 1.42434,1.18126 0.39525,0.27846 1.0291,0.64959 1.42435,0.82573 0.39526,0.17611 1.0291,0.37549 1.42435,0.44377 0.39526,0.0683 1.02909,0.0899 1.42436,0.0485 0.39525,-0.0415 1.02911,-0.19726 1.42435,-0.34734 0.39523,-0.15009 1.02909,-0.48029 1.42432,-0.73444 0.39524,-0.25415 1.0291,-0.7473 1.42435,-1.09735 0.39525,-0.35006 1.0291,-0.99049 1.42435,-1.42564 0.39525,-0.43517 1.0291,-1.20406 1.42435,-1.71069 0.39526,-0.50664 1.0291,-1.37848 1.42436,-1.9408 0.39525,-0.56232 1.0291,-1.51147 1.42435,-2.11209 0.39524,-0.60062 1.0291,-1.59682 1.42434,-2.21675 0.39525,-0.61994 1.0291,-1.6313 1.42435,-2.25136 0.39525,-0.62006 1.02911,-1.61665 1.42435,-2.21762 0.39523,-0.60097 1.0291,-1.55078 1.42433,-2.11382 0.39525,-0.56305 1.0291,-1.43673 1.42436,-1.94426 0.39525,-0.50753 1.0291,-1.27748 1.42435,-1.71373 0.39525,-0.43623 1.0291,-1.07901 1.42435,-1.43039 0.39524,-0.35138 1.02909,-0.84657 1.42434,-1.10209 0.39525,-0.25554 1.0291,-0.58801 1.42435,-0.73966 0.39525,-0.15164 1.0291,-0.31028 1.42435,-0.35337 0.39526,-0.0431 1.02911,-0.024 1.42436,0.0428 0.39523,0.0668 1.02908,0.26428 1.42433,0.43903 0.39523,0.17476 1.0291,0.54358 1.42435,0.82052 0.39525,0.27697 1.0291,0.80493 1.42434,1.17563 0.39525,0.37071 1.0291,1.04325 1.42435,1.49615 0.39525,0.45292 1.0291,1.24726 1.42435,1.76823 0.39526,0.52096 1.02909,1.41383 1.42434,1.98664 0.39527,0.57283 1.0291,1.53521 1.42437,2.14194 0.39525,0.60672 1.0291,1.60936 1.42434,2.23102 0.39525,0.62167 1.02912,1.63229 1.42435,2.24963 0.39523,0.61736 1.0291,1.60605 1.42433,2.19989 0.39524,0.59383 1.0291,1.52831 1.42435,2.08007 0.39525,0.55175 1.0291,1.40422 1.42435,1.89669 0.39526,0.49247 1.02909,1.23491 1.42436,1.65273 0.39525,0.41782 1.0291,1.02847 1.42435,1.3586 0.39525,0.33012 1.02909,0.78872 1.42434,1.02078 0.39525,0.23205 1.0291,0.52498 1.42435,0.65184 0.39525,0.12684 1.0291,0.24486 1.42435,0.26254 0.39524,0.0177 1.02911,-0.043 1.42434,-0.13495 0.39525,-0.0919 1.0291,-0.32887 1.42435,-0.52768 0.39523,-0.19882 1.0291,-0.60579 1.42435,-0.90532 0.39525,-0.29951 1.0291,-0.86275 1.42434,-1.25349 0.39525,-0.39073 1.0291,-1.09285 1.42435,-1.56276 0.39525,-0.46991 1.0291,-1.28953 1.42435,-1.824 0.39525,-0.53447 1.0291,-1.44587 1.42434,-2.02819 0.39527,-0.58231 1.0291,-1.55684 1.42437,-2.16873 0.39525,-0.61191 1.0291,-1.61902 1.42434,-2.24141 0.39524,-0.6224 1.0291,-1.63081 1.42434,-2.24444 0.39523,-0.61362 1.02909,-1.59253 1.42434,-2.17826 0.39525,-0.58574 1.0291,-1.50374 1.42435,-2.04332 0.39525,-0.53958 1.0291,-1.36914 1.42435,-1.84564 0.39526,-0.4765 1.0291,-1.19009 1.42434,-1.58871 0.39526,-0.39861 1.0291,-0.97586 1.42436,-1.2842 0.39525,-0.30835 1.0291,-0.72987 1.42435,-0.93817 0.39525,-0.2083 1.0291,-0.46121 1.42435,-0.56319 0.39525,-0.10196 1.02911,-0.17926 1.42435,-0.17169 0.39523,0.008 1.02909,0.10925 1.42433,0.22621 0.39523,0.11696 1.0291,0.39409 1.42434,0.61679 0.39527,0.22272 1.0291,0.66687 1.42437,0.98836 0.39525,0.32149 1.0291,0.9185 1.42434,1.32875 0.39525,0.41024 1.0291,1.14186 1.42435,1.62808 0.39525,0.48623 1.0291,1.32933 1.42435,1.87635 0.39525,0.54701 1.0291,1.47552 1.42434,2.06622 0.39525,0.59071 1.0291,1.57527 1.42435,2.19125 0.39527,0.61597 1.02912,1.62616 1.42436,2.24833 0.39524,0.62216 1.0291,1.62691 1.42434,2.23579 0.39523,0.6089 1.02909,1.57606 1.42434,2.15274 0.39525,0.57668 1.0291,1.47708 1.42435,2.00351 0.39525,0.52644 1.02909,1.33097 1.42435,1.79071 0.39524,0.45975 1.02909,1.14416 1.42434,1.52296 0.39527,0.3788 1.0291,0.9212 1.42437,1.20722 0.39524,0.28602 1.02908,0.66991 1.42434,0.85426 0.39525,0.18436 1.02912,0.39763 1.42435,0.4745 0.39523,0.0769 1.0291,0.11258 1.42433,0.0796 0.39523,-0.033 1.0291,-0.17561 1.42435,-0.31748 0.39525,-0.14186 1.0291,-0.45881 1.42434,-0.70503 0.39527,-0.24623 1.0291,-0.72676 1.42435,-1.06967 0.39527,-0.34291 1.0291,-0.97288 1.42437,-1.40185 0.39524,-0.42897 1.02909,-1.18834 1.42434,-1.68993 0.39525,-0.50159 1.0291,-1.36656 1.42435,-1.92523 0.39525,-0.55866 1.0291,-1.50299 1.42434,-2.10127 0.39525,-0.59827 1.02912,-1.5916 1.42435,-2.2107 0.39523,-0.61911 1.0291,-1.63058 1.42433,-2.25136 0.39525,-0.62077 1.0291,-1.61967 1.42437,-2.22282 0.39524,-0.60313 1.02909,-1.55754 1.42434,-2.12418 0.39525,-0.56664 1.0291,-1.44732 1.42435,-1.95984 0.39525,-0.51252 1.0291,-1.29176 1.42435,-1.73405 0.39524,-0.44228 1.02909,-1.09541 1.42434,-1.45375 0.39525,-0.35834 1.0291,-0.86566 1.42435,-1.12892 0.39526,-0.26328 1.0291,-0.60875 1.42436,-0.76862 0.39525,-0.15986 1.02912,-0.33212 1.42435,-0.38366 0.39523,-0.0515 1.0291,-0.0462 1.42433,0.0121 0.39523,0.0583 1.0291,0.24153 1.42435,0.40789 0.39525,0.16634 1.0291,0.52183 1.42434,0.7911 0.39526,0.26927 1.0291,0.78583 1.42435,1.14969 0.39526,0.36386 1.0291,1.02583 1.42436,1.47279 0.39525,0.44698 1.0291,1.23258 1.42435,1.74875 0.39525,0.51616 1.0291,1.40204 1.42435,1.97151 0.39525,0.56946 1.02911,1.52803 1.42435,2.13285 0.39523,0.60479 1.0291,1.60511 1.42433,2.22625 0.39523,0.62114 1.02909,1.63214 1.42434,2.25051 0.39527,0.61837 1.0291,1.60998 1.42436,2.20639 0.39525,0.5964 1.02909,1.53644 1.42435,2.09216 0.39525,0.55573 1.0291,1.41551 1.42435,1.91313 0.39525,0.49762 1.0291,1.24945 1.42435,1.67349 0.39524,0.42405 1.02909,1.04549 1.42434,1.38282 0.39525,0.33734 1.0291,0.80847 1.42435,1.04847 0.39526,0.23999 1.02911,0.54599 1.42435,0.68126 0.39524,0.13527 1.0291,0.2674 1.42434,0.29369 0.39524,0.0263 1.0291,-0.0208 1.42435,-0.10425 0.39525,-0.0835 1.0291,-0.30676 1.42435,-0.49742 0.39524,-0.19066 1.0291,-0.58481 1.42434,-0.87675 0.39525,-0.29197 1.0291,-0.84346 1.42435,-1.22754 0.39525,-0.38407 1.0291,-1.07639 1.42435,-1.5407 0.39526,-0.46431 1.0291,-1.27582 1.42436,-1.80585 0.39525,-0.53003 1.0291,-1.43515 1.42434,-2.01434 0.39526,-0.57918 1.02912,-1.54982 1.42435,-2.16009 0.39524,-0.61026 1.0291,-1.61617 1.42434,-2.23838 0.39523,-0.62222 1.02909,-1.63116 1.42434,-2.24617 0.39525,-0.61502 1.0291,-1.59781 1.42435,-2.18647 0.39526,-0.58867 1.0291,-1.51258 1.42436,-2.0563 0.39525,-0.54371 1.0291,-1.38053 1.42435,-1.8625 0.39525,-0.48196 1.0291,-1.20607 1.42435,-1.6112 0.39524,-0.40516 1.02909,-0.99314 1.42434,-1.30887 0.39525,-0.31573 1.02912,-0.75026 1.42435,-0.96673 0.39523,-0.21645 1.0291,-0.48303 1.42433,-0.59344 0.39525,-0.11041 1.0291,-0.20146 1.42436,-0.20242 0.39525,-9.6e-4 1.02908,0.087 1.42435,0.19551 0.39525,0.10855 1.0291,0.37222 1.42435,0.58695 0.39525,0.21473 1.0291,0.64645 1.42434,0.96067 0.39525,0.31423 1.0291,0.90033 1.42435,1.30411 0.39525,0.40376 1.0291,1.12531 1.42435,1.606 0.39526,0.4807 1.0291,1.3158 1.42434,1.85862 0.39527,0.54281 1.02912,1.46562 1.42437,2.05369 0.39523,0.58807 1.0291,1.56999 1.42433,2.18475 0.39523,0.61476 1.0291,1.62389 1.42435,2.24617 0.39525,0.62227 1.02909,1.62824 1.42435,2.23882 0.39524,0.61057 1.02909,1.58197 1.42434,2.16182 0.39525,0.57985 1.0291,1.48637 1.42435,2.01736 0.39526,0.53099 1.02909,1.34423 1.42436,1.80974 0.39525,0.46552 1.0291,1.15988 1.42435,1.54546 0.39524,0.38559 1.0291,0.93989 1.42434,1.23359 0.39525,0.2937 1.02912,0.69079 1.42435,0.88324 0.39523,0.19246 1.0291,0.41864 1.42433,0.50391 0.39523,0.0853 1.0291,0.13521 1.42435,0.11073 0.39526,-0.0245 1.0291,-0.15368 1.42436,-0.2872 0.39525,-0.13353 1.0291,-0.43688 1.42435,-0.6752 0.39525,-0.23831 1.0291,-0.70671 1.42434,-1.04242 0.39525,-0.33569 1.0291,-0.95451 1.42435,-1.37718 0.39525,-0.42268 1.0291,-1.17262 1.42435,-1.66918 0.39525,-0.49653 1.02911,-1.35476 1.42434,-1.90965 0.39525,-0.55488 1.0291,-1.49377 1.42435,-2.08958 0.39523,-0.59581 1.02909,-1.58652 1.42435,-2.20465 0.39524,-0.61815 1.0291,-1.62918 1.42434,-2.25051 0.39525,-0.62132 1.0291,-1.62233 1.42435,-2.22755 0.39525,-0.60524 1.0291,-1.56441 1.42435,-2.1346 0.39525,-0.57017 1.0291,-1.45766 1.42435,-1.97496 0.39526,-0.5173 1.02909,-1.3052 1.42435,-1.75351 0.39526,-0.44829 1.02909,-1.11224 1.42436,-1.47755 0.39524,-0.3653 1.02911,-0.88434 1.42434,-1.15531 0.39524,-0.27095 1.0291,-0.62945 1.42433,-0.79759 0.39524,-0.16815 1.0291,-0.35432 1.42435,-0.41438 0.39525,-0.0601 1.0291,-0.0683 1.42435,-0.0186 0.39525,0.0497 1.0291,0.2191 1.42434,0.37717 0.39527,0.15808 1.0291,0.5006 1.42437,0.76213 0.39525,0.26153 1.0291,0.76604 1.42434,1.12288 0.39525,0.35683 1.0291,1.00795 1.42435,1.44899 0.39525,0.44104 1.0291,1.21836 1.42435,1.72972 0.39525,0.51137 1.02911,1.39008 1.42434,1.95594 0.39524,0.56587 1.0291,1.5197 1.42434,2.12246 0.39524,0.60278 1.02909,1.60136 1.42436,2.22196 0.39525,0.62058 1.0291,1.63165 1.42435,2.25093 0.39524,0.61926 1.02909,1.61367 1.42434,2.21241 0.39525,0.59874 1.0291,1.54351 1.42435,2.10302 0.39525,0.5595 1.0291,1.42675 1.42434,1.92953 0.39525,0.50279 1.0291,1.26398 1.42435,1.69426 0.39527,0.4303 1.02912,1.06258 1.42437,1.40706 0.39523,0.34447 1.02908,0.82779 1.42433,1.0757 0.39523,0.24792 1.0291,0.56749 1.42435,0.7111 0.39524,0.14362 1.0291,0.28911 1.42434,0.32398 0.39525,0.0348 1.0291,0.002 1.42435,-0.0727 0.39525,-0.075 1.0291,-0.28504 1.42434,-0.4676 0.39527,-0.18255 1.0291,-0.56379 1.42435,-0.84819 0.39527,-0.28439 1.0291,-0.82423 1.42436,-1.20159 0.39525,-0.37735 1.0291,-1.05959 1.42435,-1.51821 0.39525,-0.45862 1.02911,-1.26184 1.42435,-1.78724 0.39523,-0.52542 1.0291,-1.4237 1.42433,-1.99964 0.39523,-0.57593 1.0291,-1.54285 1.42435,-2.15144 0.39524,-0.6086 1.02909,-1.61295 1.42434,-2.23491 0.39527,-0.62198 1.0291,-1.6317 1.42437,-2.24791 0.39524,-0.61621 1.02909,-1.60202 1.42434,-2.19341 0.39525,-0.59137 1.0291,-1.5209 1.42435,-2.06883 0.39525,-0.54793 1.0291,-1.39294 1.42435,-1.88023 0.39524,-0.48731 1.02909,-1.2204 1.42434,-1.63198 0.39525,-0.41156 1.42435,-1.33437 1.42435,-1.33437"
       style="fill:none;stroke:#94b2a2;stroke-width:0.49814;stroke-linecap:butt;stroke-linejoin:miter;stroke-miterlimit:10;stroke-dasharray:none;stroke-opacity:1"
       transform="matrix(1.3333333,0,0,-1.3333333,0,377.952)"
       clip-path="url(#clipPath4)" />
    <path
       id="path5"
       d="m 0,155.17905 c 0,0 1.02908,1.3461 1.42433,1.75393 0.39523,0.40784 1.0291,0.94182 1.42435,1.18558 0.39525,0.24378 1.0291,0.50094 1.42435,0.57138 0.39524,0.0704 1.02909,0.042 1.42434,-0.0636 0.39525,-0.1056 1.0291,-0.41987 1.42435,-0.69767 0.39526,-0.2778 1.0291,-0.8655 1.42435,-1.30455 0.39526,-0.43905 1.02909,-1.27671 1.42436,-1.85991 0.39525,-0.58321 1.02911,-1.63858 1.42435,-2.34349 0.39523,-0.70493 1.02909,-1.93792 1.42432,-2.73711 0.39524,-0.79919 1.0291,-2.16068 1.42435,-3.023 0.39525,-0.86233 1.0291,-2.30015 1.42435,-3.19214 0.39525,-0.89196 1.0291,-2.3495 1.42435,-3.23667 0.39526,-0.88718 1.0291,-2.30948 1.42436,-3.15753 0.39525,-0.84804 1.0291,-2.17894 1.42435,-2.95467 0.39524,-0.77573 1.0291,-1.96291 1.42434,-2.63631 0.39525,-0.6734 1.0291,-1.67222 1.42435,-2.21719 0.39525,-0.54498 1.02911,-1.3152 1.42435,-1.71068 0.39523,-0.39548 1.0291,-0.90924 1.42433,-1.13974 0.39525,-0.23051 1.0291,-0.46512 1.42436,-0.52164 0.39525,-0.0565 1.0291,-0.005 1.42435,0.11419 0.39525,0.11935 1.0291,0.45524 1.42435,0.74612 0.39524,0.29088 1.02909,0.89922 1.42434,1.35039 0.39525,0.45118 1.0291,1.30772 1.42435,1.90143 0.39525,0.59371 1.0291,1.66435 1.42435,2.37767 0.39526,0.71331 1.02911,1.95816 1.42436,2.76347 0.39523,0.80533 1.02908,2.17488 1.42433,3.04076 0.39523,0.86587 1.0291,2.30703 1.42435,3.1999 0.39525,0.89287 1.0291,2.35007 1.42434,3.2354 0.39525,0.88531 1.0291,2.30198 1.42435,3.1454 0.39525,0.84343 1.0291,2.16466 1.42435,2.93349 0.39526,0.76881 1.02909,1.94354 1.42434,2.60775 0.39527,0.66422 1.0291,1.64563 1.42437,2.17957 0.39525,0.53393 1.0291,1.28566 1.42434,1.66873 0.39525,0.38306 1.02912,0.87516 1.42435,1.09216 0.39523,0.21701 1.0291,0.4293 1.42433,0.4719 0.39524,0.0426 1.0291,-0.0316 1.42435,-0.1648 0.39525,-0.13318 1.0291,-0.4911 1.42435,-0.795 0.39526,-0.3039 1.02909,-0.93231 1.42436,-1.39538 0.39525,-0.46306 1.0291,-1.338 1.42435,-1.94209 0.39525,-0.6041 1.02909,-1.69023 1.42434,-2.41183 0.39525,-0.7216 1.0291,-1.97781 1.42435,-2.789 0.39525,-0.8112 1.0291,-2.18832 1.42435,-3.05761 0.39524,-0.86931 1.02911,-2.31423 1.42434,-3.20771 0.39525,-0.89348 1.0291,-2.3487 1.42435,-3.23191 0.39523,-0.88323 1.0291,-2.29499 1.42435,-3.13375 0.39525,-0.83874 1.0291,-2.14978 1.42434,-2.91142 0.39525,-0.76163 1.0291,-1.92299 1.42435,-2.57791 0.39525,-0.65494 1.0291,-1.61966 1.42435,-2.14238 0.39525,-0.52272 1.0291,-1.2547 1.42434,-1.62505 0.39527,-0.37033 1.0291,-0.84057 1.42437,-1.04413 0.39525,-0.20355 1.0291,-0.39416 1.42434,-0.42301 0.39524,-0.0289 1.0291,0.068 1.42434,0.21496 0.39523,0.14692 1.02909,0.52695 1.42434,0.84387 0.39525,0.31695 1.0291,0.96555 1.42435,1.44037 0.39525,0.47481 1.0291,1.36765 1.42435,1.98188 0.39526,0.61424 1.0291,1.71545 1.42434,2.44514 0.39526,0.7297 1.0291,1.99713 1.42436,2.81409 0.39525,0.81695 1.0291,2.20158 1.42435,3.07405 0.39525,0.87248 1.0291,2.32023 1.42435,3.21418 0.39525,0.89396 1.02911,2.34797 1.42435,3.2289 0.39523,0.88094 1.02909,2.28644 1.42433,3.12034 0.39523,0.83389 1.0291,2.13554 1.42434,2.88978 0.39527,0.75426 1.0291,1.90097 1.42437,2.54635 0.39525,0.64539 1.0291,1.59372 1.42434,2.10515 0.39525,0.51143 1.0291,1.22332 1.42435,1.58094 0.39525,0.3576 1.0291,0.80644 1.42435,0.99656 0.39525,0.19011 1.0291,0.35872 1.42434,0.37372 0.39525,0.015 1.0291,-0.10486 1.42435,-0.26558 0.39527,-0.1607 1.02912,-0.56288 1.42436,-0.89276 0.39524,-0.32988 1.0291,-0.99844 1.42434,-1.48489 0.39523,-0.48647 1.02909,-1.39695 1.42434,-2.02126 0.39525,-0.62431 1.0291,-1.74077 1.42435,-2.47844 0.39525,-0.73768 1.02909,-2.0159 1.42435,-2.83832 0.39524,-0.82243 1.02909,-2.21382 1.42434,-3.08918 0.39527,-0.87536 1.0291,-2.32557 1.42437,-3.21982 0.39524,-0.89426 1.02908,-2.34695 1.42434,-3.22544 0.39525,-0.87847 1.02912,-2.27739 1.42435,-3.10604 0.39523,-0.82867 1.0291,-2.11974 1.42433,-2.86643 0.39523,-0.7467 1.0291,-1.87944 1.42435,-2.51521 0.39525,-0.63579 1.0291,-1.56716 1.42434,-2.06711 0.39527,-0.49997 1.0291,-1.19154 1.42435,-1.53638 0.39527,-0.34482 1.0291,-0.77243 1.42437,-0.94897 0.39524,-0.17656 1.02909,-0.3224 1.42434,-0.32355 0.39525,-0.001 1.0291,0.14104 1.42435,0.31532 0.39525,0.17427 1.0291,0.59798 1.42434,0.94077 0.39525,0.34279 1.02912,1.03177 1.42435,1.52988 0.39523,0.49812 1.0291,1.42608 1.42433,2.06019 0.39525,0.63411 1.0291,1.76459 1.42437,2.51001 0.39524,0.74544 1.02909,2.03471 1.42434,2.86254 0.39525,0.82782 1.0291,2.22584 1.42435,3.10389 0.39525,0.87805 1.0291,2.33031 1.42435,3.22457 0.39524,0.89425 1.02909,2.3448 1.42434,3.22068 0.39525,0.8759 1.0291,2.26889 1.42435,3.09221 0.39526,0.82332 1.0291,2.10291 1.42436,2.84178 0.39525,0.73888 1.02912,1.85774 1.42435,2.48363 0.39523,0.62589 1.0291,1.53887 1.42433,2.0273 0.39523,0.48845 1.0291,1.16101 1.42435,1.49313 0.39525,0.33211 1.0291,0.73774 1.42434,0.90055 0.39526,0.16281 1.0291,0.28564 1.42435,0.27293 0.39526,-0.0127 1.0291,-0.17679 1.42436,-0.36462 0.39525,-0.18784 1.0291,-0.63366 1.42435,-0.98923 0.39525,-0.35558 1.0291,-1.06407 1.42435,-1.57358 0.39525,-0.50951 1.02911,-1.45489 1.42435,-2.09866 0.39523,-0.64376 1.0291,-1.78812 1.42433,-2.54116 0.39523,-0.75305 1.02909,-2.05328 1.42434,-2.88633 0.39527,-0.83306 1.0291,-2.23723 1.42436,-3.11774 0.39525,-0.88051 1.02909,-2.33444 1.42435,-3.22845 0.39525,-0.89402 1.0291,-2.34204 1.42435,-3.21506 0.39525,-0.87302 1.0291,-2.25916 1.42435,-3.07707 0.39524,-0.81794 1.02909,-2.08704 1.42434,-2.818 0.39525,-0.73095 1.0291,-1.83447 1.42435,-2.45031 0.39526,-0.61585 1.02911,-1.51159 1.42435,-1.98839 0.39524,-0.47681 1.0291,-1.12905 1.42434,-1.44814 0.39524,-0.31909 1.0291,-0.70253 1.42435,-0.85166 0.39525,-0.14913 1.0291,-0.24972 1.42435,-0.2232 0.39524,0.0265 1.0291,0.21305 1.42434,0.41437 0.39525,0.20134 1.0291,0.6685 1.42435,1.0368 0.39525,0.36829 1.0291,1.09685 1.42435,1.6177 0.39526,0.52085 1.0291,1.48293 1.42436,2.1363 0.39525,0.65337 1.0291,1.8123 1.42434,2.57274 0.39526,0.76044 1.02912,2.06998 1.42435,2.90795 0.39524,0.83796 1.0291,2.24865 1.42434,3.13157 0.39523,0.88292 1.02909,2.33832 1.42434,3.23192 0.39525,0.8936 1.0291,2.33876 1.42435,3.20859 0.39526,0.86981 1.0291,2.2484 1.42436,3.06062 0.39525,0.81223 1.0291,2.07042 1.42435,2.79334 0.39525,0.72291 1.0291,1.81137 1.42435,2.41702 0.39524,0.60565 1.02909,1.48311 1.42434,1.94815 0.39525,0.46504 1.02912,1.09746 1.42435,1.40358 0.39523,0.30612 1.0291,0.66746 1.42433,0.80279 0.39525,0.13533 1.0291,0.21302 1.42436,0.17258 0.39525,-0.0404 1.02908,-0.24932 1.42435,-0.46411 0.39525,-0.2148 1.0291,-0.70303 1.42435,-1.08394 0.39525,-0.38089 1.0291,-1.12924 1.42434,-1.66137 0.39525,-0.53214 1.0291,-1.51128 1.42435,-2.17394 0.39525,-0.66267 1.0291,-1.83452 1.42435,-2.60214 0.39526,-0.76762 1.0291,-2.0877 1.42434,-2.93045 0.39527,-0.84277 1.02912,-2.25879 1.42437,-3.1437 0.39523,-0.88488 1.0291,-2.34114 1.42433,-3.23407 0.39523,-0.89294 1.0291,-2.33514 1.42435,-3.20166 0.39525,-0.86653 1.02909,-2.23741 1.42435,-3.04376 0.39524,-0.80633 1.02909,-2.05313 1.42434,-2.76782 0.39525,-0.71469 1.0291,-1.78795 1.42435,-2.38327 0.39526,-0.59534 1.02909,-1.45441 1.42436,-1.9075 0.39525,-0.45309 1.0291,-1.065 1.42435,-1.35817 0.39524,-0.29315 1.0291,-0.63312 1.42434,-0.75478 0.39525,-0.12164 1.02912,-0.17633 1.42435,-0.12198 0.39523,0.0544 1.0291,0.28564 1.42433,0.51386 0.39523,0.22822 1.0291,0.73765 1.42435,1.13108 0.39526,0.39346 1.0291,1.1614 1.42436,1.70464 0.39525,0.54325 1.0291,1.53885 1.42435,2.2107 0.39525,0.67186 1.0291,1.85691 1.42434,2.63156 0.39525,0.77464 1.0291,2.10432 1.42435,2.95164 0.39525,0.84732 1.0291,2.26848 1.42435,3.15536 0.39525,0.8869 1.02911,2.34454 1.42434,3.2367 0.39525,0.89215 1.0291,2.33049 1.42435,3.1934 0.39523,0.86294 1.02909,2.22596 1.42435,3.02605 0.39524,0.8001 1.0291,2.03426 1.42434,2.74056 0.39525,0.70629 1.0291,1.76499 1.42435,2.34999 0.39525,0.58499 1.0291,1.42534 1.42435,1.86638 0.39525,0.44104 1.0291,1.03232 1.42435,1.31233 0.39526,0.28001 1.02909,0.59807 1.42435,0.7059 0.39526,0.10785 1.02909,0.13961 1.42436,0.0714 0.39524,-0.0682 1.02911,-0.32165 1.42434,-0.56318 0.39524,-0.24154 1.0291,-0.77194 1.42433,-1.17781 0.39524,-0.40587 1.0291,-1.19324 1.42435,-1.74745 0.39525,-0.55422 1.0291,-1.56606 1.42435,-2.24704 0.39525,-0.68097 1.0291,-1.87947 1.42434,-2.66097 0.39527,-0.78149 1.0291,-2.11988 1.42437,-2.97152 0.39525,-0.85166 1.0291,-2.27806 1.42434,-3.16663 0.39525,-0.88855 1.0291,-2.34653 1.42435,-3.23755 0.39525,-0.891 1.0291,-2.32518 1.42435,-3.18434 0.39525,-0.85914 1.02911,-2.21401 1.42434,-3.00786 0.39524,-0.79387 1.0291,-2.01603 1.42434,-2.71375 0.39524,-0.69772 1.02909,-1.7405 1.42436,-2.31495 0.39525,-0.57443 1.0291,-1.39645 1.42435,-1.8253 0.39524,-0.42883 1.02909,-0.99885 1.42434,-1.26561 0.39525,-0.26674 1.0291,-0.56281 1.42435,-0.65703 0.39525,-0.0942 1.0291,-0.10408 1.42434,-0.0221 0.39525,0.082 1.0291,0.35834 1.42435,0.61334 0.39527,0.255 1.02912,0.8064 1.42437,1.22452 0.39523,0.41811 1.02908,1.22394 1.42433,1.78898 0.39523,0.56501 1.0291,1.59338 1.42435,2.28335 0.39524,0.68997 1.0291,1.90145 1.42434,2.68955 0.39525,0.7881 1.0291,2.13482 1.42435,2.99055 0.39525,0.85574 1.0291,2.28692 1.42434,3.17699 0.39527,0.89006 1.0291,2.34817 1.42435,3.23799 0.39527,0.88981 1.0291,2.32007 1.42436,3.17524 0.39525,0.8552 1.0291,2.20104 1.42435,2.98842 0.39525,0.78737 1.02911,1.99753 1.42435,2.6865 0.39523,0.68894 1.0291,1.71527 1.42433,2.27903 0.39523,0.56377 1.0291,1.3676 1.42435,1.78421 0.39524,0.41661 1.02909,0.96511 1.42434,1.21848 0.39527,0.25337 1.0291,0.52731 1.42437,0.60771 0.39524,0.0804 1.02909,0.0677 1.42434,-0.0281 0.39525,-0.0958 1.0291,-0.39438 1.42435,-0.66265 0.39525,-0.26825 1.0291,-0.84051 1.42435,-1.27079 0.39524,-0.4303 1.02909,-1.25481 1.42434,-1.83051 0.39525,-0.5757 1.42435,-2.31883 1.42435,-2.31883"
       style="fill:none;stroke:#69917d;stroke-width:0.49814;stroke-linecap:butt;stroke-linejoin:miter;stroke-miterlimit:10;stroke-dasharray:none;stroke-opacity:1"
       transform="matrix(1.3333333,0,0,-1.3333333,0,377.952)"
       clip-path="url(#clipPath6)" />
    <path
       id="path7"
       d="m 0,151.64954 c 0,0 1.02908,-0.13284 1.42433,-0.25736 0.39523,-0.12453 1.0291,-0.41235 1.42435,-0.64015 0.39525,-0.22781 1.0291,-0.67854 1.42435,-1.00177 0.39524,-0.32323 1.02909,-0.92047 1.42434,-1.3279 0.39525,-0.40742 1.0291,-1.13107 1.42435,-1.60859 0.39526,-0.47753 1.0291,-1.30199 1.42435,-1.8331 0.39526,-0.53112 1.02909,-1.42857 1.42436,-1.99486 0.39525,-0.5663 1.02911,-1.50481 1.42435,-2.08656 0.39523,-0.58178 1.02909,-1.52915 1.42432,-2.10646 0.39524,-0.57734 1.0291,-1.50169 1.42435,-2.05457 0.39525,-0.5529 1.0291,-1.4212 1.42435,-1.93042 0.39525,-0.5092 1.0291,-1.29172 1.42435,-1.73965 0.39526,-0.44795 1.0291,-1.11753 1.42436,-1.48882 0.39525,-0.37129 1.0291,-0.90549 1.42435,-1.1873 0.39524,-0.28182 1.0291,-0.66152 1.42434,-0.84389 0.39525,-0.18239 1.0291,-0.3939 1.42435,-0.47059 0.39525,-0.0767 1.02911,-0.11375 1.42435,-0.0822 0.39523,0.0316 1.0291,0.17094 1.42433,0.30969 0.39525,0.13875 1.0291,0.44919 1.42436,0.69033 0.39525,0.24113 1.0291,0.71238 1.42435,1.04762 0.39525,0.33522 1.0291,0.95087 1.42435,1.36854 0.39524,0.4177 1.02909,1.15622 1.42434,1.64191 0.39525,0.48569 1.0291,1.32176 1.42435,1.85863 0.39525,0.53688 1.0291,1.44133 1.42435,2.01086 0.39526,0.56952 1.02911,1.51154 1.42436,2.09392 0.39523,0.58237 1.02908,1.52826 1.42433,2.10344 0.39523,0.57517 1.0291,1.49385 1.42435,2.042 0.39525,0.54815 1.0291,1.40678 1.42434,1.90879 0.39525,0.50201 1.0291,1.27081 1.42435,1.70938 0.39525,0.43859 1.0291,1.09166 1.42435,1.45162 0.39526,0.35995 1.02909,0.87391 1.42434,1.14276 0.39527,0.26884 1.0291,0.62642 1.42437,0.795 0.39525,0.16857 1.0291,0.35772 1.42434,0.41999 0.39525,0.0623 1.02912,0.0751 1.42435,0.029 0.39523,-0.0461 1.0291,-0.2088 1.42433,-0.36159 0.39524,-0.1528 1.0291,-0.48532 1.42435,-0.73965 0.39525,-0.25434 1.0291,-0.74646 1.42435,-1.09345 0.39526,-0.34698 1.02909,-0.97983 1.42436,-1.40748 0.39525,-0.42765 1.0291,-1.18111 1.42435,-1.67478 0.39525,-0.49367 1.02909,-1.34089 1.42434,-1.88328 0.39525,-0.54239 1.0291,-1.45366 1.42435,-2.026 0.39525,-0.57235 1.0291,-1.51657 1.42435,-2.09911 0.39524,-0.58253 1.02911,-1.52684 1.42434,-2.09955 0.39525,-0.57269 1.0291,-1.4851 1.42435,-2.02817 0.39523,-0.54306 1.0291,-1.39141 1.42435,-1.88586 0.39525,-0.49445 1.0291,-1.24896 1.42434,-1.67781 0.39525,-0.42885 1.0291,-1.06461 1.42435,-1.4131 0.39525,-0.34849 1.0291,-0.84276 1.42435,-1.09865 0.39525,-0.25589 1.0291,-0.59123 1.42434,-0.7457 0.39527,-0.15448 1.0291,-0.31984 1.42437,-0.36766 0.39525,-0.0478 1.0291,-0.0376 1.42434,0.0229 0.39524,0.0606 1.0291,0.24663 1.42434,0.41351 0.39523,0.16689 1.02909,0.52209 1.42434,0.78937 0.39525,0.26731 1.0291,0.77858 1.42435,1.13716 0.39525,0.35859 1.0291,1.00978 1.42435,1.44728 0.39526,0.43749 1.0291,1.20481 1.42434,1.70592 0.39526,0.5011 1.0291,1.3582 1.42436,1.90576 0.39525,0.54757 1.0291,1.46585 1.42435,2.04071 0.39525,0.57486 1.0291,1.52021 1.42435,2.10257 0.39525,0.58239 1.02911,1.52485 1.42435,2.09478 0.39523,0.56994 1.02909,1.47551 1.42433,2.01304 0.39523,0.53755 1.0291,1.37458 1.42434,1.86121 0.39527,0.48665 1.0291,1.22735 1.42437,1.64624 0.39525,0.4189 1.0291,1.03627 1.42434,1.37288 0.39525,0.33661 1.0291,0.81041 1.42435,1.05322 0.39525,0.24281 1.0291,0.55641 1.42435,0.69682 0.39525,0.14043 1.0291,0.28209 1.42434,0.31533 0.39525,0.0332 1.0291,-7.7e-4 1.42435,-0.0757 0.39527,-0.075 1.02912,-0.28386 1.42436,-0.46456 0.39524,-0.18068 1.0291,-0.55755 1.42434,-0.83781 0.39523,-0.28027 1.02909,-0.81221 1.42434,-1.18213 0.39525,-0.3699 1.0291,-1.03717 1.42435,-1.48402 0.39525,-0.44688 1.02909,-1.22823 1.42435,-1.73665 0.39524,-0.50844 1.02909,-1.37546 1.42434,-1.92783 0.39527,-0.55237 1.0291,-1.47616 1.42437,-2.05325 0.39524,-0.57709 1.02908,-1.52422 1.42434,-2.10603 0.39525,-0.58184 1.02912,-1.52074 1.42435,-2.08744 0.39523,-0.56669 1.0291,-1.46518 1.42433,-1.99702 0.39523,-0.53185 1.0291,-1.35764 1.42435,-1.83612 0.39525,-0.47849 1.0291,-1.20388 1.42434,-1.61251 0.39527,-0.40863 1.0291,-1.00798 1.42435,-1.33265 0.39527,-0.32466 1.0291,-0.77794 1.42437,-1.00738 0.39524,-0.22942 1.02909,-0.51994 1.42434,-0.6462 0.39525,-0.12627 1.0291,-0.24509 1.42435,-0.26386 0.39525,-0.0188 1.0291,0.0391 1.42434,0.12846 0.39525,0.0894 1.02912,0.32152 1.42435,0.51603 0.39523,0.19449 1.0291,0.59297 1.42433,0.88583 0.39525,0.29286 1.0291,0.8438 1.42437,1.22494 0.39524,0.38116 1.02909,1.06602 1.42434,1.52212 0.39525,0.4561 1.0291,1.24984 1.42435,1.76518 0.39525,0.51533 1.0291,1.39221 1.42435,1.949 0.39524,0.55681 1.02909,1.4852 1.42434,2.06409 0.39525,0.57889 1.0291,1.52719 1.42435,2.10819 0.39526,0.58097 1.0291,1.51617 1.42436,2.0792 0.39525,0.56304 1.02912,1.45315 1.42435,1.97887 0.39523,0.52571 1.0291,1.3401 1.42433,1.81017 0.39523,0.47008 1.0291,1.17976 1.42435,1.57789 0.39525,0.39812 1.0291,0.97907 1.42434,1.29157 0.39526,0.31248 1.0291,0.74462 1.42435,0.96066 0.39526,0.21603 1.0291,0.48444 1.42436,0.59646 0.39525,0.11205 1.0291,0.20696 1.42435,0.2111 0.39525,0.004 1.0291,-0.0775 1.42435,-0.18125 0.39525,-0.10375 1.02911,-0.3585 1.42435,-0.56662 0.39523,-0.20811 1.0291,-0.628 1.42433,-0.93343 0.39523,-0.3054 1.02909,-0.87582 1.42434,-1.26775 0.39527,-0.39194 1.0291,-1.09217 1.42436,-1.55715 0.39525,-0.46498 1.02909,-1.2721 1.42435,-1.79414 0.39525,-0.52206 1.0291,-1.40756 1.42435,-1.96849 0.39525,-0.56095 1.0291,-1.49413 1.42435,-2.07445 0.39524,-0.58032 1.02909,-1.52847 1.42434,-2.1082 0.39525,-0.57972 1.0291,-1.51092 1.42435,-2.07013 0.39526,-0.5592 1.02911,-1.44102 1.42435,-1.96027 0.39524,-0.51924 1.0291,-1.32078 1.42434,-1.78204 0.39524,-0.46126 1.0291,-1.155 1.42435,-1.54243 0.39525,-0.38744 1.0291,-0.94992 1.42435,-1.25003 0.39524,-0.30013 1.0291,-0.71074 1.42434,-0.91311 0.39525,-0.20234 1.0291,-0.44766 1.42435,-0.54541 0.39525,-0.0977 1.0291,-0.16955 1.42435,-0.15918 0.39526,0.0104 1.0291,0.1159 1.42436,0.234 0.39525,0.1181 1.0291,0.39561 1.42434,0.61723 0.39526,0.22164 1.02912,0.66249 1.42435,0.98013 0.39524,0.31765 1.0291,0.90667 1.42434,1.3093 0.39523,0.40262 1.02909,1.11897 1.42434,1.59259 0.39525,0.47362 1.0291,1.29269 1.42435,1.821 0.39526,0.52829 1.0291,1.42192 1.42436,1.98665 0.39525,0.56473 1.0291,1.50213 1.42435,2.08354 0.39525,0.58139 1.0291,1.52878 1.42435,2.10689 0.39524,0.57809 1.02909,1.50475 1.42434,2.05974 0.39525,0.55499 1.02912,1.42791 1.42435,1.94036 0.39523,0.51244 1.0291,1.30088 1.42433,1.75309 0.39525,0.45219 1.0291,1.12968 1.42436,1.50609 0.39525,0.3764 1.02908,0.91922 1.42435,1.20678 0.39525,0.28759 1.0291,0.6772 1.42435,0.86594 0.39525,0.18873 1.0291,0.41109 1.42434,0.49438 0.39525,0.0833 1.0291,0.13088 1.42435,0.10597 0.39525,-0.0249 1.0291,-0.15327 1.42435,-0.28547 0.39526,-0.1322 1.0291,-0.43233 1.42434,-0.66741 0.39527,-0.23506 1.02912,-0.69708 1.42437,-1.02684 0.39523,-0.32975 1.0291,-0.93695 1.42433,-1.34994 0.39523,-0.41301 1.0291,-1.14482 1.42435,-1.62679 0.39525,-0.48196 1.02909,-1.31269 1.42435,-1.84693 0.39524,-0.53423 1.02909,-1.43543 1.42434,-2.00352 0.39525,-0.56808 1.0291,-1.50869 1.42435,-2.09089 0.39526,-0.58218 1.02909,-1.5289 1.42436,-2.10515 0.39525,-0.57625 1.0291,-1.49771 1.42435,-2.04808 0.39524,-0.55037 1.0291,-1.41342 1.42434,-1.91873 0.39525,-0.50531 1.02912,-1.28034 1.42435,-1.72324 0.39523,-0.44288 1.0291,-1.10364 1.42433,-1.46888 0.39523,-0.36525 1.0291,-0.88874 1.42435,-1.16353 0.39526,-0.2748 1.0291,-0.64228 1.42436,-0.81708 0.39525,-0.17481 1.0291,-0.37396 1.42435,-0.4429 0.39525,-0.069 1.0291,-0.0934 1.42434,-0.0541 0.39525,0.0394 1.0291,0.19139 1.42435,0.33781 0.39525,0.14643 1.0291,0.46926 1.42435,0.71758 0.39525,0.24832 1.02911,0.73061 1.42434,1.07227 0.39525,0.34164 1.0291,0.96708 1.42435,1.39016 0.39523,0.4231 1.02909,1.16922 1.42435,1.65923 0.39524,0.49001 1.0291,1.33251 1.42434,1.87245 0.39525,0.53995 1.0291,1.44801 1.42435,2.01909 0.39525,0.57107 1.0291,1.5144 1.42435,2.09694 0.39525,0.58255 1.0291,1.52786 1.42435,2.1017 0.39526,0.57385 1.02909,1.48884 1.42435,2.03424 0.39526,0.54541 1.02909,1.39863 1.42436,1.89668 0.39524,0.49805 1.02911,1.2596 1.42434,1.69295 0.39524,0.43335 1.0291,1.07667 1.42433,1.4304 0.39524,0.35372 1.0291,0.85707 1.42435,1.11898 0.39525,0.2619 1.0291,0.60766 1.42435,0.76863 0.39525,0.16095 1.0291,0.33702 1.42434,0.39145 0.39527,0.0544 1.0291,0.0547 1.42437,8.3e-4 0.39525,-0.0539 1.0291,-0.2288 1.42434,-0.38926 0.39525,-0.16048 1.0291,-0.50585 1.42435,-0.76732 0.39525,-0.26148 1.0291,-0.76402 1.42435,-1.11726 0.39525,-0.35323 1.02911,-0.99567 1.42434,-1.42867 0.39524,-0.433 1.0291,-1.19427 1.42434,-1.69208 0.39524,-0.4978 1.02909,-1.35061 1.42436,-1.89583 0.39525,-0.54522 1.0291,-1.46005 1.42435,-2.03378 0.39524,-0.57371 1.02909,-1.51878 1.42434,-2.10127 0.39525,-0.58251 1.0291,-1.5257 1.42435,-2.09696 0.39525,-0.57125 1.0291,-1.48025 1.42434,-2.02037 0.39525,-0.54011 1.0291,-1.3822 1.42435,-1.87245 0.39527,-0.49025 1.02912,-1.23738 1.42437,-1.66096 0.39523,-0.42357 1.02908,-1.04982 1.42433,-1.39191 0.39523,-0.34207 1.0291,-0.82481 1.42435,-1.07356 0.39524,-0.24875 1.0291,-0.57239 1.42434,-0.7193 0.39525,-0.14691 1.0291,-0.29958 1.42435,-0.33954 0.39525,-0.04 1.0291,-0.0169 1.42434,0.0515 0.39527,0.0684 1.0291,0.26722 1.42435,0.44162 0.39527,0.17439 1.0291,0.54101 1.42436,0.81534 0.39525,0.27432 1.0291,0.79704 1.42435,1.1618 0.39525,0.36475 1.02911,1.02456 1.42435,1.46715 0.39523,0.44259 1.0291,1.21768 1.42433,1.72281 0.39523,0.50514 1.0291,1.36766 1.42435,1.91787 0.39524,0.55021 1.02909,1.47152 1.42434,2.04764 0.39527,0.57613 1.0291,1.5226 1.42437,2.10474 0.39524,0.58212 1.02909,1.52267 1.42434,2.09088 0.39525,0.56819 1.0291,1.46991 1.42435,2.00438 0.39525,0.53447 1.0291,1.36552 1.42435,1.84779 0.39524,0.48227 1.02909,1.21471 1.42434,1.62807 0.39525,0.41338 1.42435,1.35126 1.42435,1.35126"
       style="fill:none;stroke:#94b2a2;stroke-width:0.3985;stroke-linecap:butt;stroke-linejoin:miter;stroke-miterlimit:10;stroke-dasharray:none;stroke-opacity:1"
       transform="matrix(1.3333333,0,0,-1.3333333,0,377.952)"
       clip-path="url(#clipPath8)" />
    <path
       id="path9"
       d="m 0,156.97711 c 0,0 1.02908,-1.56112 1.42433,-2.23147 0.39523,-0.67034 1.0291,-1.84274 1.42435,-2.59999 0.39525,-0.75724 1.0291,-2.04551 1.42435,-2.85778 0.39524,-0.81227 1.02909,-2.16339 1.42434,-2.99661 0.39525,-0.83322 1.0291,-2.18956 1.42435,-3.00874 0.39526,-0.81919 1.0291,-2.12442 1.42435,-2.8954 0.39526,-0.77099 1.02909,-1.97102 1.42436,-2.66141 0.39525,-0.6904 1.02911,-1.73391 1.42435,-2.31451 0.39523,-0.58063 1.02909,-1.42374 1.42432,-1.87029 0.39524,-0.44656 1.0291,-1.05435 1.42435,-1.34824 0.39525,-0.29388 1.0291,-0.64119 1.42435,-0.76989 0.39525,-0.12873 1.0291,-0.19973 1.42435,-0.1579 0.39526,0.0418 1.0291,0.24878 1.42436,0.45936 0.39525,0.21057 1.0291,0.68796 1.42435,1.05841 0.39524,0.37047 1.0291,1.09693 1.42434,1.61165 0.39525,0.51473 1.0291,1.46065 1.42435,2.09824 0.39525,0.63759 1.02911,1.76338 1.42435,2.49704 0.39523,0.73367 1.0291,1.9919 1.42433,2.79074 0.39525,0.79883 1.0291,2.13631 1.42436,2.96677 0.39525,0.83047 1.0291,2.19136 1.42435,3.01869 0.39525,0.82733 1.0291,2.15482 1.42435,2.94429 0.39524,0.78946 1.02909,2.02727 1.42434,2.74574 0.39525,0.71848 1.0291,1.81519 1.42435,2.4326 0.39525,0.6174 1.0291,1.52706 1.42435,2.01737 0.39526,0.49029 1.02911,1.17386 1.42436,1.51646 0.39523,0.34261 1.02908,0.77225 1.42433,0.95288 0.39523,0.18062 1.0291,0.33797 1.42435,0.34906 0.39525,0.0111 1.0291,-0.11001 1.42434,-0.26904 0.39525,-0.15903 1.0291,-0.55474 1.42435,-0.87718 0.39525,-0.32245 1.0291,-0.97458 1.42435,-1.44684 0.39526,-0.47225 1.02909,-1.35452 1.42434,-1.9568 0.39527,-0.6023 1.0291,-1.67708 1.42437,-2.38416 0.39525,-0.70706 1.0291,-1.92979 1.42434,-2.712 0.39525,-0.78223 1.02912,-2.10136 1.42435,-2.92569 0.39523,-0.82434 1.0291,-2.18364 1.42433,-3.01566 0.39524,-0.83201 1.0291,-2.17615 1.42435,-2.98105 0.39525,-0.8049 1.0291,-2.07641 1.42435,-2.82014 0.39526,-0.74375 1.02909,-1.88881 1.42436,-2.5403 0.39525,-0.65151 1.0291,-1.62322 1.42435,-2.15534 0.39525,-0.53213 1.02909,-1.28978 1.42434,-1.67998 0.39525,-0.39019 1.0291,-0.90061 1.42435,-1.1324 0.39525,-0.23176 1.0291,-0.47427 1.42435,-0.53806 0.39524,-0.0638 1.02911,-0.0285 1.42434,0.0783 0.39525,0.10683 1.0291,0.41856 1.42435,0.69163 0.39523,0.27306 1.0291,0.84859 1.42435,1.27642 0.39525,0.42782 1.0291,1.24255 1.42434,1.80714 0.39525,0.56461 1.0291,1.58449 1.42435,2.26216 0.39525,0.67768 1.0291,1.85977 1.42435,2.62206 0.39525,0.76228 1.0291,2.057 1.42434,2.87205 0.39527,0.81503 1.0291,2.16886 1.42437,3.00225 0.39525,0.8334 1.0291,2.18751 1.42434,3.0044 0.39524,0.8169 1.0291,2.1171 1.42434,2.88331 0.39523,0.76619 1.02909,1.95573 1.42434,2.63891 0.39525,0.6832 1.0291,1.71347 1.42435,2.2851 0.39525,0.57162 1.0291,1.39883 1.42435,1.83482 0.39526,0.43599 1.0291,1.02545 1.42434,1.30757 0.39526,0.28212 1.0291,0.60944 1.42436,0.72579 0.39525,0.11636 1.0291,0.1672 1.42435,0.11291 0.39525,-0.0543 1.0291,-0.28169 1.42435,-0.50435 0.39525,-0.22264 1.02911,-0.71882 1.42435,-1.10037 0.39523,-0.38156 1.02909,-1.12513 1.42433,-1.6497 0.39523,-0.52459 1.0291,-1.48545 1.42434,-2.13113 0.39527,-0.64568 1.0291,-1.78307 1.42437,-2.52256 0.39525,-0.73949 1.0291,-2.00491 1.42434,-2.80716 0.39525,-0.80226 1.0291,-2.14363 1.42435,-2.97501 0.39525,-0.83136 1.0291,-2.19122 1.42435,-3.01695 0.39525,-0.82572 1.0291,-2.14888 1.42434,-2.93434 0.39525,-0.78546 1.0291,-2.0146 1.42435,-2.72671 0.39527,-0.71213 1.02912,-1.7969 1.42436,-2.40578 0.39524,-0.60889 1.0291,-1.5027 1.42434,-1.98274 0.39523,-0.48006 1.02909,-1.14592 1.42434,-1.47713 0.39525,-0.33121 1.0291,-0.74161 1.42435,-0.91007 0.39525,-0.16844 1.02909,-0.30549 1.42435,-0.30406 0.39524,0.001 1.02909,0.14319 1.42434,0.31446 0.39527,0.17126 1.0291,0.58609 1.42437,0.91999 0.39524,0.33393 1.02908,1.00412 1.42434,1.48664 0.39525,0.48251 1.02912,1.38009 1.42435,1.99098 0.39523,0.61087 1.0291,1.69823 1.42433,2.41184 0.39523,0.7136 1.0291,1.94506 1.42435,2.73147 0.39525,0.78641 1.0291,2.11041 1.42434,2.93649 0.39527,0.82608 1.0291,2.18621 1.42435,3.0174 0.39527,0.83117 1.0291,2.17178 1.42437,2.97326 0.39524,0.80147 1.02909,2.06518 1.42434,2.80327 0.39525,0.7381 1.0291,1.87274 1.42435,2.51651 0.39525,0.64376 1.0291,1.60092 1.42434,2.12334 0.39525,0.52241 1.02912,1.26285 1.42435,1.64191 0.39523,0.37904 1.0291,0.87034 1.42433,1.08999 0.39525,0.21964 1.0291,0.44177 1.42437,0.49309 0.39524,0.0513 1.02909,-0.004 1.42434,-0.12328 0.39525,-0.11912 1.0291,-0.45048 1.42435,-0.7353 0.39525,-0.28482 1.0291,-0.87901 1.42435,-1.31752 0.39524,-0.43853 1.02909,-1.26932 1.42434,-1.84305 0.39525,-0.57372 1.0291,-1.60708 1.42435,-2.29201 0.39526,-0.68493 1.0291,-1.87721 1.42436,-2.64454 0.39525,-0.76734 1.02912,-2.06845 1.42435,-2.8859 0.39523,-0.81744 1.0291,-2.17243 1.42433,-3.00571 0.39523,-0.83328 1.0291,-2.18569 1.42435,-3.00007 0.39525,-0.81439 1.0291,-2.10825 1.42434,-2.86945 0.39526,-0.76121 1.0291,-1.94093 1.42435,-2.61685 0.39526,-0.67593 1.0291,-1.69246 1.42436,-2.25484 0.39525,-0.56237 1.0291,-1.37312 1.42435,-1.79849 0.39525,-0.42537 1.0291,-0.99699 1.42435,-1.26733 0.39525,-0.27036 1.02911,-0.57738 1.42435,-0.68125 0.39523,-0.10388 1.0291,-0.13426 1.42433,-0.0675 0.39523,0.0668 1.02909,0.3143 1.42434,0.54889 0.39527,0.23457 1.0291,0.74928 1.42436,1.14189 0.39525,0.39261 1.02909,1.15347 1.42435,1.68777 0.39525,0.53429 1.0291,1.50969 1.42435,2.16312 0.39525,0.65343 1.0291,1.80122 1.42435,2.54634 0.39524,0.74513 1.02909,2.01837 1.42434,2.82405 0.39525,0.80567 1.0291,2.15065 1.42435,2.98279 0.39526,0.83214 1.02911,2.19092 1.42435,3.01478 0.39524,0.82386 1.0291,2.1419 1.42434,2.9231 0.39524,0.78119 1.0291,2.00176 1.42435,2.70726 0.39525,0.70551 1.0291,1.77739 1.42435,2.37764 0.39524,0.60025 1.0291,1.47875 1.42434,1.9486 0.39525,0.46984 1.0291,1.118 1.42435,1.43775 0.39525,0.31975 1.0291,0.71061 1.42435,0.86681 0.39526,0.1562 1.0291,0.27306 1.42436,0.25908 0.39525,-0.014 1.0291,-0.17627 1.42434,-0.35986 0.39526,-0.18358 1.02912,-0.61795 1.42435,-0.96328 0.39524,-0.3453 1.0291,-1.03295 1.42434,-1.52554 0.39523,-0.49258 1.02909,-1.40538 1.42434,-2.02472 0.39525,-0.61934 1.0291,-1.71904 1.42435,-2.43909 0.39526,-0.72003 1.0291,-1.96006 1.42436,-2.7505 0.39525,-0.79045 1.0291,-2.11886 1.42435,-2.94644 0.39525,-0.82759 1.0291,-2.1881 1.42435,-3.01825 0.39524,-0.83017 1.02909,-2.16707 1.42434,-2.96506 0.39525,-0.798 1.02912,-2.05418 1.42435,-2.7864 0.39523,-0.73221 1.0291,-1.85521 1.42433,-2.491 0.39525,-0.63577 1.0291,-1.57875 1.42436,-2.09131 0.39525,-0.51257 1.02908,-1.23517 1.42435,-1.60298 0.39525,-0.36781 1.0291,-0.8404 1.42435,-1.04804 0.39525,-0.20764 1.0291,-0.40967 1.42434,-0.44854 0.39525,-0.0389 1.0291,0.0367 1.42435,0.16824 0.39525,0.13155 1.0291,0.48323 1.42435,0.77986 0.39526,0.29665 1.0291,0.9091 1.42434,1.35819 0.39527,0.44908 1.02912,1.29583 1.42437,1.87851 0.39523,0.58265 1.0291,1.62905 1.42433,2.32099 0.39523,0.69196 1.0291,1.89403 1.42435,2.66616 0.39525,0.77212 1.02909,2.0791 1.42435,2.89888 0.39524,0.81979 1.02909,2.1765 1.42434,3.00959 0.39525,0.8331 1.0291,2.18329 1.42435,2.99491 0.39526,0.81161 1.02909,2.09877 1.42436,2.85475 0.39525,0.75598 1.0291,1.92537 1.42435,2.59392 0.39524,0.66856 1.0291,1.67134 1.42434,2.22455 0.39525,0.55319 1.02912,1.348 1.42435,1.76258 0.39523,0.41457 1.0291,0.96703 1.42433,1.22539 0.39523,0.25836 1.0291,0.54523 1.42435,0.63669 0.39526,0.0915 1.0291,0.10166 1.42436,0.0225 0.39525,-0.0791 1.0291,-0.34648 1.42435,-0.593 0.39525,-0.24653 1.0291,-0.78021 1.42434,-1.18385 0.39525,-0.40366 1.0291,-1.18157 1.42435,-1.72541 0.39525,-0.54383 1.0291,-1.53315 1.42435,-2.19427 0.39525,-0.6611 1.02911,-1.81992 1.42434,-2.57056 0.39525,-0.75064 1.0291,-2.03088 1.42435,-2.83961 0.39523,-0.80875 1.02909,-2.15653 1.42435,-2.98928 0.39524,-0.83275 1.0291,-2.19068 1.42434,-3.01263 0.39525,-0.82193 1.0291,-2.13466 1.42435,-2.91141 0.39525,-0.77673 1.0291,-1.98814 1.42435,-2.68692 0.39525,-0.69879 1.0291,-1.75805 1.42435,-2.34955 0.39526,-0.59149 1.02909,-1.45408 1.42435,-1.91354 0.39526,-0.45947 1.02909,-1.08974 1.42436,-1.39796 0.39524,-0.30823 1.02911,-0.67972 1.42434,-0.82355 0.39524,-0.14385 1.0291,-0.23976 1.42433,-0.21324 0.39524,0.0265 1.0291,0.20872 1.42435,0.40442 0.39525,0.19569 1.0291,0.64949 1.42435,1.00607 0.39525,0.3566 1.0291,1.0614 1.42434,1.56406 0.39527,0.50267 1.0291,1.43115 1.42437,2.05888 0.39525,0.62773 1.0291,1.73932 1.42434,2.46547 0.39525,0.72616 1.0291,1.97391 1.42435,2.76823 0.39525,0.79434 1.0291,2.12781 1.42435,2.95684 0.39525,0.82902 1.02911,2.18928 1.42434,3.01824 0.39524,0.82897 1.0291,2.16207 1.42434,2.95641 0.39524,0.79433 1.02909,2.04253 1.42436,2.76868 0.39525,0.72615 1.0291,1.83748 1.42435,2.46502 0.39524,0.62755 1.02909,1.55541 1.42434,2.05802 0.39525,0.50261 1.0291,1.20796 1.42435,1.5645 0.39525,0.35653 1.0291,0.80964 1.42434,1.00521 0.39525,0.19558 1.0291,0.37795 1.42435,0.40442 0.39527,0.0265 1.02912,-0.0698 1.42437,-0.21366 0.39523,-0.14391 1.02908,-0.51528 1.42433,-0.82355 0.39523,-0.30829 1.0291,-0.93883 1.42435,-1.39841 0.39524,-0.45956 1.0291,-1.32242 1.42434,-1.91397 0.39525,-0.59155 1.0291,-1.65071 1.42435,-2.34956 0.39525,-0.69884 1.0291,-1.91062 1.42434,-2.68735 0.39527,-0.77675 1.0291,-2.08911 1.42435,-2.91098 0.39527,-0.82189 1.0291,-2.17989 1.42436,-3.01264 0.39525,-0.83274 1.0291,-2.18052 1.42435,-2.98927 0.39525,-0.80873 1.02911,-2.08896 1.42435,-2.8396 0.39523,-0.75064 1.0291,-1.90953 1.42433,-2.57059 0.39523,-0.66104 1.0291,-1.65004 1.42435,-2.19381 0.39524,-0.54378 1.02909,-1.32181 1.42434,-1.72541 0.39527,-0.40357 1.0291,-0.93701 1.42437,-1.18342 0.39524,-0.2464 1.02909,-0.51347 1.42434,-0.59258 0.39525,-0.0791 1.0291,-0.069 1.42435,0.0225 0.39525,0.0915 1.0291,0.37863 1.42435,0.63712 0.39524,0.25846 1.02909,0.81118 1.42434,1.22583 0.39525,0.41462 1.42435,1.76257 1.42435,1.76257"
       style="fill:none;stroke:#69917d;stroke-width:0.59776;stroke-linecap:butt;stroke-linejoin:miter;stroke-miterlimit:10;stroke-dasharray:none;stroke-opacity:1"
       transform="matrix(1.3333333,0,0,-1.3333333,0,377.952)"
       clip-path="url(#clipPath10)" />
    <path
       id="path11"
       d="m 0,144.83447 c 0,0 1.02908,-1.24188 1.42433,-1.71719 0.39523,-0.4753 1.0291,-1.24288 1.42435,-1.70851 0.39525,-0.46564 1.0291,-1.20572 1.42435,-1.64754 0.39524,-0.4418 1.02909,-1.13208 1.42434,-1.5368 0.39525,-0.40473 1.0291,-1.02473 1.42435,-1.38023 0.39526,-0.35552 1.0291,-0.88657 1.42435,-1.18214 0.39526,-0.29554 1.02909,-0.72134 1.42436,-0.94813 0.39525,-0.22678 1.02911,-0.53531 1.42435,-0.68642 0.39523,-0.15111 1.02909,-0.33189 1.42432,-0.40271 0.39524,-0.0708 1.0291,-0.1191 1.42435,-0.10768 0.39525,0.0114 1.0291,0.0965 1.42435,0.18987 0.39525,0.0934 1.0291,0.31056 1.42435,0.48315 0.39526,0.17258 1.0291,0.51431 1.42436,0.76083 0.39525,0.24654 1.0291,0.70295 1.42435,1.01604 0.39524,0.31308 1.0291,0.87024 1.42434,1.24052 0.39525,0.37027 1.0291,1.01192 1.42435,1.42823 0.39525,0.4163 1.02911,1.12248 1.42435,1.57228 0.39523,0.4498 1.0291,1.19993 1.42433,1.6696 0.39525,0.46966 1.0291,1.23994 1.42436,1.71544 0.39525,0.47548 1.0291,1.24442 1.42435,1.71156 0.39525,0.46713 1.0291,1.2107 1.42435,1.65532 0.39524,0.44463 1.02909,1.1406 1.42434,1.54935 0.39525,0.40875 1.0291,1.03616 1.42435,1.39667 0.39525,0.36048 1.0291,0.90014 1.42435,1.20158 0.39526,0.30145 1.02911,0.73761 1.42436,0.97105 0.39523,0.23343 1.02908,0.55321 1.42433,0.71152 0.39523,0.15833 1.0291,0.35109 1.42435,0.42952 0.39525,0.0784 1.0291,0.13959 1.42434,0.13582 0.39525,-0.004 1.0291,-0.0771 1.42435,-0.16307 0.39525,-0.0859 1.0291,-0.2909 1.42435,-0.45633 0.39526,-0.16545 1.02909,-0.49619 1.42434,-0.73617 0.39527,-0.24 1.0291,-0.68623 1.42437,-0.99355 0.39525,-0.30731 1.0291,-0.85608 1.42434,-1.2215 0.39525,-0.3654 1.02912,-0.99971 1.42435,-1.41223 0.39523,-0.41252 1.0291,-1.11375 1.42433,-1.56102 0.39524,-0.44728 1.0291,-1.19421 1.42435,-1.66267 0.39525,-0.46846 1.0291,-1.23818 1.42435,-1.71372 0.39526,-0.47555 1.02909,-1.24527 1.42436,-1.71373 0.39525,-0.46846 1.0291,-1.21539 1.42435,-1.66268 0.39525,-0.44726 1.02909,-1.14843 1.42434,-1.56101 0.39525,-0.41259 1.0291,-1.04727 1.42435,-1.41268 0.39525,-0.36541 1.0291,-0.91372 1.42435,-1.22105 0.39524,-0.30733 1.02911,-0.75388 1.42434,-0.99397 0.39525,-0.2401 1.0291,-0.57111 1.42435,-0.73661 0.39523,-0.16551 1.0291,-0.3704 1.42435,-0.45634 0.39525,-0.0859 1.0291,-0.15929 1.42434,-0.16306 0.39525,-0.004 1.0291,0.0574 1.42435,0.13582 0.39525,0.0784 1.0291,0.27126 1.42435,0.4295 0.39525,0.15826 1.0291,0.47773 1.42434,0.71111 0.39527,0.23339 1.0291,0.6696 1.42437,0.97104 0.39525,0.30144 1.0291,0.8411 1.42434,1.2016 0.39524,0.36049 1.0291,0.98798 1.42434,1.39667 0.39523,0.40868 1.02909,1.10432 1.42434,1.5489 0.39525,0.44458 1.0291,1.18819 1.42435,1.65534 0.39525,0.46713 1.0291,1.23605 1.42435,1.71154 0.39526,0.47548 1.0291,1.24578 1.42434,1.71544 0.39526,0.46967 1.0291,1.21981 1.42436,1.6696 0.39525,0.44979 1.0291,1.15596 1.42435,1.57229 0.39525,0.4163 1.0291,1.05789 1.42435,1.42823 0.39525,0.37034 1.02911,0.9278 1.42435,1.24095 0.39523,0.31315 1.02909,0.76943 1.42433,1.01603 0.39523,0.24659 1.0291,0.58868 1.42434,0.76127 0.39527,0.17258 1.0291,0.38933 1.42437,0.4827 0.39525,0.0934 1.0291,0.17882 1.42434,0.19034 0.39525,0.0115 1.0291,-0.0365 1.42435,-0.10729 0.39525,-0.0708 1.0291,-0.25201 1.42435,-0.40312 0.39525,-0.15111 1.0291,-0.45929 1.42434,-0.686 0.39525,-0.22674 1.0291,-0.65262 1.42435,-0.94812 0.39527,-0.29551 1.02912,-0.82625 1.42436,-1.18171 0.39524,-0.35545 1.0291,-0.97544 1.42434,-1.38023 0.39523,-0.40478 1.02909,-1.09541 1.42434,-1.53723 0.39525,-0.44182 1.0291,-1.18153 1.42435,-1.64711 0.39525,-0.46558 1.02909,-1.23322 1.42435,-1.70851 0.39524,-0.47531 1.02909,-1.24637 1.42434,-1.71718 0.39527,-0.47079 1.0291,-1.22383 1.42437,-1.67609 0.39524,-0.45226 1.02908,-1.16354 1.42434,-1.58351 0.39525,-0.41998 1.02912,-1.06831 1.42435,-1.44339 0.39523,-0.37507 1.0291,-0.94113 1.42433,-1.25998 0.39523,-0.31884 1.0291,-0.78509 1.42435,-1.0381 0.39525,-0.253 1.0291,-0.60582 1.42434,-0.78549 0.39527,-0.17967 1.0291,-0.40859 1.42435,-0.50952 0.39527,-0.10094 1.0291,-0.19892 1.42437,-0.218 0.39524,-0.0191 1.02909,0.0171 1.42434,0.0805 0.39525,0.0633 1.0291,0.23208 1.42435,0.37587 0.39525,0.14376 1.0291,0.44055 1.42434,0.66049 0.39525,0.21994 1.02912,0.63525 1.42435,0.92476 0.39523,0.2895 1.0291,0.81145 1.42433,1.1618 0.39525,0.35035 1.0291,0.96265 1.42437,1.36336 0.39524,0.40071 1.02909,1.08571 1.42434,1.5247 0.39525,0.43898 1.0291,1.17529 1.42435,1.63931 0.39525,0.46402 1.0291,1.23006 1.42435,1.70505 0.39524,0.47501 1.02909,1.24672 1.42434,1.71849 0.39525,0.47176 1.0291,1.22716 1.42435,1.6817 0.39526,0.45454 1.0291,1.17083 1.42436,1.59434 0.39525,0.42352 1.02912,1.07838 1.42435,1.45808 0.39523,0.3797 1.0291,0.9541 1.42433,1.27859 0.39523,0.3245 1.0291,0.80065 1.42435,1.06014 0.39525,0.2595 1.0291,0.62346 1.42434,0.81015 0.39526,0.18669 1.0291,0.42717 1.42435,0.53549 0.39526,0.10831 1.0291,0.21849 1.42436,0.24525 0.39525,0.0267 1.0291,0.003 1.42435,-0.0523 0.39525,-0.0558 1.0291,-0.21297 1.42435,-0.34951 0.39525,-0.13652 1.02911,-0.42136 1.42435,-0.63452 0.39523,-0.21316 1.0291,-0.61841 1.42433,-0.90185 0.39523,-0.28343 1.02909,-0.79592 1.42434,-1.14104 0.39527,-0.34514 1.0291,-0.94998 1.42436,-1.34648 0.39525,-0.3965 1.02909,-1.0753 1.42435,-1.51129 0.39525,-0.43599 1.0291,-1.16883 1.42435,-1.63111 0.39525,-0.46227 1.0291,-1.22619 1.42435,-1.70073 0.39524,-0.47453 1.02909,-1.24662 1.42434,-1.71934 0.39525,-0.47272 1.0291,-1.23108 1.42435,-1.68777 0.39526,-0.4567 1.02911,-1.17698 1.42435,-1.60384 0.39524,-0.42687 1.0291,-1.08847 1.42434,-1.47279 0.39524,-0.38433 1.0291,-0.96712 1.42435,-1.2972 0.39525,-0.33006 1.0291,-0.81592 1.42435,-1.08177 0.39524,-0.26586 1.0291,-0.64064 1.42434,-0.83435 0.39525,-0.19373 1.0291,-0.44611 1.42435,-0.56188 0.39525,-0.11575 1.0291,-0.23823 1.42435,-0.2725 0.39526,-0.0343 1.0291,-0.0227 1.42436,0.0255 0.39525,0.0482 1.0291,0.19268 1.42434,0.32181 0.39526,0.12914 1.02912,0.40268 1.42435,0.60901 0.39524,0.20632 1.0291,0.6008 1.42434,0.87806 0.39523,0.27725 1.02909,0.78042 1.42434,1.12026 0.39525,0.33986 1.0291,0.93695 1.42435,1.3292 0.39526,0.39224 1.0291,1.065 1.42436,1.49787 0.39525,0.43288 1.0291,1.16161 1.42435,1.62203 0.39525,0.46042 1.0291,1.22243 1.42435,1.69641 0.39524,0.47398 1.02909,1.24628 1.42434,1.71977 0.39525,0.4735 1.02912,1.23416 1.42435,1.69296 0.39523,0.45879 1.0291,1.18363 1.42433,1.61379 0.39525,0.43018 1.0291,1.09793 1.42436,1.48663 0.39525,0.38871 1.02908,0.97939 1.42435,1.31491 0.39525,0.33553 1.0291,0.83126 1.42435,1.10341 0.39525,0.27216 1.0291,0.65747 1.42434,0.85816 0.39525,0.20068 1.0291,0.46505 1.42435,0.58825 0.39525,0.12319 1.0291,0.25788 1.42435,0.29975 0.39526,0.0419 1.0291,0.0427 1.42434,0.002 0.39527,-0.0406 1.02912,-0.17274 1.42437,-0.29455 0.39523,-0.12181 1.0291,-0.38402 1.42433,-0.5835 0.39523,-0.19948 1.0291,-0.58323 1.42435,-0.85426 0.39525,-0.27103 1.02909,-0.76463 1.42435,-1.09908 0.39524,-0.33444 1.02909,-0.92353 1.42434,-1.31146 0.39525,-0.38792 1.0291,-1.05482 1.42435,-1.48446 0.39526,-0.42965 1.02909,-1.15365 1.42436,-1.61207 0.39525,-0.45843 1.0291,-1.2187 1.42435,-1.69209 0.39524,-0.47339 1.0291,-1.24568 1.42434,-1.71979 0.39525,-0.4741 1.02912,-1.23655 1.42435,-1.69726 0.39523,-0.46071 1.0291,-1.18991 1.42433,-1.62331 0.39523,-0.43341 1.0291,-1.10747 1.42435,-1.50049 0.39526,-0.39302 1.0291,-0.99139 1.42436,-1.33221 0.39525,-0.34081 1.0291,-0.84578 1.42435,-1.12416 0.39525,-0.2784 1.0291,-0.67481 1.42434,-0.88239 0.39525,-0.20758 1.0291,-0.48318 1.42435,-0.61377 0.39525,-0.13058 1.0291,-0.27787 1.42435,-0.32743 0.39525,-0.0496 1.02911,-0.0628 1.42434,-0.0298 0.39525,0.033 1.0291,0.15328 1.42435,0.26773 0.39523,0.11444 1.02909,0.36465 1.42435,0.55711 0.39524,0.19244 1.0291,0.56532 1.42434,0.83003 0.39525,0.26471 1.0291,0.74884 1.42435,1.07788 0.39525,0.32906 1.0291,0.91025 1.42435,1.29373 0.39525,0.3835 1.0291,1.04393 1.42435,1.47019 0.39526,0.42627 1.02909,1.14586 1.42435,1.60213 0.39526,0.45626 1.02909,1.21394 1.42436,1.68647 0.39524,0.47254 1.02911,1.24463 1.42434,1.71933 0.39524,0.4747 1.0291,1.2394 1.42433,1.70205 0.39524,0.46264 1.0291,1.19592 1.42435,1.6324 0.39525,0.43647 1.0291,1.11622 1.42435,1.51345 0.39525,0.39722 1.0291,1.00336 1.42434,1.34951 0.39527,0.34614 1.0291,0.86077 1.42437,1.14537 0.39525,0.28457 1.0291,0.69136 1.42434,0.90573 0.39525,0.21435 1.0291,0.50143 1.42435,0.63928 0.39525,0.13785 1.0291,0.29712 1.42435,0.35425 0.39525,0.0571 1.02911,0.0828 1.42434,0.0575 0.39524,-0.0253 1.0291,-0.13305 1.42434,-0.24005 0.39524,-0.10699 1.02909,-0.34566 1.42436,-0.53116 0.39525,-0.18548 1.0291,-0.54745 1.42435,-0.8058 0.39524,-0.25836 1.02909,-0.7328 1.42434,-1.05627 0.39525,-0.32347 1.0291,-0.8962 1.42435,-1.27512 0.39525,-0.37893 1.0291,-1.03308 1.42434,-1.45593 0.39525,-0.42284 1.0291,-1.13768 1.42435,-1.59174 0.39527,-0.45405 1.02912,-1.20919 1.42437,-1.68083 0.39523,-0.47165 1.02908,-1.24342 1.42433,-1.71849 0.39523,-0.47505 1.0291,-1.24124 1.42435,-1.70549 0.39524,-0.46425 1.0291,-1.20114 1.42434,-1.64061 0.39525,-0.43947 1.0291,-1.12542 1.42435,-1.52685 0.39525,-0.40143 1.0291,-1.01508 1.42434,-1.3664 0.39527,-0.35132 1.0291,-0.87506 1.42435,-1.16569 0.39527,-0.29064 1.0291,-0.70789 1.42436,-0.92908 0.39525,-0.2212 1.0291,-0.52016 1.42435,-0.66525 0.39525,-0.14511 1.02911,-0.31595 1.42435,-0.38063 0.39523,-0.0647 1.0291,-0.10329 1.42433,-0.0857 0.39523,0.0176 1.0291,0.11325 1.42435,0.21281 0.39524,0.0995 1.02909,0.32636 1.42434,0.50476 0.39527,0.17841 1.0291,0.52924 1.42437,0.78118 0.39524,0.25192 1.02909,0.71673 1.42434,1.03462 0.39525,0.31789 1.0291,0.88228 1.42435,1.25653 0.39525,0.37424 1.0291,1.02152 1.42435,1.44078 0.39524,0.41925 1.02909,1.12915 1.42434,1.58092 0.39525,0.45178 1.42435,1.67523 1.42435,1.67523"
       style="fill:none;stroke:#becdc4;stroke-width:0.29887;stroke-linecap:butt;stroke-linejoin:miter;stroke-miterlimit:10;stroke-dasharray:none;stroke-opacity:1"
       transform="matrix(1.3333333,0,0,-1.3333333,0,377.952)"
       clip-path="url(#clipPath12)" />
    <path
       id="path13"
       d="m 0,149.65381 c 0,0 1.02908,1.77777 1.42433,2.36339 0.39523,0.5856 1.0291,1.42167 1.42435,1.85731 0.39525,0.43562 1.0291,1.01283 1.42435,1.28247 0.39524,0.26964 1.02909,0.56731 1.42434,0.66092 0.39525,0.0936 1.0291,0.0998 1.42435,0.0138 0.39526,-0.0859 1.0291,-0.37111 1.42435,-0.63322 0.39526,-0.26213 1.02909,-0.82738 1.42436,-1.25611 0.39525,-0.42872 1.02911,-1.25447 1.42435,-1.83395 0.39523,-0.57948 1.02909,-1.63382 1.42432,-2.34264 0.39524,-0.70882 1.0291,-1.95402 1.42435,-2.76606 0.39525,-0.81206 1.0291,-2.20153 1.42435,-3.08661 0.39525,-0.88507 1.0291,-2.36719 1.42435,-3.29247 0.39526,-0.92529 1.0291,-2.44491 1.42436,-3.37638 0.39525,-0.93148 1.0291,-2.43372 1.42435,-3.33704 0.39524,-0.90332 1.0291,-2.33191 1.42434,-3.17354 0.39525,-0.84163 1.0291,-2.14359 1.42435,-2.89237 0.39525,-0.74879 1.02911,-1.87606 1.42435,-2.50441 0.39523,-0.62834 1.0291,-1.53965 1.42433,-2.02426 0.39525,-0.48462 1.0291,-1.14554 1.42436,-1.46847 0.39525,-0.32294 1.0291,-0.70966 1.42435,-0.85903 0.39525,-0.14938 1.0291,-0.24733 1.42435,-0.21756 0.39524,0.0298 1.02909,0.2244 1.42434,0.4321 0.39525,0.2077 1.0291,0.68689 1.42435,1.06491 0.39525,0.37804 1.0291,1.12525 1.42435,1.65966 0.39526,0.53441 1.02911,1.52114 1.42436,2.19209 0.39523,0.67094 1.02908,1.86085 1.42433,2.64368 0.39523,0.7828 1.0291,2.13266 1.42435,2.99834 0.39525,0.8657 1.0291,2.32467 1.42434,3.24102 0.39525,0.91634 1.0291,2.43015 1.42435,3.36342 0.39525,0.93326 1.0291,2.44717 1.42435,3.36297 0.39526,0.91581 1.02909,2.37313 1.42434,3.23755 0.39527,0.86444 1.0291,2.21172 1.42437,2.99273 0.39525,0.78101 1.0291,1.9676 1.42434,2.63633 0.39525,0.66872 1.02912,1.65172 1.42435,2.18344 0.39523,0.53173 1.0291,1.27382 1.42433,1.64884 0.39524,0.37501 1.0291,0.84952 1.42435,1.05409 0.39525,0.20457 1.0291,0.39391 1.42435,0.42043 0.39526,0.0265 1.02909,-0.0767 1.42436,-0.22925 0.39525,-0.15256 1.0291,-0.54421 1.42435,-0.87026 0.39525,-0.32605 1.02909,-0.99235 1.42434,-1.47971 0.39525,-0.48736 1.0291,-1.40224 1.42435,-2.03292 0.39525,-0.63069 1.0291,-1.76186 1.42435,-2.51262 0.39524,-0.75076 1.02911,-2.05544 1.42434,-2.89844 0.39525,-0.84302 1.0291,-2.27333 1.42435,-3.17742 0.39523,-0.90412 1.0291,-2.40713 1.42435,-3.33877 0.39525,-0.93165 1.0291,-2.45103 1.42434,-3.37596 0.39525,-0.92491 1.0291,-2.40625 1.42435,-3.29031 0.39525,-0.88405 1.0291,-2.27106 1.42435,-3.08141 0.39525,-0.81036 1.0291,-2.05244 1.42434,-2.75915 0.39527,-0.70671 1.0291,-1.75739 1.42437,-2.33441 0.39525,-0.57702 1.0291,-1.39853 1.42434,-1.82445 0.39524,-0.42591 1.0291,-0.98625 1.42434,-1.24527 0.39523,-0.259 1.02909,-0.53893 1.42434,-0.62157 0.39525,-0.0826 1.0291,-0.0709 1.42435,0.026 0.39525,0.0968 1.0291,0.39947 1.42435,0.67216 0.39526,0.27271 1.0291,0.85478 1.42434,1.29331 0.39526,0.4385 1.0291,1.279 1.42436,1.86724 0.39525,0.58825 1.0291,1.65647 1.42435,2.37247 0.39525,0.71602 1.0291,1.97084 1.42435,2.78816 0.39525,0.81731 1.02911,2.21402 1.42435,3.10259 0.39523,0.88855 1.02909,2.37483 1.42433,3.30156 0.39523,0.92672 1.0291,2.44696 1.42434,3.3777 0.39527,0.93074 1.0291,2.4301 1.42437,3.33053 0.39525,0.90046 1.0291,2.3225 1.42434,3.15926 0.39525,0.83676 1.0291,2.1295 1.42435,2.87161 0.39525,0.74211 1.0291,1.85703 1.42435,2.47715 0.39525,0.62013 1.0291,1.51709 1.42434,1.99227 0.39525,0.47518 1.0291,1.12003 1.42435,1.43258 0.39527,0.31253 1.02912,0.68164 1.42436,0.82008 0.39524,0.13844 1.0291,0.21851 1.42434,0.17777 0.39523,-0.0408 1.02909,-0.25297 1.42434,-0.47146 0.39525,-0.2185 1.0291,-0.71524 1.42435,-1.10341 0.39525,-0.38816 1.02909,-1.15077 1.42435,-1.69424 0.39524,-0.54347 1.02909,-1.54419 1.42434,-2.22282 0.39527,-0.67862 1.0291,-1.87963 1.42437,-2.66832 0.39524,-0.7887 1.02908,-2.14638 1.42434,-3.0161 0.39525,-0.86972 1.02912,-2.33386 1.42435,-3.25225 0.39523,-0.91838 1.0291,-2.43366 1.42433,-3.36686 0.39523,-0.93321 1.0291,-2.44545 1.42435,-3.3591 0.39525,-0.91364 1.0291,-2.36576 1.42434,-3.22588 0.39527,-0.86011 1.0291,-2.19836 1.42435,-2.97325 0.39527,-0.7749 1.0291,-1.95064 1.42437,-2.61168 0.39524,-0.66104 1.02909,-1.63008 1.42434,-2.15274 0.39525,-0.52266 1.0291,-1.24924 1.42435,-1.61423 0.39525,-0.365 1.0291,-0.82269 1.42434,-1.01646 0.39525,-0.19379 1.02912,-0.36479 1.42435,-0.3802 0.39523,-0.0154 1.0291,0.10551 1.42433,0.26904 0.39525,0.16353 1.0291,0.57324 1.42437,0.90962 0.39524,0.33638 1.02909,1.01804 1.42434,1.51476 0.39525,0.49672 1.0291,1.42654 1.42435,2.06537 0.39525,0.63884 1.0291,1.78169 1.42435,2.53898 0.39524,0.75731 1.02909,2.07146 1.42434,2.91922 0.39525,0.84775 1.0291,2.28403 1.42435,3.19083 0.39526,0.9068 1.0291,2.41257 1.42436,3.34482 0.39525,0.93225 1.02912,2.45085 1.42435,3.3742 0.39523,0.92337 1.0291,2.40038 1.42433,3.28083 0.39523,0.88044 1.0291,2.26017 1.42435,3.06495 0.39525,0.80478 1.0291,2.03598 1.42434,2.73537 0.39526,0.6994 1.0291,1.73717 1.42435,2.30543 0.39526,0.56827 1.0291,1.37427 1.42436,1.79027 0.39525,0.41601 1.0291,0.95975 1.42435,1.20807 0.39525,0.24834 1.0291,0.51018 1.42435,0.58177 0.39525,0.0716 1.02911,0.042 1.42435,-0.0658 0.39523,-0.10778 1.0291,-0.42782 1.42433,-0.71108 0.39523,-0.28326 1.02909,-0.8822 1.42434,-1.33048 0.39527,-0.44829 1.0291,-1.30388 1.42436,-1.90058 0.39525,-0.59671 1.02909,-1.67712 1.42435,-2.40016 0.39525,-0.72304 1.0291,-1.98845 1.42435,-2.81105 0.39525,-0.82261 1.0291,-2.22595 1.42435,-3.11775 0.39524,-0.89178 1.02909,-2.38178 1.42434,-3.30977 0.39525,-0.92799 1.0291,-2.44871 1.42435,-3.37857 0.39526,-0.92984 1.02911,-2.42567 1.42435,-3.32318 0.39524,-0.89749 1.0291,-2.31351 1.42434,-3.1454 0.39524,-0.83191 1.0291,-2.11504 1.42435,-2.85043 0.39525,-0.7354 1.0291,-1.83806 1.42435,-2.4499 0.39524,-0.61183 1.0291,-1.4942 1.42434,-1.95983 0.39525,-0.46564 1.0291,-1.09418 1.42435,-1.39623 0.39525,-0.30205 1.0291,-0.65332 1.42435,-0.78073 0.39526,-0.12741 1.0291,-0.18933 1.42436,-0.13754 0.39525,0.0518 1.0291,0.28157 1.42434,0.51082 0.39526,0.22923 1.02912,0.74321 1.42435,1.14146 0.39524,0.39824 1.0291,1.1765 1.42434,1.72887 0.39523,0.55235 1.02909,1.56608 1.42434,2.25221 0.39525,0.68613 1.0291,1.89841 1.42435,2.69298 0.39526,0.79458 1.0291,2.16016 1.42436,3.03383 0.39525,0.87367 1.0291,2.34277 1.42435,3.26306 0.39525,0.9203 1.0291,2.43693 1.42435,3.3699 0.39524,0.93295 1.02909,2.44304 1.42434,3.35433 0.39525,0.9113 1.02912,2.35797 1.42435,3.21376 0.39523,0.8558 1.0291,2.18559 1.42433,2.95425 0.39525,0.76866 1.0291,1.93257 1.42436,2.58569 0.39525,0.65314 1.02908,1.60814 1.42435,2.12162 0.39525,0.51347 1.0291,1.22439 1.42435,1.57919 0.39525,0.3548 1.0291,0.79498 1.42434,0.97796 0.39525,0.18297 1.0291,0.33646 1.42435,0.34084 0.39525,0.004 1.0291,-0.13487 1.42435,-0.30927 0.39526,-0.17439 1.0291,-0.60105 1.42434,-0.94769 0.39527,-0.34663 1.02912,-1.04461 1.42437,-1.55064 0.39523,-0.50603 1.0291,-1.44974 1.42433,-2.09651 0.39523,-0.64676 1.0291,-1.80129 1.42435,-2.56496 0.39525,-0.76367 1.02909,-2.08672 1.42435,-2.93909 0.39524,-0.85237 1.02909,-2.2948 1.42434,-3.20424 0.39525,-0.90943 1.0291,-2.41777 1.42435,-3.35043 0.39526,-0.93268 1.02909,-2.45001 1.42436,-3.37164 0.39525,-0.92162 1.0291,-2.39412 1.42435,-3.27086 0.39524,-0.87673 1.0291,-2.24889 1.42434,-3.04808 0.39525,-0.7992 1.02912,-2.01988 1.42435,-2.71202 0.39523,-0.69213 1.0291,-1.717 1.42433,-2.27644 0.39523,-0.55945 1.0291,-1.34965 1.42435,-1.75568 0.39526,-0.40605 1.0291,-0.93323 1.42436,-1.17089 0.39525,-0.23763 1.0291,-0.48141 1.42435,-0.54196 0.39525,-0.0605 1.0291,-0.0132 1.42434,0.10553 0.39525,0.11876 1.0291,0.4567 1.42435,0.75046 0.39525,0.29376 1.0291,0.90892 1.42435,1.36682 0.39525,0.4579 1.02911,1.3282 1.42434,1.93344 0.39525,0.60524 1.0291,1.6987 1.42435,2.4287 0.39523,0.73001 1.02909,2.00493 1.42435,2.8327 0.39524,0.82776 1.0291,2.23827 1.42434,3.1333 0.39525,0.89504 1.0291,2.38849 1.42435,3.31757 0.39525,0.92906 1.0291,2.44974 1.42435,3.37855 0.39525,0.92884 1.0291,2.42145 1.42435,3.31583 0.39526,0.89438 1.02909,2.30348 1.42435,3.13029 0.39526,0.8268 1.02909,2.1003 1.42436,2.8288 0.39524,0.72849 1.02911,1.81841 1.42434,2.42178 0.39524,0.60336 1.0291,1.47091 1.42433,1.92696 0.39524,0.45604 1.0291,1.06822 1.42435,1.3599 0.39525,0.29165 1.0291,0.62568 1.42435,0.74223 0.39525,0.11653 1.0291,0.16057 1.42434,0.0978 0.39527,-0.0628 1.0291,-0.31069 1.42437,-0.55062 0.39525,-0.23994 1.0291,-0.7706 1.42434,-1.17868 0.39525,-0.40808 1.0291,-1.20134 1.42435,-1.76258 0.39525,-0.56124 1.0291,-1.58887 1.42435,-2.28251 0.39525,-0.69363 1.02911,-1.91636 1.42434,-2.71676 0.39524,-0.8004 1.0291,-2.17441 1.42434,-3.05199 0.39524,-0.87758 1.02909,-2.35103 1.42436,-3.27301 0.39525,-0.922 1.0291,-2.43945 1.42435,-3.37207 0.39524,-0.9326 1.02909,-2.44068 1.42434,-3.34956 0.39525,-0.90891 1.0291,-2.34987 1.42435,-3.20122 0.39525,-0.85137 1.0291,-2.17243 1.42434,-2.93477 0.39525,-0.76236 1.0291,-1.91463 1.42435,-2.55977 0.39527,-0.64514 1.02912,-1.58584 1.42437,-2.09003 0.39523,-0.50416 1.02908,-1.19919 1.42433,-1.54373 0.39523,-0.34453 1.0291,-0.76741 1.42435,-0.93947 0.39524,-0.17204 1.0291,-0.30726 1.42434,-0.30061 0.39525,0.007 1.0291,0.1635 1.42435,0.34863 0.39525,0.18512 1.0291,0.62887 1.42434,0.98575 0.39527,0.3569 1.0291,1.07122 1.42435,1.58655 0.39527,0.51533 1.0291,1.4729 1.42436,2.12765 0.39525,0.65474 1.0291,1.82138 1.42435,2.59134 0.39525,0.76996 1.02911,2.10143 1.42435,2.95813 0.39523,0.85669 1.0291,2.30457 1.42433,3.21635 0.39523,0.91178 1.0291,2.42219 1.42435,3.3552 0.39524,0.93303 1.02909,2.44959 1.42434,3.36948 0.39527,0.91989 1.0291,2.38756 1.42437,3.26045 0.39524,0.87291 1.02909,2.23737 1.42434,3.03081 0.39525,0.79344 1.0291,2.00314 1.42435,2.68779 0.39525,0.68463 1.0291,1.69604 1.42435,2.24661 0.39524,0.55055 1.02909,1.32535 1.42434,1.7215 0.39525,0.39614 1.42435,1.13366 1.42435,1.13366"
       style="fill:none;stroke:#94b2a2;stroke-width:0.3985;stroke-linecap:butt;stroke-linejoin:miter;stroke-miterlimit:10;stroke-dasharray:none;stroke-opacity:1"
       transform="matrix(1.3333333,0,0,-1.3333333,0,377.952)"
       clip-path="url(#clipPath14)" />
    <path
       id="path15"
       d="m 10.511562,-3.9601016 c 0,-0.1757812 0,-0.234375 -0.152343,-0.234375 -0.128907,0 -0.128907,0.046875 -0.152344,0.1992188 -0.128906,2.3671875 -1.828125,3.83203124 -3.65625,3.83203124 -1.7226563,0 -4.4882813,-1.21875004 -4.4882813,-5.62500004 0,-4.4179684 2.8125,-5.6015624 4.453125,-5.6015624 1.921875,0 3.3046875,1.6523437 3.6328123,4.0078124 0.02344,0.1992188 0.02344,0.234375 0.175781,0.234375 0.1875,0 0.1875,-0.035156 0.1875,-0.3398437 v -4.0078127 c 0,-0.304687 -0.01172,-0.328125 -0.117187,-0.328125 -0.07031,0 -0.08203,0.02344 -0.199219,0.222656 l -0.7499998,1.429688 c -0.8203125,-1.054688 -1.8398437,-1.664063 -3.140625,-1.664063 -2.90625,0 -5.53124995,2.5546879 -5.53124995,6.0468754 0,3.515625 2.62499995,6.05859379 5.54296875,6.05859379 2.5898437,0 4.195312,-2.28515629 4.195312,-4.23046879 z m 8.094727,0.3398438 c 0,-2.1679688 -1.582031,-3.8671875 -3.421875,-3.8671875 -1.851562,0 -3.421875,1.6992187 -3.421875,3.8671875 0,2.1328125 1.570313,3.76171874 3.421875,3.76171874 1.839844,0 3.421875,-1.62890624 3.421875,-3.76171874 z m -1.089844,-0.140625 c 0,0.6679687 -0.03516,1.6757812 -0.492187,2.4960937 -0.46875,0.77343754 -1.195313,1.10156254 -1.839844,1.10156254 -0.796875,0 -1.476562,-0.48046875 -1.863281,-1.13671874 -0.421875,-0.7617188 -0.480469,-1.7109375 -0.480469,-2.4609375 0,-0.703125 0.03516,-1.59375 0.480469,-2.3554688 0.339844,-0.5507812 0.996094,-1.1015625 1.863281,-1.1015625 0.761719,0 1.40625,0.4335938 1.816406,1.0195313 0.515625,0.796875 0.515625,1.9101562 0.515625,2.4375 z M 27.254727,8.359375e-4 V -0.44447656 c -1.089844,0 -1.148438,-0.0585938 -1.148438,-0.72656254 v -3.9726562 c 0,-0.8671875 -0.175781,-2.2734375 -2.167969,-2.2734375 -1.335937,0 -2.039062,1.03125 -2.285156,1.7109375 h -0.02344 v -1.7109375 l -1.992188,0.1875 v 0.4453125 c 0.996094,0 1.148438,0.09375 1.148438,0.9140625 v 4.6992187 c 0,0.64453129 -0.07031,0.72656254 -1.148438,0.72656254 V 8.359375e-4 c 0.398438,-0.0351562475 1.148438,-0.0351562475 1.59375,-0.0351562475 0.433594,0 1.195313,0 1.605469,0.0351562475 V -0.44447656 c -1.089844,0 -1.148438,-0.0585938 -1.148438,-0.72656254 v -3.2460937 c 0,-1.5585938 0.9375,-2.7304688 2.132813,-2.7304688 1.253906,0 1.382812,1.125 1.382812,1.9335938 v 4.0429687 c 0,0.64453129 -0.07031,0.72656254 -1.148437,0.72656254 V 8.359375e-4 c 0.410156,-0.0351562475 1.148437,-0.0351562475 1.59375,-0.0351562475 0.433594,0 1.195312,0 1.605469,0.0351562475 z M 33.023281,-10.850727 c 0,-0.644531 -0.609375,-1.03125 -1.289062,-1.03125 -0.960938,0 -2.285157,0.796875 -2.285157,2.5898442 v 2.015625 h -1.347656 v 0.4335937 h 1.347656 v 5.671875 c 0,0.64453129 -0.05859,0.72656254 -1.148437,0.72656254 V 8.359375e-4 C 28.710781,-0.03432031 29.484219,-0.03432031 29.929531,-0.03432031 c 0.492188,0 1.347656,0 1.804688,0.0351562475 V -0.44447656 c -1.21875,0 -1.417969,0 -1.417969,-0.76171874 v -5.6367188 h 1.933594 v -0.4335937 h -1.96875 v -2.0507813 c 0,-1.4062499 0.714843,-2.2851559 1.441406,-2.2851559 0.222656,0 0.46875,0.07031 0.644531,0.1875 -0.140625,0.03516 -0.492187,0.152343 -0.492187,0.574218 0,0.433594 0.339843,0.574219 0.574218,0.574219 0.234375,0 0.574219,-0.140625 0.574219,-0.574219 z m 5.891602,6.5976567 c 0,-1.7226563 -0.914063,-3.234375 -2.835938,-3.234375 -1.804687,0 -3.222656,1.7109375 -3.222656,3.796875 0,2.203125 1.605469,3.83203124 3.398438,3.83203124 1.898437,0 2.648437,-1.80468754 2.648437,-2.15625004 0,-0.1171875 -0.140625,-0.1171875 -0.140625,-0.1171875 -0.117187,0 -0.128906,0.035156 -0.199219,0.234375 -0.375,1.14843754 -1.300781,1.73437504 -2.179687,1.73437504 -0.738281,0 -1.464844,-0.41015625 -1.921875,-1.16015624 -0.527344,-0.8554688 -0.527344,-1.8632813 -0.527344,-2.6601563 h 4.921875 c 0.05859,-0.058594 0.05859,-0.09375 0.05859,-0.2695312 z m -0.914063,0.023437 h -4.042968 c 0.117187,-2.4375 1.417968,-2.9882813 2.097656,-2.9882813 1.148437,0 1.933594,1.0898438 1.945312,2.9882813 z m 6.916992,2.1328125 c 0,-0.8671875 -0.457031,-1.3242188 -0.679687,-1.5234375 -0.503906,-0.5273438 -1.101563,-0.6445313 -1.804688,-0.7851563 -0.9375,-0.1992187 -2.121093,-0.4335937 -2.121093,-1.4648437 0,-0.4453125 0.234375,-1.3710938 1.945312,-1.3710938 1.816406,0 1.921875,1.6875 1.945313,2.2265625 0.02344,0.09375 0.105468,0.1054688 0.164062,0.1054688 0.152344,0 0.152344,-0.046875 0.152344,-0.3398438 v -1.8984375 c 0,-0.3046875 -0.02344,-0.3164062 -0.128906,-0.3164062 -0.05859,0 -0.08203,0.011719 -0.28125,0.2695312 -0.05859,0.070312 -0.210938,0.234375 -0.257813,0.3046875 -0.539062,-0.5742187 -1.300781,-0.5976562 -1.59375,-0.5976562 -1.875,0 -2.554687,0.984375 -2.554687,1.96875 0,1.5234375 1.734375,1.875 2.214843,1.9804687 1.066407,0.2226563 1.441407,0.2929688 1.804688,0.5976563 0.210937,0.1992187 0.585937,0.5742187 0.585937,1.1835937 0,0.703125 -0.410156,1.61718754 -1.957031,1.61718754 -1.476562,0 -2.003906,-1.11328124 -2.308594,-2.60156254 -0.04687,-0.234375 -0.04687,-0.2578125 -0.1875,-0.2578125 -0.128906,0 -0.152343,0.023437 -0.152343,0.3632813 v 2.43749999 c 0,0.3046875 0.02344,0.31640625 0.117187,0.31640625 0.08203,0 0.105469,-0.0117188 0.1875,-0.15234375 l 0.457031,-0.7265625 c 0.339844,0.45703125 0.9375,0.90234375 1.886719,0.90234375 1.675781,0 2.566406,-0.9140625 2.566406,-2.23828124 z m 6.087891,0 c 0,-0.8671875 -0.457031,-1.3242188 -0.679687,-1.5234375 -0.503907,-0.5273438 -1.101563,-0.6445313 -1.804688,-0.7851563 -0.9375,-0.1992187 -2.121094,-0.4335937 -2.121094,-1.4648437 0,-0.4453125 0.234375,-1.3710938 1.945313,-1.3710938 1.816406,0 1.921875,1.6875 1.945312,2.2265625 0.02344,0.09375 0.105469,0.1054688 0.164063,0.1054688 0.152344,0 0.152344,-0.046875 0.152344,-0.3398438 v -1.8984375 c 0,-0.3046875 -0.02344,-0.3164062 -0.128907,-0.3164062 -0.05859,0 -0.08203,0.011719 -0.28125,0.2695312 -0.05859,0.070312 -0.210937,0.234375 -0.257812,0.3046875 -0.539063,-0.5742187 -1.300781,-0.5976562 -1.59375,-0.5976562 -1.875,0 -2.554688,0.984375 -2.554688,1.96875 0,1.5234375 1.734375,1.875 2.214844,1.9804687 1.066406,0.2226563 1.441406,0.2929688 1.804688,0.5976563 0.210937,0.1992187 0.585937,0.5742187 0.585937,1.1835937 0,0.703125 -0.410156,1.61718754 -1.957031,1.61718754 -1.476563,0 -2.003906,-1.11328124 -2.308594,-2.60156254 -0.04687,-0.234375 -0.04687,-0.2578125 -0.1875,-0.2578125 -0.128906,0 -0.152344,0.023437 -0.152344,0.3632813 v 2.43749999 c 0,0.3046875 0.02344,0.31640625 0.117188,0.31640625 0.08203,0 0.105469,-0.0117188 0.1875,-0.15234375 l 0.457031,-0.7265625 c 0.339844,0.45703125 0.9375,0.90234375 1.886719,0.90234375 1.675781,0 2.566406,-0.9140625 2.566406,-2.23828124 z M 55.075039,8.359375e-4 V -0.44447656 c -0.996094,0 -1.03125,-0.09375 -1.03125,-0.70312504 v -6.2695312 l -1.945312,0.1875 v 0.4453125 c 0.949218,0 1.078125,0.09375 1.078125,0.9140625 v 4.6992187 c 0,0.64453129 -0.05859,0.72656254 -1.148438,0.72656254 V 8.359375e-4 C 52.43832,-0.03432031 53.164883,-0.03432031 53.586758,-0.03432031 c 0.410156,0 1.101562,0 1.488281,0.0351562475 z M 54.243008,-10.229633 c 0,-0.398437 -0.316406,-0.691406 -0.667969,-0.691406 -0.410156,0 -0.703125,0.316406 -0.703125,0.691406 0,0.4101564 0.328125,0.6914064 0.679688,0.6914064 0.410156,0 0.691406,-0.3164062 0.691406,-0.6914064 z m 8.742187,6.6093752 c 0,-2.1679688 -1.582031,-3.8671875 -3.421875,-3.8671875 -1.851562,0 -3.421875,1.6992187 -3.421875,3.8671875 0,2.1328125 1.570313,3.76171874 3.421875,3.76171874 1.839844,0 3.421875,-1.62890624 3.421875,-3.76171874 z m -1.089843,-0.140625 c 0,0.6679687 -0.03516,1.6757812 -0.492188,2.4960937 -0.46875,0.77343754 -1.195312,1.10156254 -1.839844,1.10156254 -0.796875,0 -1.476562,-0.48046875 -1.863281,-1.13671874 -0.421875,-0.7617188 -0.480469,-1.7109375 -0.480469,-2.4609375 0,-0.703125 0.03516,-1.59375 0.480469,-2.3554688 0.339844,-0.5507812 0.996094,-1.1015625 1.863281,-1.1015625 0.761719,0 1.40625,0.4335938 1.816407,1.0195313 0.515625,0.796875 0.515625,1.9101562 0.515625,2.4375 z M 71.630703,8.359375e-4 V -0.44447656 c -1.089844,0 -1.148437,-0.0585938 -1.148437,-0.72656254 v -3.9726562 c 0,-0.8671875 -0.175782,-2.2734375 -2.167969,-2.2734375 -1.335938,0 -2.039063,1.03125 -2.285156,1.7109375 h -0.02344 v -1.7109375 l -1.992187,0.1875 v 0.4453125 c 0.996093,0 1.148437,0.09375 1.148437,0.9140625 v 4.6992187 c 0,0.64453129 -0.07031,0.72656254 -1.148437,0.72656254 V 8.359375e-4 c 0.398437,-0.0351562475 1.148437,-0.0351562475 1.59375,-0.0351562475 0.433593,0 1.195312,0 1.605468,0.0351562475 V -0.44447656 c -1.089843,0 -1.148437,-0.0585938 -1.148437,-0.72656254 v -3.2460937 c 0,-1.5585938 0.9375,-2.7304688 2.132812,-2.7304688 1.253907,0 1.382813,1.125 1.382813,1.9335938 v 4.0429687 c 0,0.64453129 -0.07031,0.72656254 -1.148438,0.72656254 V 8.359375e-4 C 68.841639,-0.03432031 69.57992,-0.03432031 70.025232,-0.03432031 c 0.433594,0 1.195313,0 1.605469,0.0351562475 z M 77.739102,-2.0968203 c 0,-0.8671875 -0.457032,-1.3242188 -0.679688,-1.5234375 -0.503906,-0.5273438 -1.101562,-0.6445313 -1.804687,-0.7851563 -0.9375,-0.1992187 -2.121094,-0.4335937 -2.121094,-1.4648437 0,-0.4453125 0.234375,-1.3710938 1.945312,-1.3710938 1.816407,0 1.921875,1.6875 1.945313,2.2265625 0.02344,0.09375 0.105469,0.1054688 0.164062,0.1054688 0.152344,0 0.152344,-0.046875 0.152344,-0.3398438 v -1.8984375 c 0,-0.3046875 -0.02344,-0.3164062 -0.128906,-0.3164062 -0.05859,0 -0.08203,0.011719 -0.28125,0.2695312 -0.05859,0.070312 -0.210938,0.234375 -0.257813,0.3046875 -0.539062,-0.5742187 -1.300781,-0.5976562 -1.59375,-0.5976562 -1.875,0 -2.554687,0.984375 -2.554687,1.96875 0,1.5234375 1.734375,1.875 2.214844,1.9804687 1.066406,0.2226563 1.441406,0.2929688 1.804687,0.5976563 0.210938,0.1992187 0.585938,0.5742187 0.585938,1.1835937 0,0.703125 -0.410157,1.61718754 -1.957032,1.61718754 -1.476562,0 -2.003906,-1.11328124 -2.308593,-2.60156254 -0.04687,-0.234375 -0.04687,-0.2578125 -0.1875,-0.2578125 -0.128907,0 -0.152344,0.023437 -0.152344,0.3632813 v 2.43749999 c 0,0.3046875 0.02344,0.31640625 0.117187,0.31640625 0.08203,0 0.105469,-0.0117188 0.1875,-0.15234375 l 0.457032,-0.7265625 c 0.339843,0.45703125 0.9375,0.90234375 1.886718,0.90234375 1.675782,0 2.566407,-0.9140625 2.566407,-2.23828124 z m 17.068359,-1.5234375 c 0,-2.1679688 -1.582031,-3.8671875 -3.421875,-3.8671875 -1.851563,0 -3.421875,1.6992187 -3.421875,3.8671875 0,2.1328125 1.570312,3.76171874 3.421875,3.76171874 1.839844,0 3.421875,-1.62890624 3.421875,-3.76171874 z m -1.089844,-0.140625 c 0,0.6679687 -0.03516,1.6757812 -0.492187,2.4960937 -0.46875,0.77343754 -1.195313,1.10156254 -1.839844,1.10156254 -0.796875,0 -1.476563,-0.48046875 -1.863281,-1.13671874 -0.421875,-0.7617188 -0.480469,-1.7109375 -0.480469,-2.4609375 0,-0.703125 0.03516,-1.59375 0.480469,-2.3554688 0.339843,-0.5507812 0.996093,-1.1015625 1.863281,-1.1015625 0.761719,0 1.40625,0.4335938 1.816406,1.0195313 0.515625,0.796875 0.515625,1.9101562 0.515625,2.4375 z m 6.852543,-7.0898442 c 0,-0.644531 -0.609379,-1.03125 -1.289066,-1.03125 -0.960938,0 -2.285157,0.796875 -2.285157,2.5898442 v 2.015625 h -1.347656 v 0.4335937 h 1.347656 v 5.671875 c 0,0.64453129 -0.05859,0.72656254 -1.148437,0.72656254 V 8.359375e-4 C 96.257656,-0.03432031 97.031094,-0.03432031 97.476406,-0.03432031 c 0.492188,0 1.347656,0 1.804688,0.0351562475 V -0.44447656 c -1.21875,0 -1.417969,0 -1.417969,-0.76171874 v -5.6367188 h 1.933594 v -0.4335937 h -1.96875 v -2.0507813 c 0,-1.4062499 0.714843,-2.2851559 1.441406,-2.2851559 0.222656,0 0.46875,0.07031 0.644531,0.1875 -0.140625,0.03516 -0.492187,0.152343 -0.492187,0.574218 0,0.433594 0.339843,0.574219 0.574218,0.574219 0.234373,0 0.574223,-0.140625 0.574223,-0.574219 z m 16.29492,9.3398442 v -0.9492188 h -0.30469 v 0.9726563 c 0,1.03124999 -0.45703,1.17187499 -0.67969,1.17187499 -0.6914,0 -0.6914,-0.89062499 -0.6914,-1.62890629 v -2.4375 c 0,-1.125 0,-1.7109375 -0.71485,-2.3789062 -0.62109,-0.5507813 -1.35937,-0.7265625 -1.93359,-0.7265625 -1.33594,0 -2.29688,1.0546875 -2.29688,2.1679687 0,0.6328125 0.50391,0.6679688 0.60938,0.6679688 0.22266,0 0.60937,-0.140625 0.60937,-0.609375 0,-0.4335938 -0.32812,-0.609375 -0.60937,-0.609375 -0.0703,0 -0.15234,0.011719 -0.21094,0.023437 0.36328,-1.0664063 1.27735,-1.3710938 1.86328,-1.3710938 0.85547,0 1.78125,0.75 1.78125,2.1679688 v 0.75 c -0.99609,0.035156 -2.20312,0.1640625 -3.15234,0.6796875 -1.06641,0.5859375 -1.37109,1.4414062 -1.37109,2.0859375 0,1.30078124 1.52343,1.67578124 2.42578,1.67578124 0.92578,0 1.79297,-0.52734375 2.16797,-1.50000004 0.0352,0.75000004 0.5039,1.42968754 1.2539,1.42968754 0.35156,0 1.25391,-0.234375 1.25391,-1.58203074 z m -2.57813,-0.84375 c 0,1.47656249 -1.04297,2.21484374 -1.98047,2.21484374 -0.84375,0 -1.51171,-0.62109375 -1.51171,-1.39453124 0,-0.515625 0.22265,-1.40625 1.20703,-1.9570313 0.80859,-0.4570312 1.74609,-0.515625 2.28515,-0.5507812 z m 0,0"
       style="fill:#12412a;fill-opacity:1;fill-rule:nonzero;stroke:none"
       aria-label="Confessionsofa"
       transform="matrix(1.3333333,0,0,1.3333333,110.95333,162.67467)"
       clip-path="url(#clipPath16)" />
    <path
       id="path17"
       d="m 13.993414,-4.9793516 c 0,-2.34375 -1.535156,-4.5820312 -4.2539062,-5.2031254 l -3.4101562,-0.773437 c -2.4726563,-0.550781 -2.5429688,-2.34375 -2.5429688,-2.695313 0,-1.265625 0.8203125,-2.730468 3.234375,-2.730468 2.4140625,0 4.5820312,1.171875 5.1093752,4.429687 0.07031,0.527344 0.07031,0.550781 0.550781,0.550781 0.515625,0 0.515625,-0.08203 0.515625,-0.65625 v -4.675781 c 0,-0.46875 0,-0.644531 -0.375,-0.644531 -0.164062,0 -0.246094,0.02344 -0.46875,0.269531 l -1.066406,1.21875 c -0.621094,-0.515625 -1.8750002,-1.488281 -4.2890627,-1.488281 -3.5625,0 -5.4492187,2.238281 -5.4492187,4.957031 0,1.664063 0.890625,2.8359377 1.2421875,3.1875002 1.3007812,1.2890625 1.9921875,1.4414062 4.5820312,2.015625 2.4960938,0.5390625 2.7890627,0.5976562 3.3398437,1.1132812 0.316406,0.328125 1.042969,1.0195313 1.042969,2.296875 0,1.0664063 -0.527344,3.03515629 -3.3164064,3.03515629 -2.1914063,0 -5.6484375,-0.74999999 -5.8476563,-4.38281249 -0.023437,-0.4453125 -0.023437,-0.5273438 -0.5273437,-0.5273438 -0.515625,0 -0.515625,0.082031 -0.515625,0.65625 v 4.67578129 c 0,0.48046875 0,0.65625 0.375,0.65625 0.1757812,0 0.1992187,-0.0351563 0.4453125,-0.2578125 0.2695312,-0.26953125 0.4921875,-0.59765625 1.125,-1.21874999 1.4414062,1.14843749 3.4804687,1.47656249 4.9804687,1.47656249 3.8789062,0 5.5195312,-2.64843749 5.5195312,-5.28515629 z M 36.133063,-16.006695 v -1.078125 c -0.574219,0.04687 -2.507813,0.04687 -3.210938,0.04687 -0.691406,0 -2.636719,0 -3.210937,-0.04687 v 1.078125 h 0.574218 c 0.667969,0 0.726563,0 1.324219,0.07031 0.714844,0.09375 0.738281,0.128906 0.738281,0.667969 v 9.4921874 c 0,3.5625 -2.507812,5.00390629 -5.449218,5.00390629 -4.359375,0 -4.453125,-3.33984379 -4.453125,-4.78124999 V -16.006695 h 2.636718 v -1.078125 c -0.726562,0.04687 -3.386718,0.04687 -4.289062,0.04687 -0.890625,0 -3.5625,0 -4.277344,-0.04687 v 1.078125 h 2.636719 v 10.2773434 c 0,3.2929688 2.636719,6.03515629 7.640625,6.03515629 4.617187,0 6.703125,-2.87109379 6.703125,-6.01171879 v -9.5624999 c 0,-0.539063 0.02344,-0.574219 0.667969,-0.667969 0.457031,-0.04687 0.949218,-0.07031 1.394531,-0.07031 z m 18.544921,3.726562 c 0,-2.683594 -2.367187,-4.804687 -6.46875,-4.804687 H 38.049078 v 1.078125 h 2.636719 v 14.9414059 h -2.636719 v 1.06640629 c 0.714844,-0.046875 3.386719,-0.046875 4.277344,-0.046875 0.902344,0 3.5625,0 4.289062,0.046875 V -1.0652891 h -2.636718 v -6.5273437 h 4.230468 c 4.160157,0 6.46875,-2.1210938 6.46875,-4.6875002 z m -3.503906,0 c 0,1.652344 0,3.7382814 -3.867187,3.7382814 h -3.457032 v -7.4648434 h 3.457032 c 3.867187,0 3.867187,2.039062 3.867187,3.726562 z m 22.646485,5.5546877 h -1.042969 c -0.527344,3.7148437 -1.441406,5.6601562 -5.777344,5.6601562 h -3.878906 v -7.2070312 h 1.464844 c 2.390625,0 2.636718,1.03125 2.636718,2.9179687 h 1.042969 v -6.9023434 h -1.042969 c 0,1.875 -0.246093,2.9179684 -2.636718,2.9179684 h -1.464844 v -6.5507814 h 3.878906 c 3.808594,0 4.628906,1.617188 5.003906,4.828125 h 1.042969 l -0.714844,-5.894531 H 57.191656 v 1.066406 h 2.636719 v 14.8242189 h -2.636719 v 1.06640629 h 15.5625 z m 21.600585,4.4296875 c 0,-0.421875 -0.199218,-0.4921875 -0.515625,-0.4921875 -0.480468,0 -0.503906,0.1757812 -0.527343,0.4921875 -0.117188,1.2539062 -0.890625,1.76953124 -1.59375,1.76953124 -1.59375,0 -1.769532,-1.66406254 -1.96875,-3.96093754 -0.140625,-1.3125 -0.316407,-3.1523437 -3.011719,-3.984375 3.363281,-0.890625 4.183594,-2.6835939 4.183594,-4.0312499 0,-2.484375 -2.613282,-4.582031 -7.21875,-4.582031 h -9.1875 v 1.078125 h 2.636718 v 14.9414059 h -2.636718 v 1.06640629 c 0.714843,-0.046875 3.304687,-0.046875 4.207031,-0.046875 0.890625,0 3.515625,0 4.230469,0.046875 V -1.0652891 h -2.636719 v -7.078125 h 2.964844 c 0.996093,0 1.792968,0.3046875 2.34375,0.9492188 0.738281,0.84375 0.738281,1.3945312 0.738281,3.0585937 0,1.6757813 0,2.6953125 1.277344,3.53906254 1.289062,0.8671875 3.328125,0.90234375 3.878906,0.90234375 2.542969,0 2.835937,-2.24999999 2.835937,-2.60156249 z m -6.9375,-10.2070312 c 0,1.371094 -0.03516,3.5390624 -4.183593,3.5390624 h -2.917969 v -7.0429684 h 2.964844 c 4.054687,0 4.136718,2.039062 4.136718,3.503906 z m 24.629882,0.222656 c 0,-2.683594 -2.36719,-4.804687 -6.46875,-4.804687 H 96.484625 v 1.078125 h 2.636719 v 14.9414059 h -2.636719 v 1.06640629 c 0.714844,-0.046875 3.386719,-0.046875 4.277345,-0.046875 0.90234,0 3.5625,0 4.28906,0.046875 V -1.0652891 h -2.63672 v -6.5273437 h 4.23047 c 4.16016,0 6.46875,-2.1210938 6.46875,-4.6875002 z m -3.5039,0 c 0,1.652344 0,3.7382814 -3.86719,3.7382814 h -3.45703 v -7.4648434 h 3.45703 c 3.86719,0 3.86719,2.039062 3.86719,3.726562 z m 24.54199,3.8085939 c 0,-5.2734379 -3.4336,-8.9062499 -8.96485,-8.9062499 -5.55468,0 -8.96484,3.65625 -8.96484,8.9062499 0,5.2617188 3.48047,8.77734379 8.96484,8.77734379 5.47266,0 8.96485,-3.51562499 8.96485,-8.77734379 z m -3.51563,-0.3398437 c 0,2.4609375 -0.26953,4.5234375 -1.51172,6.2460937 -0.63281,0.84375 -1.99218,1.92187504 -3.9375,1.92187504 -1.61718,0 -3.1875,-0.77343754 -4.13672,-2.19140624 -1.19531,-1.8164063 -1.32421,-4.1601563 -1.32421,-5.9765625 0,-1.5234372 0.082,-3.6093752 1.10156,-5.3085942 1.08984,-1.746093 2.88281,-2.367187 4.35937,-2.367187 2.01563,0 3.50391,1.078125 4.23047,2.191406 0.92578,1.441406 1.21875,2.988281 1.21875,5.4843752 z m 19.0752,3.8320312 c 0,-2.34375 -1.53516,-4.5820312 -4.25391,-5.2031254 l -3.41016,-0.773437 c -2.47265,-0.550781 -2.54296,-2.34375 -2.54296,-2.695313 0,-1.265625 0.82031,-2.730468 3.23437,-2.730468 2.41406,0 4.58203,1.171875 5.10938,4.429687 0.0703,0.527344 0.0703,0.550781 0.55078,0.550781 0.51562,0 0.51562,-0.08203 0.51562,-0.65625 v -4.675781 c 0,-0.46875 0,-0.644531 -0.375,-0.644531 -0.16406,0 -0.24609,0.02344 -0.46875,0.269531 l -1.0664,1.21875 c -0.6211,-0.515625 -1.875,-1.488281 -4.28907,-1.488281 -3.5625,0 -5.44922,2.238281 -5.44922,4.957031 0,1.664063 0.89063,2.8359377 1.24219,3.1875002 1.30078,1.2890625 1.99219,1.4414062 4.58203,2.015625 2.4961,0.5390625 2.78907,0.5976562 3.33985,1.1132812 0.3164,0.328125 1.04297,1.0195313 1.04297,2.296875 0,1.0664063 -0.52735,3.03515629 -3.31641,3.03515629 -2.19141,0 -5.64844,-0.74999999 -5.84766,-4.38281249 -0.0234,-0.4453125 -0.0234,-0.5273438 -0.52734,-0.5273438 -0.51563,0 -0.51563,0.082031 -0.51563,0.65625 v 4.67578129 c 0,0.48046875 0,0.65625 0.375,0.65625 0.17579,0 0.19922,-0.0351563 0.44532,-0.2578125 0.26953,-0.26953125 0.49218,-0.59765625 1.125,-1.21874999 1.4414,1.14843749 3.48047,1.47656249 4.98047,1.47656249 3.8789,0 5.51953,-2.64843749 5.51953,-5.28515629 z m 19.15136,-1.7460937 h -1.04296 c -0.52735,3.7148437 -1.44141,5.6601562 -5.77735,5.6601562 h -3.8789 v -7.2070312 h 1.46484 c 2.39062,0 2.63672,1.03125 2.63672,2.9179687 h 1.04297 v -6.9023434 h -1.04297 c 0,1.875 -0.2461,2.9179684 -2.63672,2.9179684 h -1.46484 v -6.5507814 h 3.8789 c 3.8086,0 4.62891,1.617188 5.00391,4.828125 h 1.04297 l -0.71485,-5.894531 h -15.14062 v 1.066406 h 2.63672 v 14.8242189 h -2.63672 v 1.06640629 h 15.5625 z m 20.7129,-1.6640625 c 0,-5.6250002 -3.78516,-8.6953122 -8.47266,-8.6953122 h -10.47656 v 1.078125 h 2.63672 v 14.9414059 h -2.63672 v 1.06640629 h 10.47656 c 4.78125,0 8.47266,-3.05859379 8.47266,-8.39062499 z m -3.38672,-0.023437 c 0,2.90625 -0.375,4.2070312 -1.24219,5.3789062 -0.87891,1.1367188 -2.54297,1.96875 -4.78125,1.96875 h -3.73828 V -16.006695 h 3.73828 c 2.16797,0 3.90234,0.84375 4.82812,2.132812 0.72657,1.019531 1.19532,2.25 1.19532,5.4609382 z m 0,0"
       style="fill:#12412a;fill-opacity:1;fill-rule:nonzero;stroke:none"
       aria-label="SUPERPOSED"
       transform="matrix(1.3333333,0,0,1.3333333,61.541333,194.65867)"
       clip-path="url(#clipPath18)" />
    <path
       id="path19"
       d="M 20.941828,-1.328125e-4 V -1.0665391 H 18.305109 V -16.007945 h 2.636719 v -1.078125 c -0.714844,0.04687 -3.386719,0.04687 -4.277344,0.04687 -0.902343,0 -3.5625,0 -4.289062,-0.04687 v 1.078125 h 2.636719 v 6.5976559 H 6.8793281 v -6.5976559 h 2.6367188 v -1.078125 c -0.7265625,0.04687 -3.3867188,0.04687 -4.2890625,0.04687 -0.890625,0 -3.5625,0 -4.27734377,-0.04687 v 1.078125 H 3.5863594 V -1.0665391 H 0.94964063 V -1.328125e-4 C 1.6644844,-0.04700781 4.3363594,-0.04700781 5.2269844,-0.04700781 c 0.9023437,0 3.5625,0 4.2890625,0.0468749975 V -1.0665391 H 6.8793281 v -7.2773437 h 8.1328129 v 7.2773437 H 12.375422 V -1.328125e-4 C 13.101984,-0.04700781 15.762141,-0.04700781 16.664484,-0.04700781 c 0.890625,0 3.5625,0 4.277344,0.0468749975 z M 39.48675,-6.7266953 h -1.042969 c -0.527344,3.7148437 -1.441406,5.6601562 -5.777344,5.6601562 h -3.878906 v -7.2070312 h 1.464844 c 2.390625,0 2.636719,1.03125 2.636719,2.9179687 h 1.042968 v -6.9023434 h -1.042968 c 0,1.875 -0.246094,2.9179684 -2.636719,2.9179684 h -1.464844 v -6.5507814 h 3.878906 c 3.808594,0 4.628907,1.617188 5.003907,4.828125 h 1.042968 l -0.714843,-5.894531 H 22.857844 v 1.066406 h 2.636718 v 14.8242189 h -2.636718 v 1.0664062875 h 15.5625 z m 21.600586,4.4296875 c 0,-0.421875 -0.199219,-0.4921875 -0.515625,-0.4921875 -0.480469,0 -0.503906,0.1757812 -0.527344,0.4921875 -0.117187,1.2539062 -0.890625,1.76953124 -1.59375,1.76953124 -1.59375,0 -1.769531,-1.66406254 -1.96875,-3.96093754 -0.140625,-1.3125 -0.316406,-3.1523437 -3.011719,-3.984375 3.363282,-0.890625 4.183594,-2.6835939 4.183594,-4.0312499 0,-2.484375 -2.613281,-4.582031 -7.21875,-4.582031 h -9.1875 v 1.078125 h 2.636719 V -1.0665391 H 41.247492 V -1.328125e-4 C 41.962336,-0.04700781 44.55218,-0.04700781 45.454523,-0.04700781 c 0.890625,0 3.515625,0 4.230469,0.0468749975 V -1.0665391 h -2.636719 v -7.078125 h 2.964844 c 0.996094,0 1.792969,0.3046875 2.34375,0.9492188 0.738281,0.84375 0.738281,1.3945312 0.738281,3.0585937 0,1.6757813 0,2.6953125 1.277344,3.53906254 1.289063,0.8671875 3.328125,0.90234375 3.878906,0.90234375 2.542969,0 2.835938,-2.24999999 2.835938,-2.60156249 z m -6.9375,-10.2070312 c 0,1.371094 -0.03516,3.5390624 -4.183594,3.5390624 h -2.917969 v -7.0429684 h 2.964844 c 4.054688,0 4.136719,2.039062 4.136719,3.503906 z m 24.629883,5.7773437 H 77.73675 c -0.527344,3.7148437 -1.441406,5.6601562 -5.777344,5.6601562 H 68.0805 v -7.2070312 h 1.464844 c 2.390625,0 2.636718,1.03125 2.636718,2.9179687 h 1.042969 v -6.9023434 h -1.042969 c 0,1.875 -0.246093,2.9179684 -2.636718,2.9179684 H 68.0805 v -6.5507814 h 3.878906 c 3.808594,0 4.628906,1.617188 5.003906,4.828125 h 1.042969 l -0.714844,-5.894531 H 62.150812 v 1.066406 h 2.636719 v 14.8242189 h -2.636719 v 1.0664062875 h 15.5625 z m 19.245117,-4.2304687 -0.503906,-5.90625 H 81.11468 l -0.503907,5.90625 h 1.042969 c 0.234375,-2.71875 0.433594,-4.828125 4.019531,-4.828125 h 2.015625 V -1.0665391 H 83.92718 V -1.328125e-4 L 89.329523,-0.04700781 94.731867,-1.328125e-4 V -1.0665391 H 90.970148 V -15.785289 h 1.992188 c 3.585937,0 3.785156,2.085937 4.007812,4.828125 z M 108.71234,-1.328125e-4 V -1.0665391 h -2.78907 V -16.007945 h 2.78907 v -1.078125 c -0.89063,0.04687 -3.38672,0.04687 -4.42969,0.04687 -1.04297,0 -3.53906,0 -4.429689,-0.04687 v 1.078125 h 2.789059 V -1.0665391 H 99.852961 V -1.328125e-4 C 100.74359,-0.04700781 103.23968,-0.04700781 104.28265,-0.04700781 c 1.04297,0 3.53906,0 4.42969,0.0468749975 z M 128.17132,-5.6837266 c 0,-0.421875 -0.15234,-0.4453125 -0.52734,-0.4453125 -0.2461,0 -0.49219,0 -0.52735,0.28125 -0.22265,3.7851563 -3.43359,5.07421879 -5.67187,5.07421879 -1.61719,0 -3.8086,-0.44531249 -5.20313,-2.01562499 -0.8789,-0.9492188 -1.67578,-2.3203125 -1.67578,-5.7539063 0,-2.4375004 0.375,-4.2539064 1.54688,-5.6484374 1.59375,-1.875 4.08984,-2.121094 5.28515,-2.121094 1.86328,0 4.875,1.042969 5.625,5.425781 0.0469,0.222657 0.26953,0.222657 0.57422,0.222657 0.57422,0 0.57422,-0.04687 0.57422,-0.644532 v -5.425781 c 0,-0.574219 0,-0.644531 -0.55078,-0.644531 l -1.86328,1.792969 c -1.39453,-1.195313 -3.07031,-1.792969 -4.91016,-1.792969 -5.95312,0 -9.78515,3.609375 -9.78515,8.8359374 0,5.1328125 3.70312,8.84765629 9.80859,8.84765629 4.42969,0 7.30078,-3.04687499 7.30078,-5.98828129 z m 0,0"
       style="fill:#12412a;fill-opacity:1;fill-rule:nonzero;stroke:none"
       aria-label="HERETIC"
       transform="matrix(1.3333333,0,0,1.3333333,102.476,226.78533)"
       clip-path="url(#clipPath20)" />
  </g>
</svg>
