<svg xmlns="http://www.w3.org/2000/svg" xmlns:xlink="http://www.w3.org/1999/xlink" xmlns:inkscape="http://www.inkscape.org/namespaces/inkscape" version="1.1" width="283.464" height="283.464" viewBox="0 0 283.464 283.464">
<defs>
<clipPath id="clip_1">
<path transform="matrix(1,0,0,-1,0,283.464)" d="M0 0V283.4681H283.4681V0ZM283.4681 283.4681"/>
</clipPath>
</defs>
<g clip-path="url(#clip_1)">
<path transform="matrix(1,0,0,-1,0,283.464)" d="M0 0V283.4681H283.4681V0ZM283.4681 283.4681" fill="#f4f2ea"/>
<path transform="matrix(1,0,0,-1,0,283.464)" stroke-width=".3985" stroke-linecap="butt" stroke-miterlimit="10" stroke-linejoin="miter" fill="none" stroke="#becdc4" d="M0 146.83626C0 146.83626 1.02908 147.92299 1.42433 148.33025 1.81956 148.73749 2.45343 149.38617 2.84868 149.77146 3.24393 150.15673 3.87778 150.75762 4.27303 151.10713 4.66827 151.45664 5.30212 151.9893 5.69737 152.29056 6.09262 152.59181 6.72647 153.03626 7.12172 153.27848 7.51698 153.52068 8.15082 153.86176 8.54607 154.03627 8.94133 154.21079 9.57516 154.43578 9.97043 154.5363 10.36568 154.63681 10.99954 154.73786 11.39478 154.76079 11.79001 154.7837 12.42387 154.75698 12.8191 154.70153 13.21434 154.64609 13.8482 154.49295 14.24345 154.36112 14.6387 154.22927 15.27255 153.95473 15.6678 153.75124 16.06305 153.54775 16.6969 153.1622 17.09215 152.89438 17.48741 152.62654 18.12125 152.14351 18.51651 151.82082 18.91176 151.49813 19.54561 150.93459 19.94086 150.56862 20.3361 150.20267 20.96996 149.57936 21.3652 149.18321 21.76045 148.78707 22.3943 148.12555 22.78955 147.71344 23.1848 147.30133 23.81866 146.62628 24.2139 146.21297 24.60913 145.79965 25.243 145.13442 25.63823 144.73455 26.03348 144.33467 26.66733 143.70305 27.06259 143.33097 27.45784 142.95888 28.09169 142.38372 28.48694 142.05281 28.88219 141.72191 29.51604 141.22388 29.91129 140.94596 30.30653 140.66803 30.94038 140.26476 31.33563 140.04975 31.73088 139.83472 32.36473 139.54055 32.75998 139.39617 33.15523 139.25177 33.78908 139.07764 34.18433 139.00905 34.57959 138.94045 35.21344 138.89212 35.60869 138.90178 36.00392 138.91143 36.63777 138.99114 37.03302 139.07868 37.42825 139.16623 38.06212 139.37058 38.45737 139.53284 38.85262 139.69512 39.48647 140.01705 39.88171 140.24826 40.27696 140.47948 40.91081 140.90747 41.30606 141.19942 41.70131 141.49138 42.33516 142.01036 42.73041 142.35257 43.12567 142.69477 43.7595 143.28556 44.15475 143.66574 44.55002 144.04593 45.18385 144.68816 45.57912 145.0927 45.97437 145.49724 46.60822 146.16709 47.00346 146.58148 47.39871 146.99587 48.03258 147.66983 48.42781 148.07936 48.82304 148.48889 49.45691 149.14311 49.85214 149.53313 50.24738 149.92316 50.88124 150.53397 51.27649 150.89044 51.67174 151.2469 52.30559 151.7922 52.70084 152.1024 53.0961 152.4126 53.72993 152.87334 54.1252 153.12622 54.52045 153.3791 55.1543 153.7386 55.54955 153.92511 55.9448 154.11164 56.57864 154.35713 56.97389 154.47055 57.36914 154.58397 58.00299 154.70644 58.39824 154.74262 58.79349 154.7788 59.42734 154.77362 59.82259 154.73137 60.21783 154.68912 60.8517 154.55718 61.24693 154.43811 61.64218 154.31905 62.27603 154.06496 62.67128 153.87322 63.06651 153.68148 63.70038 153.31372 64.09563 153.05615 64.49088 152.79859 65.12473 152.33094 65.51997 152.01677 65.91522 151.7026 66.54907 151.15135 66.94432 150.79181 67.33957 150.43227 67.97342 149.81742 68.36867 149.42542 68.76392 149.03342 69.39777 148.37689 69.79301 147.96648 70.18828 147.55605 70.82211 146.8815 71.21738 146.4673 71.61263 146.05309 72.24648 145.38426 72.64172 144.9811 73.03696 144.57793 73.67082 143.93923 74.06606 143.56151 74.46129 143.18378 75.09515 142.59749 75.4904 142.25872 75.88565 141.91994 76.5195 141.40753 76.91475 141.11985 77.31 140.83214 77.94385 140.41143 78.3391 140.18512 78.73436 139.9588 79.3682 139.64548 79.76344 139.48873 80.1587 139.33197 80.79254 139.137 81.1878 139.05533 81.58305 138.97367 82.2169 138.90369 82.61215 138.90004 83.0074 138.8964 83.64125 138.95447 84.0365 139.02895 84.43175 139.10341 85.06561 139.28691 85.46085 139.43683 85.85608 139.58673 86.48994 139.88936 86.88518 140.10942 87.28041 140.32949 87.91428 140.74057 88.30952 141.02294 88.70479 141.3053 89.33862 141.81002 89.73389 142.14452 90.12914 142.47902 90.76299 143.05927 91.15823 143.43392 91.55348 143.80857 92.18733 144.4435 92.58258 144.84485 92.97783 145.24622 93.61168 145.91301 94.00693 146.32672 94.40218 146.74045 95.03603 147.41539 95.43127 147.82677 95.82652 148.23815 96.46037 148.89743 96.85562 149.29177 97.25089 149.68611 97.88474 150.30585 98.27998 150.66898 98.67522 151.0321 99.30908 151.59015 99.70432 151.90906 100.09955 152.22797 100.73341 152.70421 101.12866 152.96749 101.52391 153.23075 102.15776 153.60832 102.55301 153.8066 102.94826 154.00489 103.5821 154.27039 103.97736 154.39659 104.3726 154.5228 105.00645 154.66674 105.4017 154.71623 105.79697 154.76573 106.4308 154.78234 106.82607 154.75344 107.22131 154.72452 107.85515 154.61403 108.25041 154.50775 108.64566 154.40148 109.27953 154.16725 109.67476 153.9874 110.06999 153.80754 110.70386 153.45844 111.09909 153.21143 111.49432 152.96443 112.12819 152.51242 112.52344 152.20708 112.91869 151.90174 113.55254 151.36338 113.94778 151.01067 114.34305 150.65798 114.97688 150.05249 115.37213 149.66506 115.7674 149.27762 116.40123 148.62654 116.7965 148.21822 117.19174 147.80989 117.82559 147.13665 118.22084 146.72208 118.61609 146.3075 119.24994 145.63628 119.64519 145.23024 120.04044 144.82419 120.67429 144.17856 121.06953 143.7955 121.46478 143.41245 122.09865 142.81562 122.49388 142.46935 122.88911 142.12308 123.52298 141.5969 123.91821 141.29978 124.31346 141.00264 124.94731 140.5652 125.34258 140.32787 125.73782 140.09052 126.37167 139.75812 126.76692 139.58907 127.16217 139.42003 127.79602 139.20409 128.19127 139.10939 128.58652 139.0147 129.22037 138.92351 129.61562 138.90654 130.01087 138.88956 130.64472 138.92572 131.03997 138.98699 131.43521 139.04825 132.06906 139.21073 132.46431 139.34815 132.85958 139.48558 133.49341 139.76883 133.88867 139.9775 134.28392 140.18616 134.91779 140.57964 135.31302 140.85208 135.70825 141.12453 136.34212 141.61475 136.73735 141.94121 137.13259 142.26767 137.76645 142.83637 138.1617 143.2051 138.55695 143.57382 139.1908 144.20085 139.58605 144.59874 139.9813 144.99662 140.61515 145.66013 141.01039 146.07283 141.40566 146.48552 142.03949 147.16048 142.43476 147.5733 142.83 147.98613 143.46385 148.65 143.8591 149.04825 144.25435 149.44649 144.8882 150.07425 145.28345 150.44362 145.6787 150.813 146.31256 151.38321 146.7078 151.71053 147.10303 152.03784 147.7369 152.52925 148.13213 152.80268 148.52736 153.0761 149.16123 153.47132 149.55648 153.68117 149.95174 153.89104 150.58557 154.17646 150.98084 154.31526 151.37609 154.45407 152.00992 154.61891 152.40518 154.68163 152.80043 154.74434 153.43428 154.78287 153.82953 154.76728 154.22478 154.75168 154.85863 154.66254 155.25388 154.56917 155.64913 154.4758 156.28298 154.26203 156.67823 154.09424 157.07347 153.92646 157.70732 153.596 158.10257 153.35979 158.49784 153.12358 159.13169 152.68793 159.52692 152.39177 159.92217 152.0956 160.55602 151.57071 160.95127 151.22522 161.3465 150.87972 161.98036 150.28412 162.37561 149.90166 162.77086 149.51918 163.40471 148.87445 163.79996 148.46866 164.1952 148.06285 164.82906 147.3914 165.2243 146.97682 165.61956 146.56226 166.2534 145.88924 166.64865 145.48069 167.0439 145.07212 167.67775 144.42009 168.073 144.0321 168.46826 143.64412 169.1021 143.03774 169.49736 142.68431 169.89261 142.3309 170.52646 141.79114 170.9217 141.4849 171.31696 141.17865 171.95082 140.72518 172.34606 140.47708 172.74129 140.22899 173.37516 139.8779 173.77039 139.69678 174.16562 139.51566 174.79949 139.27933 175.19474 139.17168 175.58998 139.06401 176.22383 138.95111 176.61908 138.9208 177.01435 138.89052 177.64818 138.90512 178.04344 138.95325 178.43869 139.00138 179.07254 139.14289 179.46779 139.2677 179.86304 139.39253 180.49689 139.65586 180.89214 139.85294 181.28739 140.05002 181.92124 140.42598 182.31649 140.68816 182.71173 140.95035 183.3456 141.42475 183.74083 141.74269 184.13607 142.06064 184.76993 142.61727 185.16516 142.97974 185.56041 143.34221 186.19426 143.96123 186.58953 144.35521 186.98477 144.7492 187.6186 145.40814 188.01387 145.81937 188.40912 146.23058 189.04297 146.90512 189.43822 147.31896 189.83347 147.7328 190.46732 148.40035 190.86257 148.80214 191.25782 149.20394 191.89167 149.83954 192.28691 150.2148 192.68216 150.59006 193.31601 151.17151 193.71126 151.5068 194.10652 151.8421 194.74036 152.34809 195.1356 152.6314 195.53087 152.91472 196.16472 153.3276 196.55997 153.54882 196.9552 153.77 197.58907 154.07451 197.9843 154.22574 198.37953 154.37697 199.0134 154.56296 199.40865 154.63881 199.8039 154.71465 200.43775 154.77472 200.833 154.77246 201.22824 154.77019 201.86209 154.70267 202.25734 154.62238 202.65259 154.54207 203.28644 154.34922 203.68169 154.19373 204.07695 154.03824 204.71079 153.72678 205.10605 153.50167 205.5013 153.27655 206.13515 152.85796 206.5304 152.57128 206.92565 152.28459 207.5595 151.77335 207.95475 151.43543 208.34999 151.0975 208.98386 150.51284 209.37909 150.13565 209.77433 149.75849 210.40819 149.11986 210.80342 148.71694 211.19866 148.31401 211.83252 147.64568 212.22777 147.2316 212.62303 146.8175 213.25687 146.14302 213.65213 145.73242 214.04738 145.32181 214.68123 144.66458 215.07648 144.27217 215.47173 143.87975 216.10558 143.26424 216.50083 142.90406 216.89608 142.54386 217.52993 141.9912 217.92517 141.67607 218.32042 141.36096 218.95427 140.89145 219.34952 140.6328 219.74477 140.37415 220.37863 140.00485 220.77387 139.81185 221.16912 139.61884 221.80297 139.36226 222.19821 139.24176 222.59345 139.12125 223.2273 138.98686 223.62256 138.9433 224.0178 138.89972 224.65166 138.8928 225.0469 138.92772 225.44216 138.96265 226.076 139.08293 226.47126 139.19504 226.8665 139.30715 227.50035 139.55052 227.8956 139.73572 228.29085 139.9209 228.9247 140.2781 229.31995 140.52985 229.71521 140.78159 230.34905 141.2409 230.7443 141.5502 231.13956 141.8595 231.77339 142.4034 232.16866 142.75916 232.5639 143.11492 233.19777 143.7247 233.593 144.11429 233.98824 144.50389 234.6221 145.15792 235.01734 145.56719 235.41257 145.97647 236.04644 146.64975 236.44168 147.06421 236.83693 147.47866 237.47078 148.14939 237.86603 148.55429 238.26128 148.9592 238.89513 149.60187 239.29038 149.98253 239.68564 150.36319 240.31948 150.95491 240.71474 151.29788 241.10999 151.64086 241.74384 152.16152 242.13909 152.4545 242.53433 152.74747 243.16819 153.17717 243.56343 153.40953 243.95868 153.64189 244.59253 153.96575 244.98778 154.12928 245.38303 154.2928 246.01689 154.49933 246.41213 154.5882 246.80736 154.67707 247.44123 154.75882 247.83646 154.76987 248.2317 154.7809 248.86556 154.73499 249.26082 154.66779 249.65607 154.60057 250.28992 154.42848 250.68517 154.28542 251.08042 154.14235 251.71427 153.85044 252.10951 153.63661 252.50476 153.42279 253.13861 153.02118 253.53386 152.7443 253.92911 152.46739 254.56296 151.97089 254.9582 151.64089 255.35346 151.31089 255.9873 150.73717 256.38255 150.36576 256.77784 149.99434 257.41169 149.36348 257.80693 148.9639 258.20216 148.56433 258.836 147.89911 259.23127 147.48592 259.62648 147.07274 260.26036 146.39812 260.6556 145.98589 261.05085 145.57366 261.6847 144.91144 262.07994 144.51482 262.4752 144.1182 263.10905 143.49385 263.5043 143.12725 263.89955 142.76064 264.5334 142.19597 264.92863 141.87244 265.3239 141.5489 265.95774 141.06433 266.35298 140.79543 266.74827 140.52652 267.38209 140.139 267.77735 139.93425 268.17259 139.72949 268.80644 139.45278 269.2017 139.3196 269.59696 139.18643 270.2308 139.0312 270.62605 138.97444 271.02128 138.91768 271.65516 138.88889 272.05039 138.91043 272.4456 138.93196 273.07948 139.03054 273.47474 139.12973 273.86997 139.22893 274.5038 139.45215 274.89906 139.62541 275.29435 139.79866 275.92817 140.13739 276.32344 140.37847 276.71867 140.61954 277.3525 141.06262 277.74778 141.36292 278.143 141.66321 278.77687 142.19414 279.17213 142.54288 279.56739 142.89162 280.20124 143.49166 280.59648 143.87639 280.9917 144.26114 281.62556 144.90889 282.0208 145.31589 282.41606 145.72289 283.44517 146.80986 283.44517 146.80986"/>
<path transform="matrix(1,0,0,-1,0,283.464)" stroke-width=".49814" stroke-linecap="butt" stroke-miterlimit="10" stroke-linejoin="miter" fill="none" stroke="#94b2a2" d="M0 149.53572C0 149.53572 1.02908 151.00272 1.42433 151.52452 1.81956 152.04634 2.45343 152.84272 2.84868 153.29663 3.24393 153.75057 3.87778 154.42429 4.27303 154.79625 4.66827 155.16822 5.30212 155.69905 5.69737 155.97751 6.09262 156.25597 6.72647 156.6271 7.12172 156.80324 7.51698 156.97936 8.15082 157.17873 8.54607 157.24701 8.94133 157.31529 9.57516 157.33692 9.97043 157.29546 10.36568 157.254 10.99954 157.0982 11.39478 156.94812 11.79001 156.79804 12.42387 156.46784 12.8191 156.21369 13.21434 155.95954 13.8482 155.46639 14.24345 155.11634 14.6387 154.76627 15.27255 154.12584 15.6678 153.69069 16.06305 153.25553 16.6969 152.48664 17.09215 151.98 17.48741 151.47336 18.12125 150.60152 18.51651 150.0392 18.91176 149.47689 19.54561 148.52773 19.94086 147.92711 20.3361 147.32649 20.96996 146.33029 21.3652 145.71036 21.76045 145.09043 22.3943 144.07906 22.78955 143.459 23.1848 142.83895 23.81866 141.84235 24.2139 141.24138 24.60913 140.64041 25.243 139.6906 25.63823 139.12757 26.03348 138.56452 26.66733 137.69083 27.06259 137.1833 27.45784 136.67577 28.09169 135.90583 28.48694 135.46958 28.88219 135.03334 29.51604 134.39057 29.91129 134.03919 30.30653 133.6878 30.94038 133.19261 31.33563 132.93709 31.73088 132.68155 32.36473 132.34908 32.75998 132.19744 33.15523 132.04579 33.78908 131.88715 34.18433 131.84406 34.57959 131.80098 35.21344 131.82003 35.60869 131.88687 36.00392 131.9537 36.63777 132.15116 37.03302 132.3259 37.42825 132.50066 38.06212 132.86948 38.45737 133.14643 38.85262 133.42339 39.48647 133.95136 39.88171 134.32205 40.27696 134.69277 40.91081 135.3653 41.30606 135.8182 41.70131 136.27112 42.33516 137.06546 42.73041 137.58643 43.12567 138.10739 43.7595 139.00026 44.15475 139.57308 44.55002 140.1459 45.18385 141.10828 45.57912 141.71501 45.97437 142.32173 46.60822 143.32437 47.00346 143.94603 47.39871 144.5677 48.03258 145.57833 48.42781 146.19567 48.82304 146.81302 49.45691 147.80171 49.85214 148.39556 50.24738 148.98938 50.88124 149.92386 51.27649 150.47562 51.67174 151.02738 52.30559 151.87984 52.70084 152.37232 53.0961 152.86478 53.72993 153.60723 54.1252 154.02504 54.52045 154.44286 55.1543 155.05352 55.54955 155.38364 55.9448 155.71376 56.57864 156.17237 56.97389 156.40442 57.36914 156.63648 58.00299 156.9294 58.39824 157.05626 58.79349 157.1831 59.42734 157.30112 59.82259 157.3188 60.21783 157.3365 60.8517 157.27579 61.24693 157.18386 61.64218 157.09194 62.27603 156.85498 62.67128 156.65618 63.06651 156.45735 63.70038 156.05039 64.09563 155.75086 64.49088 155.45134 65.12473 154.8881 65.51997 154.49736 65.91522 154.10663 66.54907 153.40451 66.94432 152.9346 67.33957 152.46469 67.97342 151.64507 68.36867 151.1106 68.76392 150.57613 69.39777 149.66474 69.79301 149.08242 70.18828 148.5001 70.82211 147.52558 71.21738 146.91368 71.61263 146.30178 72.24648 145.29467 72.64172 144.67227 73.03696 144.04987 73.67082 143.04146 74.06606 142.42783 74.46129 141.81421 75.09515 140.8353 75.4904 140.24958 75.88565 139.66384 76.5195 138.74584 76.91475 138.20626 77.31 137.66667 77.94385 136.83712 78.3391 136.36061 78.73436 135.88411 79.3682 135.17052 79.76344 134.7719 80.1587 134.37329 80.79254 133.79604 81.1878 133.4877 81.58305 133.17935 82.2169 132.75783 82.61215 132.54953 83.0074 132.34123 83.64125 132.08832 84.0365 131.98635 84.43175 131.88439 85.06561 131.80709 85.46085 131.81465 85.85608 131.8222 86.48994 131.9239 86.88518 132.04087 87.28041 132.15782 87.91428 132.43495 88.30952 132.65766 88.70479 132.88037 89.33862 133.32453 89.73389 133.64601 90.12914 133.9675 90.76299 134.56452 91.15823 134.97476 91.55348 135.385 92.18733 136.11663 92.58258 136.60285 92.97783 137.08907 93.61168 137.93218 94.00693 138.47919 94.40218 139.0262 95.03603 139.95471 95.43127 140.54541 95.82652 141.13613 96.46037 142.12068 96.85562 142.73667 97.25089 143.35263 97.88474 144.36283 98.27998 144.98499 98.67522 145.60715 99.30908 146.6119 99.70432 147.22078 100.09955 147.82968 100.73341 148.79685 101.12866 149.37352 101.52391 149.9502 102.15776 150.8506 102.55301 151.37703 102.94826 151.90348 103.5821 152.708 103.97736 153.16774 104.3726 153.62749 105.00645 154.3119 105.4017 154.6907 105.79697 155.0695 106.4308 155.6119 106.82607 155.89792 107.22131 156.18395 107.85515 156.56783 108.25041 156.75218 108.64566 156.93654 109.27953 157.14981 109.67476 157.22669 110.06999 157.30356 110.70386 157.33927 111.09909 157.30626 111.49432 157.27326 112.12819 157.13065 112.52344 156.98879 112.91869 156.84693 113.55254 156.52997 113.94778 156.28376 114.34305 156.03752 114.97688 155.55699 115.37213 155.21408 115.7674 154.87117 116.40123 154.2412 116.7965 153.81223 117.19174 153.38326 117.82559 152.62389 118.22084 152.1223 118.61609 151.62071 119.24994 150.75574 119.64519 150.19707 120.04044 149.63842 120.67429 148.69408 121.06953 148.0958 121.46478 147.49753 122.09865 146.5042 122.49388 145.8851 122.88911 145.26599 123.52298 144.25452 123.91821 143.63375 124.31346 143.01297 124.94731 142.01407 125.34258 141.41092 125.73782 140.80779 126.37167 139.85338 126.76692 139.28675 127.16217 138.7201 127.79602 137.83942 128.19127 137.3269 128.58652 136.81438 129.22037 136.03514 129.61562 135.59285 130.01087 135.15058 130.64472 134.49744 131.03997 134.1391 131.43521 133.78076 132.06906 133.27344 132.46431 133.01018 132.85958 132.7469 133.49341 132.40143 133.88867 132.24156 134.28392 132.0817 134.91779 131.90944 135.31302 131.8579 135.70825 131.80635 136.34212 131.81174 136.73735 131.87001 137.13259 131.92829 137.76645 132.11154 138.1617 132.2779 138.55695 132.44425 139.1908 132.79973 139.58605 133.069 139.9813 133.33827 140.61515 133.85483 141.01039 134.21869 141.40566 134.58255 142.03949 135.24452 142.43476 135.69149 142.83 136.13846 143.46385 136.92406 143.8591 137.44023 144.25435 137.95639 144.8882 138.84227 145.28345 139.41175 145.6787 139.9812 146.31256 140.93978 146.7078 141.54459 147.10303 142.14939 147.7369 143.1497 148.13213 143.77085 148.52736 144.39199 149.16123 145.40299 149.55648 146.02135 149.95174 146.63973 150.58557 147.63134 150.98084 148.22774 151.37609 148.82415 152.00992 149.76418 152.40518 150.3199 152.80043 150.87563 153.43428 151.73542 153.82953 152.23303 154.22478 152.73065 154.85863 153.48249 155.25388 153.90653 155.64913 154.33057 156.28298 154.95201 156.67823 155.28934 157.07347 155.62668 157.70732 156.09781 158.10257 156.33782 158.49784 156.5778 159.13169 156.8838 159.52692 157.01908 159.92217 157.15435 160.55602 157.28647 160.95127 157.31276 161.3465 157.33904 161.98036 157.29199 162.37561 157.20851 162.77086 157.12505 163.40471 156.90175 163.79996 156.71109 164.1952 156.52043 164.82906 156.12628 165.2243 155.83434 165.61956 155.54238 166.2534 154.99088 166.64865 154.6068 167.0439 154.22274 167.67775 153.53041 168.073 153.0661 168.46826 152.60179 169.1021 151.79029 169.49736 151.26026 169.89261 150.73023 170.52646 149.8251 170.9217 149.24591 171.31696 148.66674 171.95082 147.69609 172.34606 147.08582 172.74129 146.47556 173.37516 145.46965 173.77039 144.84745 174.16562 144.22522 174.79949 143.21628 175.19474 142.60128 175.58998 141.98625 176.22383 141.00347 176.61908 140.4148 177.01435 139.82613 177.64818 138.90222 178.04344 138.3585 178.43869 137.81479 179.07254 136.97797 179.46779 136.496 179.86304 136.01404 180.49689 135.28993 180.89214 134.8848 181.28739 134.47965 181.92124 133.89167 182.31649 133.57593 182.71173 133.2602 183.3456 132.82567 183.74083 132.6092 184.13607 132.39275 184.76993 132.12618 185.16516 132.01576 185.56041 131.90535 186.19426 131.8143 186.58953 131.81334 186.98477 131.81238 187.6186 131.9003 188.01387 132.00885 188.40912 132.1174 189.04297 132.38108 189.43822 132.5958 189.83347 132.81053 190.46732 133.24225 190.86257 133.55648 191.25782 133.8707 191.89167 134.4568 192.28691 134.86058 192.68216 135.26435 193.31601 135.98589 193.71126 136.46659 194.10652 136.94728 194.74036 137.78238 195.1356 138.3252 195.53087 138.86801 196.16472 139.79082 196.55997 140.37889 196.9552 140.96697 197.58907 141.94889 197.9843 142.56365 198.37953 143.1784 199.0134 144.18753 199.40865 144.80982 199.8039 145.43209 200.43775 146.43805 200.833 147.04863 201.22824 147.6592 201.86209 148.6306 202.25734 149.21045 202.65259 149.7903 203.28644 150.69683 203.68169 151.22782 204.07695 151.7588 204.71079 152.57204 205.10605 153.03755 205.5013 153.50307 206.13515 154.19744 206.5304 154.58301 206.92565 154.9686 207.5595 155.5229 207.95475 155.8166 208.34999 156.1103 208.98386 156.50739 209.37909 156.69985 209.77433 156.8923 210.40819 157.11849 210.80342 157.20375 211.19866 157.28903 211.83252 157.33896 212.22777 157.31449 212.62303 157.29001 213.25687 157.1608 213.65213 157.02729 214.04738 156.89376 214.68123 156.5904 215.07648 156.35208 215.47173 156.11377 216.10558 155.64537 216.50083 155.30966 216.89608 154.97397 217.52993 154.35515 217.92517 153.93248 218.32042 153.5098 218.95427 152.75986 219.34952 152.2633 219.74477 151.76677 220.37863 150.90854 220.77387 150.35366 221.16912 149.79877 221.80297 148.85988 222.19821 148.26407 222.59345 147.66826 223.2273 146.67755 223.62256 146.05942 224.0178 145.44127 224.65166 144.43024 225.0469 143.80892 225.44216 143.18759 226.076 142.18659 226.47126 141.58136 226.8665 140.97612 227.50035 140.01696 227.8956 139.44676 228.29085 138.87659 228.9247 137.9891 229.31995 137.4718 229.71521 136.9545 230.34905 136.1666 230.7443 135.71829 231.13956 135.27 231.77339 134.60605 232.16866 134.24074 232.5639 133.87545 233.19777 133.3564 233.593 133.08544 233.98824 132.81449 234.6221 132.45598 235.01734 132.28784 235.41257 132.11969 236.04644 131.93352 236.44168 131.87346 236.83693 131.8134 237.47078 131.80513 237.86603 131.85488 238.26128 131.9046 238.89513 132.07398 239.29038 132.23204 239.68564 132.39012 240.31948 132.73264 240.71474 132.99417 241.10999 133.2557 241.74384 133.76021 242.13909 134.11705 242.53433 134.47388 243.16819 135.125 243.56343 135.56604 243.95868 136.00708 244.59253 136.7844 244.98778 137.29576 245.38303 137.80713 246.01689 138.68584 246.41213 139.2517 246.80736 139.81757 247.44123 140.7714 247.83646 141.37416 248.2317 141.97695 248.86556 142.97553 249.26082 143.59612 249.65607 144.2167 250.28992 145.22777 250.68517 145.84705 251.08042 146.46631 251.71427 147.46073 252.10951 148.05947 252.50476 148.6582 253.13861 149.60297 253.53386 150.16248 253.92911 150.72199 254.56296 151.58924 254.9582 152.09201 255.35346 152.5948 255.9873 153.35599 256.38255 153.78627 256.77784 154.21657 257.41169 154.84885 257.80693 155.19333 258.20216 155.5378 258.836 156.02112 259.23127 156.26903 259.62648 156.51696 260.26036 156.83652 260.6556 156.98014 261.05085 157.12375 261.6847 157.26924 262.07994 157.30411 262.4752 157.33896 263.10905 157.30638 263.5043 157.23145 263.89955 157.1565 264.5334 156.94641 264.92863 156.76386 265.3239 156.5813 265.95774 156.20006 266.35298 155.91567 266.74827 155.63127 267.38209 155.09143 267.77735 154.71407 268.17259 154.33672 268.80644 153.65448 269.2017 153.19586 269.59696 152.73725 270.2308 151.93402 270.62605 151.40862 271.02128 150.8832 271.65516 149.98493 272.05039 149.40898 272.4456 148.83306 273.07948 147.86614 273.47474 147.25754 273.86997 146.64894 274.5038 145.64459 274.89906 145.02263 275.29435 144.40065 275.92817 143.39093 276.32344 142.77472 276.71867 142.15851 277.3525 141.1727 277.74778 140.58132 278.143 139.98995 278.77687 139.06041 279.17213 138.51248 279.56739 137.96456 280.20124 137.11954 280.59648 136.63225 280.9917 136.14495 281.62556 135.41185 282.0208 135.00028 282.41606 134.58872 283.44517 133.6659 283.44517 133.6659"/>
<path transform="matrix(1,0,0,-1,0,283.464)" stroke-width=".49814" stroke-linecap="butt" stroke-miterlimit="10" stroke-linejoin="miter" fill="none" stroke="#69917d" d="M0 155.17905C0 155.17905 1.02908 156.52515 1.42433 156.93299 1.81956 157.34082 2.45343 157.8748 2.84868 158.11856 3.24393 158.36234 3.87778 158.6195 4.27303 158.68994 4.66827 158.76039 5.30212 158.73198 5.69737 158.62638 6.09262 158.52077 6.72647 158.2065 7.12172 157.9287 7.51698 157.6509 8.15082 157.0632 8.54607 156.62415 8.94133 156.1851 9.57516 155.34745 9.97043 154.76424 10.36568 154.18103 10.99954 153.12566 11.39478 152.42075 11.79001 151.71582 12.42387 150.48284 12.8191 149.68364 13.21434 148.88445 13.8482 147.52297 14.24345 146.66065 14.6387 145.79831 15.27255 144.36049 15.6678 143.4685 16.06305 142.57654 16.6969 141.119 17.09215 140.23183 17.48741 139.34465 18.12125 137.92235 18.51651 137.0743 18.91176 136.22626 19.54561 134.89536 19.94086 134.11963 20.3361 133.3439 20.96996 132.15673 21.3652 131.48332 21.76045 130.80992 22.3943 129.8111 22.78955 129.26613 23.1848 128.72115 23.81866 127.95093 24.2139 127.55545 24.60913 127.15997 25.243 126.64621 25.63823 126.41571 26.03348 126.1852 26.66733 125.95059 27.06259 125.89407 27.45784 125.83754 28.09169 125.88889 28.48694 126.00826 28.88219 126.12761 29.51604 126.4635 29.91129 126.75438 30.30653 127.04526 30.94038 127.6536 31.33563 128.10477 31.73088 128.55596 32.36473 129.41249 32.75998 130.0062 33.15523 130.59992 33.78908 131.67055 34.18433 132.38387 34.57959 133.09719 35.21344 134.34203 35.60869 135.14734 36.00392 135.95267 36.63777 137.32222 37.03302 138.1881 37.42825 139.05397 38.06212 140.49514 38.45737 141.388 38.85262 142.28087 39.48647 143.73807 39.88171 144.6234 40.27696 145.50872 40.91081 146.92539 41.30606 147.7688 41.70131 148.61223 42.33516 149.93346 42.73041 150.70229 43.12567 151.4711 43.7595 152.64583 44.15475 153.31005 44.55002 153.97426 45.18385 154.95568 45.57912 155.48961 45.97437 156.02355 46.60822 156.77527 47.00346 157.15834 47.39871 157.5414 48.03258 158.0335 48.42781 158.2505 48.82304 158.46752 49.45691 158.6798 49.85214 158.7224 50.24738 158.76499 50.88124 158.69077 51.27649 158.5576 51.67174 158.42443 52.30559 158.0665 52.70084 157.7626 53.0961 157.4587 53.72993 156.83029 54.1252 156.36722 54.52045 155.90416 55.1543 155.02922 55.54955 154.42513 55.9448 153.82103 56.57864 152.7349 56.97389 152.0133 57.36914 151.2917 58.00299 150.03549 58.39824 149.2243 58.79349 148.4131 59.42734 147.03598 59.82259 146.16669 60.21783 145.29738 60.8517 143.85247 61.24693 142.95899 61.64218 142.0655 62.27603 140.61028 62.67128 139.72707 63.06651 138.84384 63.70038 137.43209 64.09563 136.59333 64.49088 135.75458 65.12473 134.44355 65.51997 133.6819 65.91522 132.92028 66.54907 131.75891 66.94432 131.10399 67.33957 130.44905 67.97342 129.48433 68.36867 128.96161 68.76392 128.43889 69.39777 127.70691 69.79301 127.33656 70.18828 126.96623 70.82211 126.49599 71.21738 126.29243 71.61263 126.08888 72.24648 125.89827 72.64172 125.86942 73.03696 125.84056 73.67082 125.93747 74.06606 126.08438 74.46129 126.2313 75.09515 126.61133 75.4904 126.92825 75.88565 127.2452 76.5195 127.8938 76.91475 128.36862 77.31 128.84343 77.94385 129.73627 78.3391 130.3505 78.73436 130.96474 79.3682 132.06595 79.76344 132.79564 80.1587 133.52535 80.79254 134.79277 81.1878 135.60973 81.58305 136.42668 82.2169 137.81131 82.61215 138.68378 83.0074 139.55626 83.64125 141.00402 84.0365 141.89797 84.43175 142.79192 85.06561 144.24593 85.46085 145.12686 85.85608 146.0078 86.48994 147.4133 86.88518 148.2472 87.28041 149.08109 87.91428 150.38274 88.30952 151.13698 88.70479 151.89124 89.33862 153.03795 89.73389 153.68334 90.12914 154.32872 90.76299 155.27706 91.15823 155.78849 91.55348 156.29991 92.18733 157.0118 92.58258 157.36942 92.97783 157.72702 93.61168 158.17586 94.00693 158.36598 94.40218 158.55609 95.03603 158.7247 95.43127 158.7397 95.82652 158.75472 96.46037 158.63484 96.85562 158.47412 97.25089 158.31342 97.88474 157.91124 98.27998 157.58136 98.67522 157.25148 99.30908 156.58292 99.70432 156.09647 100.09955 155.61 100.73341 154.69953 101.12866 154.07521 101.52391 153.4509 102.15776 152.33444 102.55301 151.59677 102.94826 150.85909 103.5821 149.58087 103.97736 148.75846 104.3726 147.93602 105.00645 146.54463 105.4017 145.66927 105.79697 144.79392 106.4308 143.3437 106.82607 142.44945 107.22131 141.55519 107.85515 140.1025 108.25041 139.22402 108.64566 138.34554 109.27953 136.94663 109.67476 136.11797 110.06999 135.2893 110.70386 133.99823 111.09909 133.25154 111.49432 132.50484 112.12819 131.3721 112.52344 130.73633 112.91869 130.10054 113.55254 129.16918 113.94778 128.66922 114.34305 128.16925 114.97688 127.47768 115.37213 127.13284 115.7674 126.78802 116.40123 126.36041 116.7965 126.18387 117.19174 126.00731 117.82559 125.86147 118.22084 125.86032 118.61609 125.85918 119.24994 126.00136 119.64519 126.17564 120.04044 126.34991 120.67429 126.77362 121.06953 127.11641 121.46478 127.4592 122.09865 128.14818 122.49388 128.64629 122.88911 129.14441 123.52298 130.07238 123.91821 130.70648 124.31346 131.34059 124.94731 132.47107 125.34258 133.21649 125.73782 133.96193 126.37167 135.2512 126.76692 136.07903 127.16217 136.90685 127.79602 138.30487 128.19127 139.18292 128.58652 140.06098 129.22037 141.51323 129.61562 142.40749 130.01087 143.30175 130.64472 144.75229 131.03997 145.62818 131.43521 146.50408 132.06906 147.89707 132.46431 148.72039 132.85958 149.5437 133.49341 150.82329 133.88867 151.56217 134.28392 152.30104 134.91779 153.4199 135.31302 154.04579 135.70825 154.67168 136.34212 155.58466 136.73735 156.07309 137.13259 156.56154 137.76645 157.2341 138.1617 157.56623 138.55695 157.89833 139.1908 158.30396 139.58605 158.46677 139.9813 158.62958 140.61515 158.75241 141.01039 158.7397 141.40566 158.72699 142.03949 158.56291 142.43476 158.37508 142.83 158.18724 143.46385 157.74143 143.8591 157.38585 144.25435 157.03028 144.8882 156.32178 145.28345 155.81227 145.6787 155.30277 146.31256 154.35738 146.7078 153.71361 147.10303 153.06986 147.7369 151.92549 148.13213 151.17246 148.52736 150.4194 149.16123 149.11917 149.55648 148.28612 149.95174 147.45307 150.58557 146.04889 150.98084 145.16838 151.37609 144.28787 152.00992 142.83394 152.40518 141.93993 152.80043 141.04592 153.43428 139.59789 153.82953 138.72487 154.22478 137.85186 154.85863 136.46572 155.25388 135.6478 155.64913 134.82987 156.28298 133.56076 156.67823 132.8298 157.07347 132.09885 157.70732 130.99533 158.10257 130.37949 158.49784 129.76364 159.13169 128.8679 159.52692 128.3911 159.92217 127.91429 160.55602 127.26205 160.95127 126.94296 161.3465 126.62387 161.98036 126.24043 162.37561 126.0913 162.77086 125.94217 163.40471 125.84158 163.79996 125.8681 164.1952 125.8946 164.82906 126.08115 165.2243 126.28247 165.61956 126.48381 166.2534 126.95097 166.64865 127.31927 167.0439 127.68756 167.67775 128.41613 168.073 128.93697 168.46826 129.45783 169.1021 130.4199 169.49736 131.07328 169.89261 131.72664 170.52646 132.88558 170.9217 133.64601 171.31696 134.40645 171.95082 135.71599 172.34606 136.55396 172.74129 137.39192 173.37516 138.80261 173.77039 139.68553 174.16562 140.56845 174.79949 142.02385 175.19474 142.91745 175.58998 143.81105 176.22383 145.25621 176.61908 146.12604 177.01435 146.99585 177.64818 148.37444 178.04344 149.18666 178.43869 149.99889 179.07254 151.25708 179.46779 151.98 179.86304 152.70291 180.49689 153.79137 180.89214 154.39702 181.28739 155.00267 181.92124 155.88013 182.31649 156.34517 182.71173 156.81021 183.3456 157.44263 183.74083 157.74875 184.13607 158.05487 184.76993 158.41622 185.16516 158.55155 185.56041 158.68688 186.19426 158.76456 186.58953 158.72412 186.98477 158.68369 187.6186 158.4748 188.01387 158.26001 188.40912 158.04521 189.04297 157.55698 189.43822 157.17607 189.83347 156.79518 190.46732 156.04683 190.86257 155.5147 191.25782 154.98256 191.89167 154.00342 192.28691 153.34076 192.68216 152.67809 193.31601 151.50624 193.71126 150.73862 194.10652 149.971 194.74036 148.65093 195.1356 147.80817 195.53087 146.9654 196.16472 145.54938 196.55997 144.66448 196.9552 143.77959 197.58907 142.32334 197.9843 141.4304 198.37953 140.53746 199.0134 139.09526 199.40865 138.22875 199.8039 137.36222 200.43775 135.99134 200.833 135.18498 201.22824 134.37865 201.86209 133.13185 202.25734 132.41716 202.65259 131.70247 203.28644 130.62921 203.68169 130.03389 204.07695 129.43856 204.71079 128.57949 205.10605 128.12639 205.5013 127.6733 206.13515 127.06139 206.5304 126.76822 206.92565 126.47507 207.5595 126.1351 207.95475 126.01344 208.34999 125.8918 208.98386 125.83711 209.37909 125.89146 209.77433 125.94583 210.40819 126.1771 210.80342 126.40532 211.19866 126.63354 211.83252 127.14297 212.22777 127.5364 212.62303 127.92986 213.25687 128.6978 213.65213 129.24105 214.04738 129.78429 214.68123 130.77989 215.07648 131.45174 215.47173 132.1236 216.10558 133.30866 216.50083 134.0833 216.89608 134.85794 217.52993 136.18762 217.92517 137.03495 218.32042 137.88227 218.95427 139.30342 219.34952 140.1903 219.74477 141.0772 220.37863 142.53484 220.77387 143.427 221.16912 144.31916 221.80297 145.75749 222.19821 146.6204 222.59345 147.48334 223.2273 148.84636 223.62256 149.64646 224.0178 150.44655 224.65166 151.68071 225.0469 152.38701 225.44216 153.0933 226.076 154.152 226.47126 154.737 226.8665 155.32199 227.50035 156.16234 227.8956 156.60338 228.29085 157.04442 228.9247 157.6357 229.31995 157.91571 229.71521 158.19573 230.34905 158.51378 230.7443 158.62162 231.13956 158.72946 231.77339 158.76122 232.16866 158.693 232.5639 158.62476 233.19777 158.37136 233.593 158.12982 233.98824 157.88828 234.6221 157.35788 235.01734 156.95201 235.41257 156.54615 236.04644 155.75878 236.44168 155.20456 236.83693 154.65035 237.47078 153.6385 237.86603 152.95752 238.26128 152.27655 238.89513 151.07805 239.29038 150.29656 239.68564 149.51506 240.31948 148.17667 240.71474 147.32503 241.10999 146.47338 241.74384 145.04697 242.13909 144.1584 242.53433 143.26985 243.16819 141.81188 243.56343 140.92086 243.95868 140.02985 244.59253 138.59568 244.98778 137.73651 245.38303 136.87737 246.01689 135.5225 246.41213 134.72866 246.80736 133.93479 247.44123 132.71262 247.83646 132.0149 248.2317 131.31719 248.86556 130.2744 249.26082 129.69995 249.65607 129.12552 250.28992 128.3035 250.68517 127.87465 251.08042 127.44582 251.71427 126.8758 252.10951 126.60904 252.50476 126.3423 253.13861 126.04623 253.53386 125.95201 253.92911 125.85779 254.56296 125.84793 254.9582 125.92996 255.35346 126.012 255.9873 126.2883 256.38255 126.5433 256.77784 126.7983 257.41169 127.3497 257.80693 127.76782 258.20216 128.18593 258.836 128.99176 259.23127 129.5568 259.62648 130.12181 260.26036 131.15018 260.6556 131.84015 261.05085 132.53012 261.6847 133.7416 262.07994 134.5297 262.4752 135.3178 263.10905 136.66452 263.5043 137.52025 263.89955 138.37599 264.5334 139.80718 264.92863 140.69724 265.3239 141.5873 265.95774 143.04541 266.35298 143.93523 266.74827 144.82505 267.38209 146.2553 267.77735 147.11048 268.17259 147.96567 268.80644 149.31151 269.2017 150.09889 269.59696 150.88626 270.2308 152.09642 270.62605 152.78539 271.02128 153.47434 271.65516 154.50066 272.05039 155.06443 272.4456 155.62819 273.07948 156.43202 273.47474 156.84864 273.86997 157.26525 274.5038 157.81374 274.89906 158.06711 275.29435 158.32048 275.92817 158.59442 276.32344 158.67482 276.71867 158.75522 277.3525 158.74254 277.74778 158.6467 278.143 158.55088 278.77687 158.25232 279.17213 157.98406 279.56739 157.7158 280.20124 157.14354 280.59648 156.71326 280.9917 156.28296 281.62556 155.45845 282.0208 154.88275 282.41606 154.30706 283.44517 152.56392 283.44517 152.56392"/>
<path transform="matrix(1,0,0,-1,0,283.464)" stroke-width=".3985" stroke-linecap="butt" stroke-miterlimit="10" stroke-linejoin="miter" fill="none" stroke="#94b2a2" d="M0 151.64954C0 151.64954 1.02908 151.5167 1.42433 151.39218 1.81956 151.26766 2.45343 150.97983 2.84868 150.75203 3.24393 150.52422 3.87778 150.07349 4.27303 149.75026 4.66827 149.42704 5.30212 148.82979 5.69737 148.42237 6.09262 148.01494 6.72647 147.29129 7.12172 146.81377 7.51698 146.33625 8.15082 145.51178 8.54607 144.98067 8.94133 144.44956 9.57516 143.5521 9.97043 142.98581 10.36568 142.41951 10.99954 141.481 11.39478 140.89925 11.79001 140.31748 12.42387 139.3701 12.8191 138.79279 13.21434 138.21546 13.8482 137.2911 14.24345 136.73822 14.6387 136.18532 15.27255 135.31702 15.6678 134.8078 16.06305 134.2986 16.6969 133.51609 17.09215 133.06815 17.48741 132.6202 18.12125 131.95063 18.51651 131.57933 18.91176 131.20804 19.54561 130.67385 19.94086 130.39203 20.3361 130.11022 20.96996 129.73052 21.3652 129.54814 21.76045 129.36576 22.3943 129.15424 22.78955 129.07755 23.1848 129.00086 23.81866 128.9638 24.2139 128.99536 24.60913 129.02692 25.243 129.1663 25.63823 129.30506 26.03348 129.4438 26.66733 129.75424 27.06259 129.99538 27.45784 130.23651 28.09169 130.70777 28.48694 131.043 28.88219 131.37822 29.51604 131.99387 29.91129 132.41155 30.30653 132.82924 30.94038 133.56777 31.33563 134.05345 31.73088 134.53914 32.36473 135.37522 32.75998 135.91208 33.15523 136.44896 33.78908 137.35341 34.18433 137.92295 34.57959 138.49246 35.21344 139.43448 35.60869 140.01686 36.00392 140.59923 36.63777 141.54512 37.03302 142.1203 37.42825 142.69547 38.06212 143.61415 38.45737 144.1623 38.85262 144.71045 39.48647 145.56908 39.88171 146.07109 40.27696 146.5731 40.91081 147.3419 41.30606 147.78047 41.70131 148.21906 42.33516 148.87213 42.73041 149.23209 43.12567 149.59204 43.7595 150.106 44.15475 150.37485 44.55002 150.64369 45.18385 151.00127 45.57912 151.16985 45.97437 151.33843 46.60822 151.52758 47.00346 151.58985 47.39871 151.65213 48.03258 151.66497 48.42781 151.61882 48.82304 151.5727 49.45691 151.41002 49.85214 151.25724 50.24738 151.10443 50.88124 150.77191 51.27649 150.51758 51.67174 150.26325 52.30559 149.77112 52.70084 149.42414 53.0961 149.07715 53.72993 148.4443 54.1252 148.01665 54.52045 147.589 55.1543 146.83554 55.54955 146.34188 55.9448 145.8482 56.57864 145.00098 56.97389 144.45859 57.36914 143.9162 58.00299 143.00493 58.39824 142.43259 58.79349 141.86025 59.42734 140.91602 59.82259 140.33348 60.21783 139.75095 60.8517 138.80664 61.24693 138.23394 61.64218 137.66124 62.27603 136.74883 62.67128 136.20577 63.06651 135.6627 63.70038 134.81435 64.09563 134.3199 64.49088 133.82546 65.12473 133.07094 65.51997 132.64209 65.91522 132.21324 66.54907 131.57749 66.94432 131.22899 67.33957 130.8805 67.97342 130.38623 68.36867 130.13034 68.76392 129.87445 69.39777 129.53911 69.79301 129.38465 70.18828 129.23017 70.82211 129.0648 71.21738 129.01699 71.61263 128.96915 72.24648 128.97936 72.64172 129.0399 73.03696 129.10045 73.67082 129.28653 74.06606 129.45342 74.46129 129.6203 75.09515 129.9755 75.4904 130.24279 75.88565 130.51009 76.5195 131.02136 76.91475 131.37995 77.31 131.73853 77.94385 132.38973 78.3391 132.82723 78.73436 133.26471 79.3682 134.03203 79.76344 134.53314 80.1587 135.03424 80.79254 135.89134 81.1878 136.4389 81.58305 136.98647 82.2169 137.90476 82.61215 138.47962 83.0074 139.05448 83.64125 139.99982 84.0365 140.58219 84.43175 141.16457 85.06561 142.10703 85.46085 142.67696 85.85608 143.2469 86.48994 144.15247 86.88518 144.69 87.28041 145.22756 87.91428 146.06458 88.30952 146.55121 88.70479 147.03786 89.33862 147.77857 89.73389 148.19745 90.12914 148.61635 90.76299 149.23372 91.15823 149.57033 91.55348 149.90694 92.18733 150.38074 92.58258 150.62355 92.97783 150.86637 93.61168 151.17996 94.00693 151.32038 94.40218 151.4608 95.03603 151.60247 95.43127 151.6357 95.82652 151.66893 96.46037 151.63494 96.85562 151.56 97.25089 151.48505 97.88474 151.27614 98.27998 151.09545 98.67522 150.91477 99.30908 150.53789 99.70432 150.25763 100.09955 149.97736 100.73341 149.44542 101.12866 149.0755 101.52391 148.7056 102.15776 148.03833 102.55301 147.59148 102.94826 147.1446 103.5821 146.36325 103.97736 145.85483 104.3726 145.34639 105.00645 144.47937 105.4017 143.927 105.79697 143.37464 106.4308 142.45084 106.82607 141.87375 107.22131 141.29666 107.85515 140.34954 108.25041 139.76772 108.64566 139.18589 109.27953 138.24698 109.67476 137.68029 110.06999 137.11359 110.70386 136.2151 111.09909 135.68326 111.49432 135.15142 112.12819 134.32563 112.52344 133.84714 112.91869 133.36865 113.55254 132.64327 113.94778 132.23464 114.34305 131.826 114.97688 131.22666 115.37213 130.90198 115.7674 130.57732 116.40123 130.12404 116.7965 129.8946 117.19174 129.66518 117.82559 129.37467 118.22084 129.2484 118.61609 129.12213 119.24994 129.00331 119.64519 128.98455 120.04044 128.96576 120.67429 129.02359 121.06953 129.113 121.46478 129.20243 122.09865 129.43453 122.49388 129.62903 122.88911 129.82352 123.52298 130.222 123.91821 130.51486 124.31346 130.80773 124.94731 131.35866 125.34258 131.7398 125.73782 132.12096 126.37167 132.80582 126.76692 133.26192 127.16217 133.71802 127.79602 134.51177 128.19127 135.0271 128.58652 135.54244 129.22037 136.41931 129.61562 136.9761 130.01087 137.53292 130.64472 138.4613 131.03997 139.04019 131.43521 139.61908 132.06906 140.56739 132.46431 141.14838 132.85958 141.72936 133.49341 142.66455 133.88867 143.22759 134.28392 143.79062 134.91779 144.68073 135.31302 145.20645 135.70825 145.73217 136.34212 146.54656 136.73735 147.01662 137.13259 147.4867 137.76645 148.19638 138.1617 148.59452 138.55695 148.99263 139.1908 149.57358 139.58605 149.88608 139.9813 150.19857 140.61515 150.6307 141.01039 150.84674 141.40566 151.06278 142.03949 151.33118 142.43476 151.4432 142.83 151.55525 143.46385 151.65016 143.8591 151.6543 144.25435 151.65843 144.8882 151.57682 145.28345 151.47306 145.6787 151.3693 146.31256 151.11455 146.7078 150.90644 147.10303 150.69832 147.7369 150.27843 148.13213 149.973 148.52736 149.6676 149.16123 149.09719 149.55648 148.70525 149.95174 148.31331 150.58557 147.61309 150.98084 147.1481 151.37609 146.68312 152.00992 145.876 152.40518 145.35396 152.80043 144.8319 153.43428 143.9464 153.82953 143.38547 154.22478 142.82453 154.85863 141.89134 155.25388 141.31102 155.64913 140.7307 156.28298 139.78255 156.67823 139.20282 157.07347 138.6231 157.70732 137.6919 158.10257 137.13269 158.49784 136.57349 159.13169 135.69167 159.52692 135.17243 159.92217 134.65319 160.55602 133.85164 160.95127 133.39038 161.3465 132.92913 161.98036 132.23538 162.37561 131.84795 162.77086 131.46051 163.40471 130.89803 163.79996 130.59792 164.1952 130.29779 164.82906 129.88718 165.2243 129.68482 165.61956 129.48247 166.2534 129.23715 166.64865 129.1394 167.0439 129.04166 167.67775 128.96985 168.073 128.98023 168.46826 128.99059 169.1021 129.09612 169.49736 129.21422 169.89261 129.33232 170.52646 129.60984 170.9217 129.83145 171.31696 130.05309 171.95082 130.49394 172.34606 130.81159 172.74129 131.12923 173.37516 131.71825 173.77039 132.12088 174.16562 132.5235 174.79949 133.23986 175.19474 133.71347 175.58998 134.18709 176.22383 135.00617 176.61908 135.53447 177.01435 136.06276 177.64818 136.95639 178.04344 137.52112 178.43869 138.08585 179.07254 139.02326 179.46779 139.60466 179.86304 140.18605 180.49689 141.13344 180.89214 141.71155 181.28739 142.28964 181.92124 143.2163 182.31649 143.77129 182.71173 144.32628 183.3456 145.1992 183.74083 145.71166 184.13607 146.22409 184.76993 147.01253 185.16516 147.46474 185.56041 147.91693 186.19426 148.59442 186.58953 148.97083 186.98477 149.34723 187.6186 149.89005 188.01387 150.17761 188.40912 150.4652 189.04297 150.85482 189.43822 151.04355 189.83347 151.23229 190.46732 151.45464 190.86257 151.53794 191.25782 151.62123 191.89167 151.66881 192.28691 151.6439 192.68216 151.619 193.31601 151.49063 193.71126 151.35843 194.10652 151.22623 194.74036 150.9261 195.1356 150.69103 195.53087 150.45597 196.16472 149.99394 196.55997 149.66419 196.9552 149.33443 197.58907 148.72724 197.9843 148.31424 198.37953 147.90123 199.0134 147.16942 199.40865 146.68746 199.8039 146.20549 200.43775 145.37476 200.833 144.84052 201.22824 144.30629 201.86209 143.40509 202.25734 142.837 202.65259 142.26892 203.28644 141.32831 203.68169 140.74611 204.07695 140.16393 204.71079 139.21721 205.10605 138.64096 205.5013 138.06472 206.13515 137.14325 206.5304 136.59288 206.92565 136.04251 207.5595 135.17946 207.95475 134.67415 208.34999 134.16884 208.98386 133.39382 209.37909 132.95092 209.77433 132.50803 210.40819 131.84728 210.80342 131.48203 211.19866 131.11678 211.83252 130.59329 212.22777 130.3185 212.62303 130.0437 213.25687 129.67623 213.65213 129.50142 214.04738 129.32662 214.68123 129.12746 215.07648 129.05852 215.47173 128.98957 216.10558 128.96508 216.50083 129.00444 216.89608 129.0438 217.52993 129.19583 217.92517 129.34226 218.32042 129.48868 218.95427 129.81151 219.34952 130.05983 219.74477 130.30815 220.37863 130.79044 220.77387 131.1321 221.16912 131.47374 221.80297 132.09918 222.19821 132.52227 222.59345 132.94536 223.2273 133.69149 223.62256 134.18149 224.0178 134.6715 224.65166 135.514 225.0469 136.05394 225.44216 136.59389 226.076 137.50196 226.47126 138.07303 226.8665 138.6441 227.50035 139.58744 227.8956 140.16997 228.29085 140.75252 228.9247 141.69783 229.31995 142.27167 229.71521 142.84552 230.34905 143.76052 230.7443 144.30591 231.13956 144.85132 231.77339 145.70455 232.16866 146.20259 232.5639 146.70064 233.19777 147.46219 233.593 147.89554 233.98824 148.32889 234.6221 148.97222 235.01734 149.32595 235.41257 149.67966 236.04644 150.18302 236.44168 150.44492 236.83693 150.70682 237.47078 151.05258 237.86603 151.21355 238.26128 151.3745 238.89513 151.55057 239.29038 151.605 239.68564 151.65941 240.31948 151.65973 240.71474 151.60584 241.10999 151.55196 241.74384 151.37703 242.13909 151.21657 242.53433 151.05609 243.16819 150.71073 243.56343 150.44925 243.95868 150.18778 244.59253 149.68523 244.98778 149.33199 245.38303 148.97876 246.01689 148.33632 246.41213 147.90332 246.80736 147.47032 247.44123 146.70905 247.83646 146.21125 248.2317 145.71344 248.86556 144.86063 249.26082 144.31542 249.65607 143.77019 250.28992 142.85536 250.68517 142.28163 251.08042 141.70792 251.71427 140.76285 252.10951 140.18036 252.50476 139.59786 253.13861 138.65467 253.53386 138.0834 253.92911 137.51215 254.56296 136.60315 254.9582 136.06304 255.35346 135.52292 255.9873 134.68083 256.38255 134.19058 256.77784 133.70034 257.41169 132.9532 257.80693 132.52962 258.20216 132.10605 258.836 131.4798 259.23127 131.13771 259.62648 130.79564 260.26036 130.3129 260.6556 130.06415 261.05085 129.8154 261.6847 129.49176 262.07994 129.34485 262.4752 129.19794 263.10905 129.04528 263.5043 129.00531 263.89955 128.96533 264.5334 128.98838 264.92863 129.05678 265.3239 129.12519 265.95774 129.324 266.35298 129.4984 266.74827 129.67279 267.38209 130.03942 267.77735 130.31374 268.17259 130.58806 268.80644 131.11078 269.2017 131.47554 269.59696 131.84029 270.2308 132.5001 270.62605 132.94269 271.02128 133.38529 271.65516 134.16037 272.05039 134.6655 272.4456 135.17064 273.07948 136.03316 273.47474 136.58338 273.86997 137.13358 274.5038 138.05489 274.89906 138.63101 275.29435 139.20714 275.92817 140.15361 276.32344 140.73575 276.71867 141.31787 277.3525 142.25843 277.74778 142.82663 278.143 143.39482 278.77687 144.29654 279.17213 144.83101 279.56739 145.36548 280.20124 146.19654 280.59648 146.6788 280.9917 147.16107 281.62556 147.89351 282.0208 148.30687 282.41606 148.72025 283.44517 149.65813 283.44517 149.65813"/>
<path transform="matrix(1,0,0,-1,0,283.464)" stroke-width=".59776" stroke-linecap="butt" stroke-miterlimit="10" stroke-linejoin="miter" fill="none" stroke="#69917d" d="M0 156.97711C0 156.97711 1.02908 155.41599 1.42433 154.74564 1.81956 154.0753 2.45343 152.9029 2.84868 152.14565 3.24393 151.38842 3.87778 150.10015 4.27303 149.28787 4.66827 148.4756 5.30212 147.12448 5.69737 146.29126 6.09262 145.45804 6.72647 144.1017 7.12172 143.28252 7.51698 142.46334 8.15082 141.1581 8.54607 140.38712 8.94133 139.61614 9.57516 138.4161 9.97043 137.72571 10.36568 137.03531 10.99954 135.9918 11.39478 135.4112 11.79001 134.83057 12.42387 133.98746 12.8191 133.54091 13.21434 133.09435 13.8482 132.48656 14.24345 132.19268 14.6387 131.89879 15.27255 131.55149 15.6678 131.42278 16.06305 131.29405 16.6969 131.22306 17.09215 131.26488 17.48741 131.3067 18.12125 131.51366 18.51651 131.72425 18.91176 131.93482 19.54561 132.4122 19.94086 132.78266 20.3361 133.15312 20.96996 133.87958 21.3652 134.3943 21.76045 134.90903 22.3943 135.85495 22.78955 136.49254 23.1848 137.13013 23.81866 138.25592 24.2139 138.98958 24.60913 139.72325 25.243 140.98148 25.63823 141.78032 26.03348 142.57915 26.66733 143.91663 27.06259 144.74709 27.45784 145.57756 28.09169 146.93845 28.48694 147.76578 28.88219 148.59311 29.51604 149.9206 29.91129 150.71007 30.30653 151.49953 30.94038 152.73734 31.33563 153.45581 31.73088 154.17429 32.36473 155.271 32.75998 155.88842 33.15523 156.50582 33.78908 157.41547 34.18433 157.90578 34.57959 158.39608 35.21344 159.07964 35.60869 159.42224 36.00392 159.76485 36.63777 160.19449 37.03302 160.37512 37.42825 160.55574 38.06212 160.71309 38.45737 160.72418 38.85262 160.73529 39.48647 160.61417 39.88171 160.45514 40.27696 160.29611 40.91081 159.9004 41.30606 159.57796 41.70131 159.25551 42.33516 158.60338 42.73041 158.13112 43.12567 157.65888 43.7595 156.7766 44.15475 156.17432 44.55002 155.57202 45.18385 154.49724 45.57912 153.79016 45.97437 153.0831 46.60822 151.86037 47.00346 151.07816 47.39871 150.29593 48.03258 148.9768 48.42781 148.15247 48.82304 147.32813 49.45691 145.96883 49.85214 145.13681 50.24738 144.3048 50.88124 142.96067 51.27649 142.15576 51.67174 141.35086 52.30559 140.07935 52.70084 139.33562 53.0961 138.59188 53.72993 137.44681 54.1252 136.79532 54.52045 136.14382 55.1543 135.1721 55.54955 134.63999 55.9448 134.10785 56.57864 133.3502 56.97389 132.96 57.36914 132.56981 58.00299 132.05939 58.39824 131.8276 58.79349 131.59584 59.42734 131.35334 59.82259 131.28954 60.21783 131.22576 60.8517 131.261 61.24693 131.36783 61.64218 131.47466 62.27603 131.78639 62.67128 132.05947 63.06651 132.33252 63.70038 132.90805 64.09563 133.33588 64.49088 133.7637 65.12473 134.57843 65.51997 135.14302 65.91522 135.70763 66.54907 136.72751 66.94432 137.40518 67.33957 138.08286 67.97342 139.26496 68.36867 140.02724 68.76392 140.78952 69.39777 142.08425 69.79301 142.89929 70.18828 143.71433 70.82211 145.06815 71.21738 145.90154 71.61263 146.73494 72.24648 148.08905 72.64172 148.90595 73.03696 149.72284 73.67082 151.02304 74.06606 151.78925 74.46129 152.55544 75.09515 153.74498 75.4904 154.42816 75.88565 155.11136 76.5195 156.14163 76.91475 156.71326 77.31 157.28488 77.94385 158.11209 78.3391 158.54808 78.73436 158.98407 79.3682 159.57353 79.76344 159.85565 80.1587 160.13777 80.79254 160.46509 81.1878 160.58144 81.58305 160.6978 82.2169 160.74864 82.61215 160.69435 83.0074 160.64005 83.64125 160.41266 84.0365 160.19 84.43175 159.96736 85.06561 159.47118 85.46085 159.08963 85.85608 158.70807 86.48994 157.9645 86.88518 157.43993 87.28041 156.91535 87.91428 155.95449 88.30952 155.3088 88.70479 154.66312 89.33862 153.52573 89.73389 152.78624 90.12914 152.04676 90.76299 150.78133 91.15823 149.97908 91.55348 149.17682 92.18733 147.83545 92.58258 147.00408 92.97783 146.17272 93.61168 144.81285 94.00693 143.98712 94.40218 143.1614 95.03603 141.83824 95.43127 141.05278 95.82652 140.26732 96.46037 139.03818 96.85562 138.32607 97.25089 137.61394 97.88474 136.52918 98.27998 135.92029 98.67522 135.3114 99.30908 134.41759 99.70432 133.93755 100.09955 133.45749 100.73341 132.79163 101.12866 132.46042 101.52391 132.12921 102.15776 131.71881 102.55301 131.55036 102.94826 131.38191 103.5821 131.24486 103.97736 131.24629 104.3726 131.24771 105.00645 131.38948 105.4017 131.56075 105.79697 131.73201 106.4308 132.14684 106.82607 132.48075 107.22131 132.81467 107.85515 133.48487 108.25041 133.96738 108.64566 134.44989 109.27953 135.34748 109.67476 135.95836 110.06999 136.56923 110.70386 137.65659 111.09909 138.3702 111.49432 139.0838 112.12819 140.31526 112.52344 141.10167 112.91869 141.88808 113.55254 143.21208 113.94778 144.03816 114.34305 144.86425 114.97688 146.22437 115.37213 147.05556 115.7674 147.88674 116.40123 149.22734 116.7965 150.02883 117.19174 150.83029 117.82559 152.094 118.22084 152.83209 118.61609 153.57019 119.24994 154.70484 119.64519 155.3486 120.04044 155.99236 120.67429 156.94953 121.06953 157.47194 121.46478 157.99436 122.09865 158.73479 122.49388 159.11385 122.88911 159.49289 123.52298 159.98419 123.91821 160.20384 124.31346 160.42348 124.94731 160.64562 125.34258 160.69693 125.73782 160.74823 126.37167 160.69278 126.76692 160.57366 127.16217 160.45453 127.79602 160.12317 128.19127 159.83835 128.58652 159.55353 129.22037 158.95934 129.61562 158.52083 130.01087 158.0823 130.64472 157.25151 131.03997 156.67778 131.43521 156.10407 132.06906 155.0707 132.46431 154.38578 132.85958 153.70084 133.49341 152.50856 133.88867 151.74123 134.28392 150.97389 134.91779 149.67278 135.31302 148.85533 135.70825 148.03789 136.34212 146.6829 136.73735 145.84963 137.13259 145.01634 137.76645 143.66393 138.1617 142.84955 138.55695 142.03516 139.1908 140.7413 139.58605 139.9801 139.9813 139.21889 140.61515 138.03917 141.01039 137.36325 141.40566 136.68732 142.03949 135.67079 142.43476 135.10842 142.83 134.54604 143.46385 133.73529 143.8591 133.30992 144.25435 132.88455 144.8882 132.31293 145.28345 132.04259 145.6787 131.77223 146.31256 131.46521 146.7078 131.36135 147.10303 131.25746 147.7369 131.22708 148.13213 131.29387 148.52736 131.36066 149.16123 131.60817 149.55648 131.84276 149.95174 132.07733 150.58557 132.59204 150.98084 132.98465 151.37609 133.37726 152.00992 134.13813 152.40518 134.67243 152.80043 135.20671 153.43428 136.18212 153.82953 136.83554 154.22478 137.48897 154.85863 138.63677 155.25388 139.38188 155.64913 140.12702 156.28298 141.40026 156.67823 142.20594 157.07347 143.0116 157.70732 144.35659 158.10257 145.18872 158.49784 146.02086 159.13169 147.37964 159.52692 148.2035 159.92217 149.02736 160.55602 150.3454 160.95127 151.1266 161.3465 151.90779 161.98036 153.12836 162.37561 153.83386 162.77086 154.53937 163.40471 155.61125 163.79996 156.2115 164.1952 156.81175 164.82906 157.69025 165.2243 158.1601 165.61956 158.62995 166.2534 159.2781 166.64865 159.59786 167.0439 159.9176 167.67775 160.30846 168.073 160.46466 168.46826 160.62087 169.1021 160.73772 169.49736 160.72374 169.89261 160.70978 170.52646 160.54747 170.9217 160.36388 171.31696 160.1803 171.95082 159.74593 172.34606 159.4006 172.74129 159.0553 173.37516 158.36765 173.77039 157.87506 174.16562 157.38248 174.79949 156.46968 175.19474 155.85034 175.58998 155.231 176.22383 154.1313 176.61908 153.41126 177.01435 152.69123 177.64818 151.45119 178.04344 150.66075 178.43869 149.8703 179.07254 148.54189 179.46779 147.71431 179.86304 146.88672 180.49689 145.52622 180.89214 144.69606 181.28739 143.86589 181.92124 142.52899 182.31649 141.731 182.71173 140.933 183.3456 139.67682 183.74083 138.9446 184.13607 138.21239 184.76993 137.08939 185.16516 136.4536 185.56041 135.81783 186.19426 134.87485 186.58953 134.36229 186.98477 133.84972 187.6186 133.12712 188.01387 132.75931 188.40912 132.3915 189.04297 131.91892 189.43822 131.71128 189.83347 131.50363 190.46732 131.3016 190.86257 131.26273 191.25782 131.22383 191.89167 131.29944 192.28691 131.43097 192.68216 131.56252 193.31601 131.9142 193.71126 132.21083 194.10652 132.50748 194.74036 133.11994 195.1356 133.56902 195.53087 134.0181 196.16472 134.86486 196.55997 135.44753 196.9552 136.03018 197.58907 137.07659 197.9843 137.76853 198.37953 138.46048 199.0134 139.66255 199.40865 140.43468 199.8039 141.2068 200.43775 142.51378 200.833 143.33356 201.22824 144.15335 201.86209 145.51006 202.25734 146.34316 202.65259 147.17626 203.28644 148.52645 203.68169 149.33806 204.07695 150.14968 204.71079 151.43683 205.10605 152.19281 205.5013 152.94879 206.13515 154.11818 206.5304 154.78673 206.92565 155.45529 207.5595 156.45807 207.95475 157.01128 208.34999 157.56447 208.98386 158.35929 209.37909 158.77387 209.77433 159.18843 210.40819 159.74089 210.80342 159.99925 211.19866 160.25762 211.83252 160.54448 212.22777 160.63594 212.62303 160.72739 213.25687 160.7376 213.65213 160.65843 214.04738 160.57929 214.68123 160.31195 215.07648 160.06543 215.47173 159.8189 216.10558 159.28522 216.50083 158.88158 216.89608 158.47792 217.52993 157.70001 217.92517 157.15618 218.32042 156.61234 218.95427 155.62302 219.34952 154.9619 219.74477 154.3008 220.37863 153.14199 220.77387 152.39134 221.16912 151.6407 221.80297 150.36046 222.19821 149.55173 222.59345 148.74298 223.2273 147.3952 223.62256 146.56246 224.0178 145.7297 224.65166 144.37177 225.0469 143.54982 225.44216 142.72789 226.076 141.41516 226.47126 140.63842 226.8665 139.86168 227.50035 138.65027 227.8956 137.95149 228.29085 137.2527 228.9247 136.19344 229.31995 135.60195 229.71521 135.01045 230.34905 134.14786 230.7443 133.6884 231.13956 133.22893 231.77339 132.59867 232.16866 132.29044 232.5639 131.98221 233.19777 131.61072 233.593 131.46689 233.98824 131.32305 234.6221 131.22713 235.01734 131.25365 235.41257 131.28015 236.04644 131.46237 236.44168 131.65807 236.83693 131.85376 237.47078 132.30756 237.86603 132.66414 238.26128 133.02074 238.89513 133.72554 239.29038 134.2282 239.68564 134.73087 240.31948 135.65935 240.71474 136.28708 241.10999 136.91481 241.74384 138.0264 242.13909 138.75255 242.53433 139.47872 243.16819 140.72646 243.56343 141.52079 243.95868 142.31513 244.59253 143.64859 244.98778 144.47762 245.38303 145.30664 246.01689 146.6669 246.41213 147.49587 246.80736 148.32483 247.44123 149.65793 247.83646 150.45227 248.2317 151.2466 248.86556 152.4948 249.26082 153.22095 249.65607 153.9471 250.28992 155.05843 250.68517 155.68598 251.08042 156.31352 251.71427 157.24138 252.10951 157.74399 252.50476 158.2466 253.13861 158.95195 253.53386 159.30849 253.92911 159.66503 254.56296 160.11814 254.9582 160.3137 255.35346 160.50928 255.9873 160.69165 256.38255 160.71813 256.77784 160.74459 257.41169 160.64836 257.80693 160.50446 258.20216 160.36055 258.836 159.98918 259.23127 159.68091 259.62648 159.37262 260.26036 158.74208 260.6556 158.2825 261.05085 157.82294 261.6847 156.96009 262.07994 156.36853 262.4752 155.77698 263.10905 154.71782 263.5043 154.01897 263.89955 153.32013 264.5334 152.10836 264.92863 151.33162 265.3239 150.55487 265.95774 149.24251 266.35298 148.42064 266.74827 147.59876 267.38209 146.24076 267.77735 145.408 268.17259 144.57526 268.80644 143.22748 269.2017 142.41873 269.59696 141.61 270.2308 140.32978 270.62605 139.57913 271.02128 138.82849 271.65516 137.6696 272.05039 137.00855 272.4456 136.3475 273.07948 135.3585 273.47474 134.81473 273.86997 134.27095 274.5038 133.49292 274.89906 133.08933 275.29435 132.68575 275.92817 132.15232 276.32344 131.9059 276.71867 131.6595 277.3525 131.39243 277.74778 131.31333 278.143 131.23424 278.77687 131.24431 279.17213 131.33583 279.56739 131.42734 280.20124 131.71446 280.59648 131.97295 280.9917 132.23142 281.62556 132.78414 282.0208 133.19878 282.41606 133.6134 283.44517 134.96135 283.44517 134.96135"/>
<path transform="matrix(1,0,0,-1,0,283.464)" stroke-width=".29887" stroke-linecap="butt" stroke-miterlimit="10" stroke-linejoin="miter" fill="none" stroke="#becdc4" d="M0 144.83448C0 144.83448 1.02908 143.59259 1.42433 143.11728 1.81956 142.64199 2.45343 141.8744 2.84868 141.40877 3.24393 140.94313 3.87778 140.20305 4.27303 139.76123 4.66827 139.31943 5.30212 138.62915 5.69737 138.22443 6.09262 137.8197 6.72647 137.1997 7.12172 136.8442 7.51698 136.48868 8.15082 135.95763 8.54607 135.66207 8.94133 135.36652 9.57516 134.94072 9.97043 134.71393 10.36568 134.48715 10.99954 134.17862 11.39478 134.02751 11.79001 133.8764 12.42387 133.69562 12.8191 133.6248 13.21434 133.554 13.8482 133.5057 14.24345 133.51712 14.6387 133.52852 15.27255 133.61362 15.6678 133.70699 16.06305 133.80036 16.6969 134.01755 17.09215 134.19014 17.48741 134.36272 18.12125 134.70446 18.51651 134.95098 18.91176 135.19751 19.54561 135.65392 19.94086 135.96701 20.3361 136.28009 20.96996 136.83725 21.3652 137.20754 21.76045 137.5778 22.3943 138.21945 22.78955 138.63576 23.1848 139.05207 23.81866 139.75824 24.2139 140.20804 24.60913 140.65784 25.243 141.40798 25.63823 141.87764 26.03348 142.3473 26.66733 143.11759 27.06259 143.59308 27.45784 144.06856 28.09169 144.8375 28.48694 145.30464 28.88219 145.77178 29.51604 146.51534 29.91129 146.95996 30.30653 147.40459 30.94038 148.10056 31.33563 148.50931 31.73088 148.91806 32.36473 149.54547 32.75998 149.90598 33.15523 150.26647 33.78908 150.80612 34.18433 151.10756 34.57959 151.40901 35.21344 151.84517 35.60869 152.07862 36.00392 152.31204 36.63777 152.63182 37.03302 152.79013 37.42825 152.94846 38.06212 153.14122 38.45737 153.21965 38.85262 153.29808 39.48647 153.35924 39.88171 153.35547 40.27696 153.3517 40.91081 153.27834 41.30606 153.1924 41.70131 153.10646 42.33516 152.9015 42.73041 152.73607 43.12567 152.57062 43.7595 152.23989 44.15475 151.9999 44.55002 151.7599 45.18385 151.31368 45.57912 151.00635 45.97437 150.69904 46.60822 150.15027 47.00346 149.78485 47.39871 149.41945 48.03258 148.78514 48.42781 148.37262 48.82304 147.9601 49.45691 147.25887 49.85214 146.8116 50.24738 146.36432 50.88124 145.61739 51.27649 145.14893 51.67174 144.68047 52.30559 143.91075 52.70084 143.43521 53.0961 142.95966 53.72993 142.18994 54.1252 141.72148 54.52045 141.25302 55.1543 140.50609 55.54955 140.0588 55.9448 139.61154 56.57864 138.91037 56.97389 138.49779 57.36914 138.0852 58.00299 137.45052 58.39824 137.08512 58.79349 136.7197 59.42734 136.17139 59.82259 135.86406 60.21783 135.55673 60.8517 135.11019 61.24693 134.87009 61.64218 134.62999 62.27603 134.29898 62.67128 134.13349 63.06651 133.96797 63.70038 133.76308 64.09563 133.67714 64.49088 133.5912 65.12473 133.51786 65.51997 133.51409 65.91522 133.51032 66.54907 133.57147 66.94432 133.6499 67.33957 133.72834 67.97342 133.92116 68.36867 134.0794 68.76392 134.23766 69.39777 134.55713 69.79301 134.79051 70.18828 135.0239 70.82211 135.46012 71.21738 135.76155 71.61263 136.06299 72.24648 136.60265 72.64172 136.96315 73.03696 137.32364 73.67082 137.95113 74.06606 138.35982 74.46129 138.7685 75.09515 139.46414 75.4904 139.90872 75.88565 140.3533 76.5195 141.09691 76.91475 141.56406 77.31 142.03119 77.94385 142.80011 78.3391 143.2756 78.73436 143.75109 79.3682 144.52138 79.76344 144.99105 80.1587 145.46071 80.79254 146.21085 81.1878 146.66065 81.58305 147.11043 82.2169 147.8166 82.61215 148.23293 83.0074 148.64923 83.64125 149.29082 84.0365 149.66117 84.43175 150.0315 85.06561 150.58896 85.46085 150.90212 85.85608 151.21526 86.48994 151.67154 86.88518 151.91814 87.28041 152.16474 87.91428 152.50682 88.30952 152.67942 88.70479 152.85199 89.33862 153.06874 89.73389 153.16211 90.12914 153.25548 90.76299 153.34093 91.15823 153.35245 91.55348 153.36396 92.18733 153.31598 92.58258 153.24517 92.97783 153.17435 93.61168 152.99315 94.00693 152.84204 94.40218 152.69094 95.03603 152.38275 95.43127 152.15604 95.82652 151.9293 96.46037 151.50342 96.85562 151.20792 97.25089 150.91242 97.88474 150.38167 98.27998 150.02622 98.67522 149.67076 99.30908 149.05077 99.70432 148.64598 100.09955 148.2412 100.73341 147.55057 101.12866 147.10875 101.52391 146.66693 102.15776 145.92722 102.55301 145.46164 102.94826 144.99607 103.5821 144.22843 103.97736 143.75313 104.3726 143.27782 105.00645 142.50676 105.4017 142.03595 105.79697 141.56516 106.4308 140.81212 106.82607 140.35987 107.22131 139.9076 107.85515 139.19632 108.25041 138.77635 108.64566 138.35637 109.27953 137.70804 109.67476 137.33296 110.06999 136.95789 110.70386 136.39183 111.09909 136.07299 111.49432 135.75414 112.12819 135.28789 112.52344 135.03488 112.91869 134.78188 113.55254 134.42906 113.94778 134.24939 114.34305 134.06972 114.97688 133.8408 115.37213 133.73987 115.7674 133.63893 116.40123 133.54096 116.7965 133.52187 117.19174 133.50279 117.82559 133.53902 118.22084 133.60233 118.61609 133.66562 119.24994 133.83441 119.64519 133.9782 120.04044 134.12197 120.67429 134.41875 121.06953 134.63869 121.46478 134.85863 122.09865 135.27394 122.49388 135.56345 122.88911 135.85295 123.52298 136.3749 123.91821 136.72525 124.31346 137.0756 124.94731 137.6879 125.34258 138.08861 125.73782 138.48932 126.37167 139.17432 126.76692 139.61331 127.16217 140.05229 127.79602 140.7886 128.19127 141.25263 128.58652 141.71665 129.22037 142.48268 129.61562 142.95767 130.01087 143.43268 130.64472 144.20439 131.03997 144.67617 131.43521 145.14792 132.06906 145.90332 132.46431 146.35787 132.85958 146.8124 133.49341 147.52869 133.88867 147.9522 134.28392 148.37572 134.91779 149.03058 135.31302 149.41028 135.70825 149.78998 136.34212 150.36438 136.73735 150.68888 137.13259 151.01337 137.76645 151.48952 138.1617 151.74901 138.55695 152.00852 139.1908 152.37247 139.58605 152.55916 139.9813 152.74585 140.61515 152.98633 141.01039 153.09465 141.40566 153.20296 142.03949 153.31314 142.43476 153.3399 142.83 153.36666 143.46385 153.3433 143.8591 153.28757 144.25435 153.23181 144.8882 153.0746 145.28345 152.93807 145.6787 152.80155 146.31256 152.5167 146.7078 152.30355 147.10303 152.09038 147.7369 151.68514 148.13213 151.40169 148.52736 151.11826 149.16123 150.60578 149.55648 150.26065 149.95174 149.91551 150.58557 149.31067 150.98084 148.91417 151.37609 148.51767 152.00992 147.83887 152.40518 147.40288 152.80043 146.96689 153.43428 146.23406 153.82953 145.77178 154.22478 145.3095 154.85863 144.54558 155.25388 144.07105 155.64913 143.59651 156.28298 142.82442 156.67823 142.3517 157.07347 141.87899 157.70732 141.12062 158.10257 140.66393 158.49784 140.20723 159.13169 139.48696 159.52692 139.06009 159.92217 138.63323 160.55602 137.97162 160.95127 137.5873 161.3465 137.20298 161.98036 136.62018 162.37561 136.2901 162.77086 135.96004 163.40471 135.47418 163.79996 135.20833 164.1952 134.94248 164.82906 134.56769 165.2243 134.37398 165.61956 134.18025 166.2534 133.92787 166.64865 133.8121 167.0439 133.69635 167.67775 133.57387 168.073 133.5396 168.46826 133.50533 169.1021 133.51694 169.49736 133.56513 169.89261 133.61331 170.52646 133.7578 170.9217 133.88694 171.31696 134.01607 171.95082 134.28961 172.34606 134.49594 172.74129 134.70226 173.37516 135.09674 173.77039 135.374 174.16562 135.65125 174.79949 136.15442 175.19474 136.49427 175.58998 136.83412 176.22383 137.43122 176.61908 137.82346 177.01435 138.2157 177.64818 138.88846 178.04344 139.32134 178.43869 139.75421 179.07254 140.48294 179.46779 140.94336 179.86304 141.40378 180.49689 142.16579 180.89214 142.63977 181.28739 143.11376 181.92124 143.88605 182.31649 144.35955 182.71173 144.83304 183.3456 145.5937 183.74083 146.0525 184.13607 146.51129 184.76993 147.23613 185.16516 147.66629 185.56041 148.09647 186.19426 148.76422 186.58953 149.15293 186.98477 149.54163 187.6186 150.13231 188.01387 150.46784 188.40912 150.80336 189.04297 151.29909 189.43822 151.57125 189.83347 151.8434 190.46732 152.22872 190.86257 152.4294 191.25782 152.63008 191.89167 152.89446 192.28691 153.01766 192.68216 153.14084 193.31601 153.27553 193.71126 153.3174 194.10652 153.35929 194.74036 153.36013 195.1356 153.31957 195.53087 153.279 196.16472 153.14682 196.55997 153.02501 196.9552 152.9032 197.58907 152.64099 197.9843 152.44152 198.37953 152.24204 199.0134 151.85828 199.40865 151.58725 199.8039 151.31623 200.43775 150.82262 200.833 150.48818 201.22824 150.15373 201.86209 149.56464 202.25734 149.17671 202.65259 148.78879 203.28644 148.12189 203.68169 147.69225 204.07695 147.2626 204.71079 146.5386 205.10605 146.08019 205.5013 145.62175 206.13515 144.86148 206.5304 144.38809 206.92565 143.9147 207.5595 143.14241 207.95475 142.6683 208.34999 142.1942 208.98386 141.43175 209.37909 140.97104 209.77433 140.51033 210.40819 139.78113 210.80342 139.34774 211.19866 138.91432 211.83252 138.24027 212.22777 137.84725 212.62303 137.45423 213.25687 136.85585 213.65213 136.51503 214.04738 136.17423 214.68123 135.66925 215.07648 135.39087 215.47173 135.11248 216.10558 134.71607 216.50083 134.50849 216.89608 134.3009 217.52993 134.0253 217.92517 133.89472 218.32042 133.76413 218.95427 133.61684 219.34952 133.56728 219.74477 133.51772 220.37863 133.50444 220.77387 133.53745 221.16912 133.57045 221.80297 133.69074 222.19821 133.80518 222.59345 133.91962 223.2273 134.16983 223.62256 134.36229 224.0178 134.55474 224.65166 134.92761 225.0469 135.19232 225.44216 135.45703 226.076 135.94116 226.47126 136.2702 226.8665 136.59926 227.50035 137.18045 227.8956 137.56394 228.29085 137.94744 228.9247 138.60787 229.31995 139.03412 229.71521 139.46039 230.34905 140.17998 230.7443 140.63625 231.13956 141.09252 231.77339 141.85019 232.16866 142.32273 232.5639 142.79526 233.19777 143.56735 233.593 144.04206 233.98824 144.51676 234.6221 145.28145 235.01734 145.7441 235.41257 146.20674 236.04644 146.94002 236.44168 147.3765 236.83693 147.81298 237.47078 148.49272 237.86603 148.88996 238.26128 149.28717 238.89513 149.89331 239.29038 150.23946 239.68564 150.5856 240.31948 151.10024 240.71474 151.38483 241.10999 151.6694 241.74384 152.07619 242.13909 152.29056 242.53433 152.50492 243.16819 152.79199 243.56343 152.92984 243.95868 153.06769 244.59253 153.22696 244.98778 153.28409 245.38303 153.34122 246.01689 153.36693 246.41213 153.34162 246.80736 153.31632 247.44123 153.20856 247.83646 153.10157 248.2317 152.99457 248.86556 152.7559 249.26082 152.5704 249.65607 152.38492 250.28992 152.02295 250.68517 151.7646 251.08042 151.50624 251.71427 151.0318 252.10951 150.70833 252.50476 150.38486 253.13861 149.81214 253.53386 149.43321 253.92911 149.05428 254.56296 148.40013 254.9582 147.97728 255.35346 147.55445 255.9873 146.8396 256.38255 146.38555 256.77784 145.93149 257.41169 145.17635 257.80693 144.70471 258.20216 144.23307 258.836 143.46129 259.23127 142.98622 259.62648 142.51117 260.26036 141.74498 260.6556 141.28073 261.05085 140.81649 261.6847 140.07959 262.07994 139.64012 262.4752 139.20066 263.10905 138.5147 263.5043 138.11327 263.89955 137.71184 264.5334 137.09819 264.92863 136.74687 265.3239 136.39556 265.95774 135.87181 266.35298 135.58118 266.74827 135.29055 267.38209 134.87329 267.77735 134.6521 268.17259 134.4309 268.80644 134.13195 269.2017 133.98685 269.59696 133.84174 270.2308 133.6709 270.62605 133.60622 271.02128 133.54154 271.65516 133.50293 272.05039 133.52057 272.4456 133.5382 273.07948 133.63382 273.47474 133.73339 273.86997 133.83293 274.5038 134.05974 274.89906 134.23815 275.29435 134.41655 275.92817 134.76738 276.32344 135.01932 276.71867 135.27124 277.3525 135.73606 277.74778 136.05394 278.143 136.37183 278.77687 136.93622 279.17213 137.31047 279.56739 137.68471 280.20124 138.33199 280.59648 138.75125 280.9917 139.1705 281.62556 139.8804 282.0208 140.33217 282.41606 140.78395 283.44517 142.0074 283.44517 142.0074"/>
<path transform="matrix(1,0,0,-1,0,283.464)" stroke-width=".3985" stroke-linecap="butt" stroke-miterlimit="10" stroke-linejoin="miter" fill="none" stroke="#94b2a2" d="M0 149.65381C0 149.65381 1.02908 151.43158 1.42433 152.0172 1.81956 152.6028 2.45343 153.43888 2.84868 153.87451 3.24393 154.31014 3.87778 154.88735 4.27303 155.15699 4.66827 155.42662 5.30212 155.72429 5.69737 155.8179 6.09262 155.91152 6.72647 155.91768 7.12172 155.83174 7.51698 155.74582 8.15082 155.46063 8.54607 155.19852 8.94133 154.93639 9.57516 154.37114 9.97043 153.94242 10.36568 153.51369 10.99954 152.68795 11.39478 152.10846 11.79001 151.52898 12.42387 150.47464 12.8191 149.76583 13.21434 149.057 13.8482 147.8118 14.24345 146.99976 14.6387 146.1877 15.27255 144.79824 15.6678 143.91315 16.06305 143.02808 16.6969 141.54596 17.09215 140.62068 17.48741 139.69539 18.12125 138.17577 18.51651 137.2443 18.91176 136.31282 19.54561 134.81058 19.94086 133.90726 20.3361 133.00394 20.96996 131.57535 21.3652 130.73372 21.76045 129.89209 22.3943 128.59014 22.78955 127.84135 23.1848 127.09256 23.81866 125.96529 24.2139 125.33694 24.60913 124.7086 25.243 123.79729 25.63823 123.31268 26.03348 122.82806 26.66733 122.16714 27.06259 121.84421 27.45784 121.52127 28.09169 121.13455 28.48694 120.98518 28.88219 120.8358 29.51604 120.73785 29.91129 120.76762 30.30653 120.7974 30.94038 120.99202 31.33563 121.19972 31.73088 121.40742 32.36473 121.88661 32.75998 122.26463 33.15523 122.64267 33.78908 123.38988 34.18433 123.92429 34.57959 124.4587 35.21344 125.44543 35.60869 126.11638 36.00392 126.78732 36.63777 127.97723 37.03302 128.76006 37.42825 129.54286 38.06212 130.89272 38.45737 131.7584 38.85262 132.6241 39.48647 134.08307 39.88171 134.99942 40.27696 135.91576 40.91081 137.42957 41.30606 138.36284 41.70131 139.2961 42.33516 140.81002 42.73041 141.72582 43.12567 142.64162 43.7595 144.09894 44.15475 144.96337 44.55002 145.8278 45.18385 147.17508 45.57912 147.95609 45.97437 148.7371 46.60822 149.92369 47.00346 150.59243 47.39871 151.26114 48.03258 152.24414 48.42781 152.77587 48.82304 153.30759 49.45691 154.04969 49.85214 154.4247 50.24738 154.79972 50.88124 155.27422 51.27649 155.47879 51.67174 155.68337 52.30559 155.8727 52.70084 155.89922 53.0961 155.92572 53.72993 155.82253 54.1252 155.66997 54.52045 155.51741 55.1543 155.12577 55.54955 154.79972 55.9448 154.47367 56.57864 153.80736 56.97389 153.32 57.36914 152.83264 58.00299 151.91776 58.39824 151.28708 58.79349 150.65639 59.42734 149.52523 59.82259 148.77446 60.21783 148.0237 60.8517 146.71903 61.24693 145.87602 61.64218 145.033 62.27603 143.60269 62.67128 142.6986 63.06651 141.79448 63.70038 140.29148 64.09563 139.35984 64.49088 138.42818 65.12473 136.9088 65.51997 135.98387 65.91522 135.05896 66.54907 133.57762 66.94432 132.69356 67.33957 131.80951 67.97342 130.4225 68.36867 129.61215 68.76392 128.80179 69.39777 127.55971 69.79301 126.853 70.18828 126.14629 70.82211 125.09561 71.21738 124.51859 71.61263 123.94157 72.24648 123.12006 72.64172 122.69414 73.03696 122.26823 73.67082 121.70789 74.06606 121.44887 74.46129 121.18987 75.09515 120.90994 75.4904 120.8273 75.88565 120.74467 76.5195 120.75641 76.91475 120.85326 77.31 120.9501 77.94385 121.25273 78.3391 121.52542 78.73436 121.79813 79.3682 122.3802 79.76344 122.81873 80.1587 123.25723 80.79254 124.09773 81.1878 124.68597 81.58305 125.27422 82.2169 126.34244 82.61215 127.05844 83.0074 127.77446 83.64125 129.02928 84.0365 129.8466 84.43175 130.66391 85.06561 132.06063 85.46085 132.94919 85.85608 133.83774 86.48994 135.32402 86.88518 136.25075 87.28041 137.17748 87.91428 138.69771 88.30952 139.62845 88.70479 140.55919 89.33862 142.05855 89.73389 142.95899 90.12914 143.85944 90.76299 145.28148 91.15823 146.11824 91.55348 146.955 92.18733 148.24774 92.58258 148.98986 92.97783 149.73197 93.61168 150.84688 94.00693 151.467 94.40218 152.08713 95.03603 152.98409 95.43127 153.45928 95.82652 153.93445 96.46037 154.5793 96.85562 154.89185 97.25089 155.20438 97.88474 155.57349 98.27998 155.71193 98.67522 155.85037 99.30908 155.93044 99.70432 155.8897 100.09955 155.84896 100.73341 155.63674 101.12866 155.41825 101.52391 155.19974 102.15776 154.703 102.55301 154.31484 102.94826 153.92667 103.5821 153.16407 103.97736 152.62059 104.3726 152.07712 105.00645 151.0764 105.4017 150.39777 105.79697 149.71915 106.4308 148.51815 106.82607 147.72945 107.22131 146.94075 107.85515 145.58307 108.25041 144.71335 108.64566 143.84363 109.27953 142.37949 109.67476 141.4611 110.06999 140.54273 110.70386 139.02744 111.09909 138.09424 111.49432 137.16103 112.12819 135.64879 112.52344 134.73514 112.91869 133.8215 113.55254 132.36939 113.94778 131.50926 114.34305 130.64916 114.97688 129.3109 115.37213 128.53601 115.7674 127.76111 116.40123 126.58537 116.7965 125.92433 117.19174 125.26329 117.82559 124.29425 118.22084 123.77159 118.61609 123.24893 119.24994 122.52235 119.64519 122.15736 120.04044 121.79236 120.67429 121.33467 121.06953 121.1409 121.46478 120.94711 122.09865 120.77611 122.49388 120.7607 122.88911 120.74529 123.52298 120.86621 123.91821 121.02974 124.31346 121.19327 124.94731 121.60298 125.34258 121.93936 125.73782 122.27574 126.37167 122.9574 126.76692 123.45412 127.16217 123.95084 127.79602 124.88066 128.19127 125.51949 128.58652 126.15833 129.22037 127.30118 129.61562 128.05847 130.01087 128.81578 130.64472 130.12993 131.03997 130.97769 131.43521 131.82544 132.06906 133.26172 132.46431 134.16852 132.85958 135.07532 133.49341 136.58109 133.88867 137.51334 134.28392 138.44559 134.91779 139.96419 135.31302 140.88755 135.70825 141.81092 136.34212 143.28792 136.73735 144.16837 137.13259 145.04882 137.76645 146.42855 138.1617 147.23332 138.55695 148.0381 139.1908 149.2693 139.58605 149.96869 139.9813 150.66809 140.61515 151.70586 141.01039 152.27413 141.40566 152.84239 142.03949 153.64839 142.43476 154.06439 142.83 154.4804 143.46385 155.02414 143.8591 155.27246 144.25435 155.5208 144.8882 155.78264 145.28345 155.85424 145.6787 155.92581 146.31256 155.89627 146.7078 155.78849 147.10303 155.6807 147.7369 155.36066 148.13213 155.0774 148.52736 154.79415 149.16123 154.1952 149.55648 153.74692 149.95174 153.29863 150.58557 152.44304 150.98084 151.84635 151.37609 151.24964 152.00992 150.16922 152.40518 149.44618 152.80043 148.72315 153.43428 147.45774 153.82953 146.63513 154.22478 145.81252 154.85863 144.40918 155.25388 143.51738 155.64913 142.6256 156.28298 141.1356 156.67823 140.20761 157.07347 139.27962 157.70732 137.7589 158.10257 136.82904 158.49784 135.8992 159.13169 134.40337 159.52692 133.50586 159.92217 132.60837 160.55602 131.19235 160.95127 130.36046 161.3465 129.52855 161.98036 128.24542 162.37561 127.51003 162.77086 126.77463 163.40471 125.67197 163.79996 125.06013 164.1952 124.4483 164.82906 123.56593 165.2243 123.1003 165.61956 122.63466 166.2534 122.00612 166.64865 121.70407 167.0439 121.40202 167.67775 121.05075 168.073 120.92334 168.46826 120.79593 169.1021 120.73401 169.49736 120.7858 169.89261 120.83757 170.52646 121.06737 170.9217 121.29662 171.31696 121.52585 171.95082 122.03983 172.34606 122.43808 172.74129 122.83632 173.37516 123.61458 173.77039 124.16695 174.16562 124.7193 174.79949 125.73303 175.19474 126.41916 175.58998 127.10529 176.22383 128.31757 176.61908 129.11214 177.01435 129.90673 177.64818 131.2723 178.04344 132.14597 178.43869 133.01964 179.07254 134.48874 179.46779 135.40903 179.86304 136.32933 180.49689 137.84597 180.89214 138.77893 181.28739 139.71189 181.92124 141.22197 182.31649 142.13326 182.71173 143.04456 183.3456 144.49123 183.74083 145.34702 184.13607 146.20282 184.76993 147.53261 185.16516 148.30127 185.56041 149.06993 186.19426 150.23384 186.58953 150.88697 186.98477 151.5401 187.6186 152.4951 188.01387 153.00858 188.40912 153.52205 189.04297 154.23297 189.43822 154.58777 189.83347 154.94257 190.46732 155.38275 190.86257 155.56574 191.25782 155.7487 191.89167 155.90219 192.28691 155.90657 192.68216 155.91095 193.31601 155.7717 193.71126 155.5973 194.10652 155.42292 194.74036 154.99625 195.1356 154.64962 195.53087 154.30298 196.16472 153.605 196.55997 153.09897 196.9552 152.59294 197.58907 151.64923 197.9843 151.00246 198.37953 150.3557 199.0134 149.20117 199.40865 148.4375 199.8039 147.67383 200.43775 146.35079 200.833 145.49842 201.22824 144.64604 201.86209 143.20362 202.25734 142.29418 202.65259 141.38474 203.28644 139.8764 203.68169 138.94374 204.07695 138.01107 204.71079 136.49373 205.10605 135.5721 205.5013 134.65048 206.13515 133.17798 206.5304 132.30124 206.92565 131.42452 207.5595 130.05236 207.95475 129.25316 208.34999 128.45397 208.98386 127.23328 209.37909 126.54114 209.77433 125.84901 210.40819 124.82414 210.80342 124.2647 211.19866 123.70525 211.83252 122.91505 212.22777 122.50902 212.62303 122.10297 213.25687 121.57579 213.65213 121.33813 214.04738 121.1005 214.68123 120.85672 215.07648 120.79617 215.47173 120.73563 216.10558 120.78294 216.50083 120.9017 216.89608 121.02046 217.52993 121.3584 217.92517 121.65216 218.32042 121.94592 218.95427 122.56108 219.34952 123.01898 219.74477 123.47688 220.37863 124.34718 220.77387 124.95242 221.16912 125.55766 221.80297 126.65112 222.19821 127.38112 222.59345 128.11113 223.2273 129.38605 223.62256 130.21382 224.0178 131.04158 224.65166 132.45209 225.0469 133.34712 225.44216 134.24216 226.076 135.73561 226.47126 136.66469 226.8665 137.59375 227.50035 139.11443 227.8956 140.04325 228.29085 140.97208 228.9247 142.46469 229.31995 143.35907 229.71521 144.25345 230.34905 145.66255 230.7443 146.48937 231.13956 147.31616 231.77339 148.58966 232.16866 149.31816 232.5639 150.04665 233.19777 151.13657 233.593 151.73995 233.98824 152.3433 234.6221 153.21085 235.01734 153.6669 235.41257 154.12294 236.04644 154.73513 236.44168 155.0268 236.83693 155.31845 237.47078 155.65248 237.86603 155.76903 238.26128 155.88556 238.89513 155.9296 239.29038 155.86678 239.68564 155.80394 240.31948 155.55609 240.71474 155.31616 241.10999 155.07622 241.74384 154.54557 242.13909 154.13748 242.53433 153.7294 243.16819 152.93614 243.56343 152.3749 243.95868 151.81366 244.59253 150.78603 244.98778 150.09239 245.38303 149.39876 246.01689 148.17603 246.41213 147.37563 246.80736 146.57523 247.44123 145.20122 247.83646 144.32364 248.2317 143.44606 248.86556 141.97261 249.26082 141.05063 249.65607 140.12863 250.28992 138.61118 250.68517 137.67856 251.08042 136.74596 251.71427 135.23789 252.10951 134.329 252.50476 133.42009 253.13861 131.97913 253.53386 131.12778 253.92911 130.27642 254.56296 128.95536 254.9582 128.19301 255.35346 127.43065 255.9873 126.27838 256.38255 125.63324 256.77784 124.9881 257.41169 124.0474 257.80693 123.54321 258.20216 123.03905 258.836 122.34402 259.23127 121.99948 259.62648 121.65495 260.26036 121.23207 260.6556 121.06001 261.05085 120.88797 261.6847 120.75275 262.07994 120.7594 262.4752 120.76605 263.10905 120.9229 263.5043 121.10803 263.89955 121.29315 264.5334 121.7369 264.92863 122.09378 265.3239 122.45068 265.95774 123.165 266.35298 123.68033 266.74827 124.19566 267.38209 125.15323 267.77735 125.80798 268.17259 126.46272 268.80644 127.62936 269.2017 128.39933 269.59696 129.16928 270.2308 130.50075 270.62605 131.35746 271.02128 132.21414 271.65516 133.66202 272.05039 134.5738 272.4456 135.48558 273.07948 136.99599 273.47474 137.929 273.86997 138.86203 274.5038 140.37859 274.89906 141.29848 275.29435 142.21837 275.92817 143.68604 276.32344 144.55893 276.71867 145.43184 277.3525 146.7963 277.74778 147.58974 278.143 148.38318 278.77687 149.59288 279.17213 150.27753 279.56739 150.96216 280.20124 151.97357 280.59648 152.52414 280.9917 153.07469 281.62556 153.84949 282.0208 154.24564 282.41606 154.64179 283.44517 155.3793 283.44517 155.3793"/>
<text fill="#12412a" xml:space="preserve" transform="matrix(1 0 -0 1 0 283.464)" font-size="16.9365" font-family="LMRoman17"><tspan y="-161.458" x="83.215 94.52858 102.30244 110.956989 115.63146 122.50768 128.58789 134.66809 138.90222 146.67607 155.33063 170.7259 178.49976 192.4893">Confessionsofa</tspan></text>
<text fill="#12412a" xml:space="preserve" transform="matrix(1 0 -0 1 0 283.464)" font-size="24.9066" font-family="LMRoman12" font-weight="bold"><tspan y="-137.47" x="46.156 61.722627 83.26684 102.42001 120.80109 141.69773 160.8509 181.89699 197.46361 215.84468">SUPERPOSED</tspan></text>
<text fill="#12412a" xml:space="preserve" transform="matrix(1 0 -0 1 0 283.464)" font-size="24.9066" font-family="LMRoman12" font-weight="bold"><tspan y="-113.375" x="76.857 98.77481 117.15588 138.05252 156.4336 175.91056 186.34642">HERETIC</tspan></text>
</g>
</svg>
